G04 #@! TF.GenerationSoftware,KiCad,Pcbnew,7.0.10*
G04 #@! TF.CreationDate,2024-01-29T09:48:01-06:00*
G04 #@! TF.ProjectId,oled_expander,6f6c6564-5f65-4787-9061-6e6465722e6b,1.1*
G04 #@! TF.SameCoordinates,Original*
G04 #@! TF.FileFunction,Legend,Top*
G04 #@! TF.FilePolarity,Positive*
%FSLAX46Y46*%
G04 Gerber Fmt 4.6, Leading zero omitted, Abs format (unit mm)*
G04 Created by KiCad (PCBNEW 7.0.10) date 2024-01-29 09:48:01*
%MOMM*%
%LPD*%
G01*
G04 APERTURE LIST*
%ADD10C,0.100000*%
%ADD11C,0.150000*%
%ADD12C,0.120000*%
%ADD13C,2.000000*%
%ADD14C,2.200000*%
%ADD15O,2.720000X3.580000*%
%ADD16O,2.696000X3.580000*%
%ADD17R,1.800000X1.800000*%
%ADD18C,1.800000*%
%ADD19C,3.000000*%
%ADD20R,1.700000X1.700000*%
%ADD21O,1.700000X1.700000*%
G04 APERTURE END LIST*
D10*
X63799158Y-65017693D02*
X63942015Y-65065312D01*
X63942015Y-65065312D02*
X64180110Y-65065312D01*
X64180110Y-65065312D02*
X64275348Y-65017693D01*
X64275348Y-65017693D02*
X64322967Y-64970073D01*
X64322967Y-64970073D02*
X64370586Y-64874835D01*
X64370586Y-64874835D02*
X64370586Y-64779597D01*
X64370586Y-64779597D02*
X64322967Y-64684359D01*
X64322967Y-64684359D02*
X64275348Y-64636740D01*
X64275348Y-64636740D02*
X64180110Y-64589121D01*
X64180110Y-64589121D02*
X63989634Y-64541502D01*
X63989634Y-64541502D02*
X63894396Y-64493883D01*
X63894396Y-64493883D02*
X63846777Y-64446264D01*
X63846777Y-64446264D02*
X63799158Y-64351026D01*
X63799158Y-64351026D02*
X63799158Y-64255788D01*
X63799158Y-64255788D02*
X63846777Y-64160550D01*
X63846777Y-64160550D02*
X63894396Y-64112931D01*
X63894396Y-64112931D02*
X63989634Y-64065312D01*
X63989634Y-64065312D02*
X64227729Y-64065312D01*
X64227729Y-64065312D02*
X64370586Y-64112931D01*
X64751539Y-65017693D02*
X64894396Y-65065312D01*
X64894396Y-65065312D02*
X65132491Y-65065312D01*
X65132491Y-65065312D02*
X65227729Y-65017693D01*
X65227729Y-65017693D02*
X65275348Y-64970073D01*
X65275348Y-64970073D02*
X65322967Y-64874835D01*
X65322967Y-64874835D02*
X65322967Y-64779597D01*
X65322967Y-64779597D02*
X65275348Y-64684359D01*
X65275348Y-64684359D02*
X65227729Y-64636740D01*
X65227729Y-64636740D02*
X65132491Y-64589121D01*
X65132491Y-64589121D02*
X64942015Y-64541502D01*
X64942015Y-64541502D02*
X64846777Y-64493883D01*
X64846777Y-64493883D02*
X64799158Y-64446264D01*
X64799158Y-64446264D02*
X64751539Y-64351026D01*
X64751539Y-64351026D02*
X64751539Y-64255788D01*
X64751539Y-64255788D02*
X64799158Y-64160550D01*
X64799158Y-64160550D02*
X64846777Y-64112931D01*
X64846777Y-64112931D02*
X64942015Y-64065312D01*
X64942015Y-64065312D02*
X65180110Y-64065312D01*
X65180110Y-64065312D02*
X65322967Y-64112931D01*
X65751539Y-65065312D02*
X65751539Y-64065312D01*
X65751539Y-64065312D02*
X65989634Y-64065312D01*
X65989634Y-64065312D02*
X66132491Y-64112931D01*
X66132491Y-64112931D02*
X66227729Y-64208169D01*
X66227729Y-64208169D02*
X66275348Y-64303407D01*
X66275348Y-64303407D02*
X66322967Y-64493883D01*
X66322967Y-64493883D02*
X66322967Y-64636740D01*
X66322967Y-64636740D02*
X66275348Y-64827216D01*
X66275348Y-64827216D02*
X66227729Y-64922454D01*
X66227729Y-64922454D02*
X66132491Y-65017693D01*
X66132491Y-65017693D02*
X65989634Y-65065312D01*
X65989634Y-65065312D02*
X65751539Y-65065312D01*
X67275348Y-65065312D02*
X66703920Y-65065312D01*
X66989634Y-65065312D02*
X66989634Y-64065312D01*
X66989634Y-64065312D02*
X66894396Y-64208169D01*
X66894396Y-64208169D02*
X66799158Y-64303407D01*
X66799158Y-64303407D02*
X66703920Y-64351026D01*
X67608682Y-64065312D02*
X68227729Y-64065312D01*
X68227729Y-64065312D02*
X67894396Y-64446264D01*
X67894396Y-64446264D02*
X68037253Y-64446264D01*
X68037253Y-64446264D02*
X68132491Y-64493883D01*
X68132491Y-64493883D02*
X68180110Y-64541502D01*
X68180110Y-64541502D02*
X68227729Y-64636740D01*
X68227729Y-64636740D02*
X68227729Y-64874835D01*
X68227729Y-64874835D02*
X68180110Y-64970073D01*
X68180110Y-64970073D02*
X68132491Y-65017693D01*
X68132491Y-65017693D02*
X68037253Y-65065312D01*
X68037253Y-65065312D02*
X67751539Y-65065312D01*
X67751539Y-65065312D02*
X67656301Y-65017693D01*
X67656301Y-65017693D02*
X67608682Y-64970073D01*
X68846777Y-64065312D02*
X68942015Y-64065312D01*
X68942015Y-64065312D02*
X69037253Y-64112931D01*
X69037253Y-64112931D02*
X69084872Y-64160550D01*
X69084872Y-64160550D02*
X69132491Y-64255788D01*
X69132491Y-64255788D02*
X69180110Y-64446264D01*
X69180110Y-64446264D02*
X69180110Y-64684359D01*
X69180110Y-64684359D02*
X69132491Y-64874835D01*
X69132491Y-64874835D02*
X69084872Y-64970073D01*
X69084872Y-64970073D02*
X69037253Y-65017693D01*
X69037253Y-65017693D02*
X68942015Y-65065312D01*
X68942015Y-65065312D02*
X68846777Y-65065312D01*
X68846777Y-65065312D02*
X68751539Y-65017693D01*
X68751539Y-65017693D02*
X68703920Y-64970073D01*
X68703920Y-64970073D02*
X68656301Y-64874835D01*
X68656301Y-64874835D02*
X68608682Y-64684359D01*
X68608682Y-64684359D02*
X68608682Y-64446264D01*
X68608682Y-64446264D02*
X68656301Y-64255788D01*
X68656301Y-64255788D02*
X68703920Y-64160550D01*
X68703920Y-64160550D02*
X68751539Y-64112931D01*
X68751539Y-64112931D02*
X68846777Y-64065312D01*
X70037253Y-64065312D02*
X69846777Y-64065312D01*
X69846777Y-64065312D02*
X69751539Y-64112931D01*
X69751539Y-64112931D02*
X69703920Y-64160550D01*
X69703920Y-64160550D02*
X69608682Y-64303407D01*
X69608682Y-64303407D02*
X69561063Y-64493883D01*
X69561063Y-64493883D02*
X69561063Y-64874835D01*
X69561063Y-64874835D02*
X69608682Y-64970073D01*
X69608682Y-64970073D02*
X69656301Y-65017693D01*
X69656301Y-65017693D02*
X69751539Y-65065312D01*
X69751539Y-65065312D02*
X69942015Y-65065312D01*
X69942015Y-65065312D02*
X70037253Y-65017693D01*
X70037253Y-65017693D02*
X70084872Y-64970073D01*
X70084872Y-64970073D02*
X70132491Y-64874835D01*
X70132491Y-64874835D02*
X70132491Y-64636740D01*
X70132491Y-64636740D02*
X70084872Y-64541502D01*
X70084872Y-64541502D02*
X70037253Y-64493883D01*
X70037253Y-64493883D02*
X69942015Y-64446264D01*
X69942015Y-64446264D02*
X69751539Y-64446264D01*
X69751539Y-64446264D02*
X69656301Y-64493883D01*
X69656301Y-64493883D02*
X69608682Y-64541502D01*
X69608682Y-64541502D02*
X69561063Y-64636740D01*
X71275349Y-65017693D02*
X71418206Y-65065312D01*
X71418206Y-65065312D02*
X71656301Y-65065312D01*
X71656301Y-65065312D02*
X71751539Y-65017693D01*
X71751539Y-65017693D02*
X71799158Y-64970073D01*
X71799158Y-64970073D02*
X71846777Y-64874835D01*
X71846777Y-64874835D02*
X71846777Y-64779597D01*
X71846777Y-64779597D02*
X71799158Y-64684359D01*
X71799158Y-64684359D02*
X71751539Y-64636740D01*
X71751539Y-64636740D02*
X71656301Y-64589121D01*
X71656301Y-64589121D02*
X71465825Y-64541502D01*
X71465825Y-64541502D02*
X71370587Y-64493883D01*
X71370587Y-64493883D02*
X71322968Y-64446264D01*
X71322968Y-64446264D02*
X71275349Y-64351026D01*
X71275349Y-64351026D02*
X71275349Y-64255788D01*
X71275349Y-64255788D02*
X71322968Y-64160550D01*
X71322968Y-64160550D02*
X71370587Y-64112931D01*
X71370587Y-64112931D02*
X71465825Y-64065312D01*
X71465825Y-64065312D02*
X71703920Y-64065312D01*
X71703920Y-64065312D02*
X71846777Y-64112931D01*
X72275349Y-65065312D02*
X72275349Y-64065312D01*
X72275349Y-64065312D02*
X72656301Y-64065312D01*
X72656301Y-64065312D02*
X72751539Y-64112931D01*
X72751539Y-64112931D02*
X72799158Y-64160550D01*
X72799158Y-64160550D02*
X72846777Y-64255788D01*
X72846777Y-64255788D02*
X72846777Y-64398645D01*
X72846777Y-64398645D02*
X72799158Y-64493883D01*
X72799158Y-64493883D02*
X72751539Y-64541502D01*
X72751539Y-64541502D02*
X72656301Y-64589121D01*
X72656301Y-64589121D02*
X72275349Y-64589121D01*
X73275349Y-65065312D02*
X73275349Y-64065312D01*
X89576226Y-52705312D02*
X89576226Y-51705312D01*
X90147654Y-52705312D02*
X89719083Y-52133883D01*
X90147654Y-51705312D02*
X89576226Y-52276740D01*
X90576226Y-52038645D02*
X90576226Y-52705312D01*
X90576226Y-52133883D02*
X90623845Y-52086264D01*
X90623845Y-52086264D02*
X90719083Y-52038645D01*
X90719083Y-52038645D02*
X90861940Y-52038645D01*
X90861940Y-52038645D02*
X90957178Y-52086264D01*
X90957178Y-52086264D02*
X91004797Y-52181502D01*
X91004797Y-52181502D02*
X91004797Y-52705312D01*
X91480988Y-52705312D02*
X91480988Y-52038645D01*
X91480988Y-51705312D02*
X91433369Y-51752931D01*
X91433369Y-51752931D02*
X91480988Y-51800550D01*
X91480988Y-51800550D02*
X91528607Y-51752931D01*
X91528607Y-51752931D02*
X91480988Y-51705312D01*
X91480988Y-51705312D02*
X91480988Y-51800550D01*
X92385749Y-52038645D02*
X92385749Y-52848169D01*
X92385749Y-52848169D02*
X92338130Y-52943407D01*
X92338130Y-52943407D02*
X92290511Y-52991026D01*
X92290511Y-52991026D02*
X92195273Y-53038645D01*
X92195273Y-53038645D02*
X92052416Y-53038645D01*
X92052416Y-53038645D02*
X91957178Y-52991026D01*
X92385749Y-52657693D02*
X92290511Y-52705312D01*
X92290511Y-52705312D02*
X92100035Y-52705312D01*
X92100035Y-52705312D02*
X92004797Y-52657693D01*
X92004797Y-52657693D02*
X91957178Y-52610073D01*
X91957178Y-52610073D02*
X91909559Y-52514835D01*
X91909559Y-52514835D02*
X91909559Y-52229121D01*
X91909559Y-52229121D02*
X91957178Y-52133883D01*
X91957178Y-52133883D02*
X92004797Y-52086264D01*
X92004797Y-52086264D02*
X92100035Y-52038645D01*
X92100035Y-52038645D02*
X92290511Y-52038645D01*
X92290511Y-52038645D02*
X92385749Y-52086264D01*
X92861940Y-52705312D02*
X92861940Y-51705312D01*
X93290511Y-52705312D02*
X93290511Y-52181502D01*
X93290511Y-52181502D02*
X93242892Y-52086264D01*
X93242892Y-52086264D02*
X93147654Y-52038645D01*
X93147654Y-52038645D02*
X93004797Y-52038645D01*
X93004797Y-52038645D02*
X92909559Y-52086264D01*
X92909559Y-52086264D02*
X92861940Y-52133883D01*
X93623845Y-52038645D02*
X94004797Y-52038645D01*
X93766702Y-51705312D02*
X93766702Y-52562454D01*
X93766702Y-52562454D02*
X93814321Y-52657693D01*
X93814321Y-52657693D02*
X93909559Y-52705312D01*
X93909559Y-52705312D02*
X94004797Y-52705312D01*
X94338131Y-52705312D02*
X94338131Y-51705312D01*
X94338131Y-52181502D02*
X94909559Y-52181502D01*
X94909559Y-52705312D02*
X94909559Y-51705312D01*
X95385750Y-52705312D02*
X95385750Y-52038645D01*
X95385750Y-51705312D02*
X95338131Y-51752931D01*
X95338131Y-51752931D02*
X95385750Y-51800550D01*
X95385750Y-51800550D02*
X95433369Y-51752931D01*
X95433369Y-51752931D02*
X95385750Y-51705312D01*
X95385750Y-51705312D02*
X95385750Y-51800550D01*
X96004797Y-52705312D02*
X95909559Y-52657693D01*
X95909559Y-52657693D02*
X95861940Y-52562454D01*
X95861940Y-52562454D02*
X95861940Y-51705312D01*
X96528607Y-52705312D02*
X96433369Y-52657693D01*
X96433369Y-52657693D02*
X96385750Y-52562454D01*
X96385750Y-52562454D02*
X96385750Y-51705312D01*
X97671465Y-52181502D02*
X98004798Y-52181502D01*
X98147655Y-52705312D02*
X97671465Y-52705312D01*
X97671465Y-52705312D02*
X97671465Y-51705312D01*
X97671465Y-51705312D02*
X98147655Y-51705312D01*
X98576227Y-52038645D02*
X98576227Y-52705312D01*
X98576227Y-52133883D02*
X98623846Y-52086264D01*
X98623846Y-52086264D02*
X98719084Y-52038645D01*
X98719084Y-52038645D02*
X98861941Y-52038645D01*
X98861941Y-52038645D02*
X98957179Y-52086264D01*
X98957179Y-52086264D02*
X99004798Y-52181502D01*
X99004798Y-52181502D02*
X99004798Y-52705312D01*
X99909560Y-52038645D02*
X99909560Y-52848169D01*
X99909560Y-52848169D02*
X99861941Y-52943407D01*
X99861941Y-52943407D02*
X99814322Y-52991026D01*
X99814322Y-52991026D02*
X99719084Y-53038645D01*
X99719084Y-53038645D02*
X99576227Y-53038645D01*
X99576227Y-53038645D02*
X99480989Y-52991026D01*
X99909560Y-52657693D02*
X99814322Y-52705312D01*
X99814322Y-52705312D02*
X99623846Y-52705312D01*
X99623846Y-52705312D02*
X99528608Y-52657693D01*
X99528608Y-52657693D02*
X99480989Y-52610073D01*
X99480989Y-52610073D02*
X99433370Y-52514835D01*
X99433370Y-52514835D02*
X99433370Y-52229121D01*
X99433370Y-52229121D02*
X99480989Y-52133883D01*
X99480989Y-52133883D02*
X99528608Y-52086264D01*
X99528608Y-52086264D02*
X99623846Y-52038645D01*
X99623846Y-52038645D02*
X99814322Y-52038645D01*
X99814322Y-52038645D02*
X99909560Y-52086264D01*
X100385751Y-52705312D02*
X100385751Y-52038645D01*
X100385751Y-51705312D02*
X100338132Y-51752931D01*
X100338132Y-51752931D02*
X100385751Y-51800550D01*
X100385751Y-51800550D02*
X100433370Y-51752931D01*
X100433370Y-51752931D02*
X100385751Y-51705312D01*
X100385751Y-51705312D02*
X100385751Y-51800550D01*
X100861941Y-52038645D02*
X100861941Y-52705312D01*
X100861941Y-52133883D02*
X100909560Y-52086264D01*
X100909560Y-52086264D02*
X101004798Y-52038645D01*
X101004798Y-52038645D02*
X101147655Y-52038645D01*
X101147655Y-52038645D02*
X101242893Y-52086264D01*
X101242893Y-52086264D02*
X101290512Y-52181502D01*
X101290512Y-52181502D02*
X101290512Y-52705312D01*
X102147655Y-52657693D02*
X102052417Y-52705312D01*
X102052417Y-52705312D02*
X101861941Y-52705312D01*
X101861941Y-52705312D02*
X101766703Y-52657693D01*
X101766703Y-52657693D02*
X101719084Y-52562454D01*
X101719084Y-52562454D02*
X101719084Y-52181502D01*
X101719084Y-52181502D02*
X101766703Y-52086264D01*
X101766703Y-52086264D02*
X101861941Y-52038645D01*
X101861941Y-52038645D02*
X102052417Y-52038645D01*
X102052417Y-52038645D02*
X102147655Y-52086264D01*
X102147655Y-52086264D02*
X102195274Y-52181502D01*
X102195274Y-52181502D02*
X102195274Y-52276740D01*
X102195274Y-52276740D02*
X101719084Y-52371978D01*
X103004798Y-52657693D02*
X102909560Y-52705312D01*
X102909560Y-52705312D02*
X102719084Y-52705312D01*
X102719084Y-52705312D02*
X102623846Y-52657693D01*
X102623846Y-52657693D02*
X102576227Y-52562454D01*
X102576227Y-52562454D02*
X102576227Y-52181502D01*
X102576227Y-52181502D02*
X102623846Y-52086264D01*
X102623846Y-52086264D02*
X102719084Y-52038645D01*
X102719084Y-52038645D02*
X102909560Y-52038645D01*
X102909560Y-52038645D02*
X103004798Y-52086264D01*
X103004798Y-52086264D02*
X103052417Y-52181502D01*
X103052417Y-52181502D02*
X103052417Y-52276740D01*
X103052417Y-52276740D02*
X102576227Y-52371978D01*
X103480989Y-52705312D02*
X103480989Y-52038645D01*
X103480989Y-52229121D02*
X103528608Y-52133883D01*
X103528608Y-52133883D02*
X103576227Y-52086264D01*
X103576227Y-52086264D02*
X103671465Y-52038645D01*
X103671465Y-52038645D02*
X103766703Y-52038645D01*
X104100037Y-52705312D02*
X104100037Y-52038645D01*
X104100037Y-51705312D02*
X104052418Y-51752931D01*
X104052418Y-51752931D02*
X104100037Y-51800550D01*
X104100037Y-51800550D02*
X104147656Y-51752931D01*
X104147656Y-51752931D02*
X104100037Y-51705312D01*
X104100037Y-51705312D02*
X104100037Y-51800550D01*
X104576227Y-52038645D02*
X104576227Y-52705312D01*
X104576227Y-52133883D02*
X104623846Y-52086264D01*
X104623846Y-52086264D02*
X104719084Y-52038645D01*
X104719084Y-52038645D02*
X104861941Y-52038645D01*
X104861941Y-52038645D02*
X104957179Y-52086264D01*
X104957179Y-52086264D02*
X105004798Y-52181502D01*
X105004798Y-52181502D02*
X105004798Y-52705312D01*
X105909560Y-52038645D02*
X105909560Y-52848169D01*
X105909560Y-52848169D02*
X105861941Y-52943407D01*
X105861941Y-52943407D02*
X105814322Y-52991026D01*
X105814322Y-52991026D02*
X105719084Y-53038645D01*
X105719084Y-53038645D02*
X105576227Y-53038645D01*
X105576227Y-53038645D02*
X105480989Y-52991026D01*
X105909560Y-52657693D02*
X105814322Y-52705312D01*
X105814322Y-52705312D02*
X105623846Y-52705312D01*
X105623846Y-52705312D02*
X105528608Y-52657693D01*
X105528608Y-52657693D02*
X105480989Y-52610073D01*
X105480989Y-52610073D02*
X105433370Y-52514835D01*
X105433370Y-52514835D02*
X105433370Y-52229121D01*
X105433370Y-52229121D02*
X105480989Y-52133883D01*
X105480989Y-52133883D02*
X105528608Y-52086264D01*
X105528608Y-52086264D02*
X105623846Y-52038645D01*
X105623846Y-52038645D02*
X105814322Y-52038645D01*
X105814322Y-52038645D02*
X105909560Y-52086264D01*
X88528606Y-54315312D02*
X88528606Y-53315312D01*
X88528606Y-53315312D02*
X88909558Y-53315312D01*
X88909558Y-53315312D02*
X89004796Y-53362931D01*
X89004796Y-53362931D02*
X89052415Y-53410550D01*
X89052415Y-53410550D02*
X89100034Y-53505788D01*
X89100034Y-53505788D02*
X89100034Y-53648645D01*
X89100034Y-53648645D02*
X89052415Y-53743883D01*
X89052415Y-53743883D02*
X89004796Y-53791502D01*
X89004796Y-53791502D02*
X88909558Y-53839121D01*
X88909558Y-53839121D02*
X88528606Y-53839121D01*
X89671463Y-54315312D02*
X89576225Y-54267693D01*
X89576225Y-54267693D02*
X89528606Y-54220073D01*
X89528606Y-54220073D02*
X89480987Y-54124835D01*
X89480987Y-54124835D02*
X89480987Y-53839121D01*
X89480987Y-53839121D02*
X89528606Y-53743883D01*
X89528606Y-53743883D02*
X89576225Y-53696264D01*
X89576225Y-53696264D02*
X89671463Y-53648645D01*
X89671463Y-53648645D02*
X89814320Y-53648645D01*
X89814320Y-53648645D02*
X89909558Y-53696264D01*
X89909558Y-53696264D02*
X89957177Y-53743883D01*
X89957177Y-53743883D02*
X90004796Y-53839121D01*
X90004796Y-53839121D02*
X90004796Y-54124835D01*
X90004796Y-54124835D02*
X89957177Y-54220073D01*
X89957177Y-54220073D02*
X89909558Y-54267693D01*
X89909558Y-54267693D02*
X89814320Y-54315312D01*
X89814320Y-54315312D02*
X89671463Y-54315312D01*
X90861939Y-54315312D02*
X90861939Y-53315312D01*
X90861939Y-54267693D02*
X90766701Y-54315312D01*
X90766701Y-54315312D02*
X90576225Y-54315312D01*
X90576225Y-54315312D02*
X90480987Y-54267693D01*
X90480987Y-54267693D02*
X90433368Y-54220073D01*
X90433368Y-54220073D02*
X90385749Y-54124835D01*
X90385749Y-54124835D02*
X90385749Y-53839121D01*
X90385749Y-53839121D02*
X90433368Y-53743883D01*
X90433368Y-53743883D02*
X90480987Y-53696264D01*
X90480987Y-53696264D02*
X90576225Y-53648645D01*
X90576225Y-53648645D02*
X90766701Y-53648645D01*
X90766701Y-53648645D02*
X90861939Y-53696264D01*
X92290511Y-53315312D02*
X92480987Y-53315312D01*
X92480987Y-53315312D02*
X92576225Y-53362931D01*
X92576225Y-53362931D02*
X92671463Y-53458169D01*
X92671463Y-53458169D02*
X92719082Y-53648645D01*
X92719082Y-53648645D02*
X92719082Y-53981978D01*
X92719082Y-53981978D02*
X92671463Y-54172454D01*
X92671463Y-54172454D02*
X92576225Y-54267693D01*
X92576225Y-54267693D02*
X92480987Y-54315312D01*
X92480987Y-54315312D02*
X92290511Y-54315312D01*
X92290511Y-54315312D02*
X92195273Y-54267693D01*
X92195273Y-54267693D02*
X92100035Y-54172454D01*
X92100035Y-54172454D02*
X92052416Y-53981978D01*
X92052416Y-53981978D02*
X92052416Y-53648645D01*
X92052416Y-53648645D02*
X92100035Y-53458169D01*
X92100035Y-53458169D02*
X92195273Y-53362931D01*
X92195273Y-53362931D02*
X92290511Y-53315312D01*
X93623844Y-54315312D02*
X93147654Y-54315312D01*
X93147654Y-54315312D02*
X93147654Y-53315312D01*
X93957178Y-53791502D02*
X94290511Y-53791502D01*
X94433368Y-54315312D02*
X93957178Y-54315312D01*
X93957178Y-54315312D02*
X93957178Y-53315312D01*
X93957178Y-53315312D02*
X94433368Y-53315312D01*
X94861940Y-54315312D02*
X94861940Y-53315312D01*
X94861940Y-53315312D02*
X95100035Y-53315312D01*
X95100035Y-53315312D02*
X95242892Y-53362931D01*
X95242892Y-53362931D02*
X95338130Y-53458169D01*
X95338130Y-53458169D02*
X95385749Y-53553407D01*
X95385749Y-53553407D02*
X95433368Y-53743883D01*
X95433368Y-53743883D02*
X95433368Y-53886740D01*
X95433368Y-53886740D02*
X95385749Y-54077216D01*
X95385749Y-54077216D02*
X95338130Y-54172454D01*
X95338130Y-54172454D02*
X95242892Y-54267693D01*
X95242892Y-54267693D02*
X95100035Y-54315312D01*
X95100035Y-54315312D02*
X94861940Y-54315312D01*
X96623845Y-53791502D02*
X96957178Y-53791502D01*
X97100035Y-54315312D02*
X96623845Y-54315312D01*
X96623845Y-54315312D02*
X96623845Y-53315312D01*
X96623845Y-53315312D02*
X97100035Y-53315312D01*
X97433369Y-54315312D02*
X97957178Y-53648645D01*
X97433369Y-53648645D02*
X97957178Y-54315312D01*
X98338131Y-53648645D02*
X98338131Y-54648645D01*
X98338131Y-53696264D02*
X98433369Y-53648645D01*
X98433369Y-53648645D02*
X98623845Y-53648645D01*
X98623845Y-53648645D02*
X98719083Y-53696264D01*
X98719083Y-53696264D02*
X98766702Y-53743883D01*
X98766702Y-53743883D02*
X98814321Y-53839121D01*
X98814321Y-53839121D02*
X98814321Y-54124835D01*
X98814321Y-54124835D02*
X98766702Y-54220073D01*
X98766702Y-54220073D02*
X98719083Y-54267693D01*
X98719083Y-54267693D02*
X98623845Y-54315312D01*
X98623845Y-54315312D02*
X98433369Y-54315312D01*
X98433369Y-54315312D02*
X98338131Y-54267693D01*
X99671464Y-54315312D02*
X99671464Y-53791502D01*
X99671464Y-53791502D02*
X99623845Y-53696264D01*
X99623845Y-53696264D02*
X99528607Y-53648645D01*
X99528607Y-53648645D02*
X99338131Y-53648645D01*
X99338131Y-53648645D02*
X99242893Y-53696264D01*
X99671464Y-54267693D02*
X99576226Y-54315312D01*
X99576226Y-54315312D02*
X99338131Y-54315312D01*
X99338131Y-54315312D02*
X99242893Y-54267693D01*
X99242893Y-54267693D02*
X99195274Y-54172454D01*
X99195274Y-54172454D02*
X99195274Y-54077216D01*
X99195274Y-54077216D02*
X99242893Y-53981978D01*
X99242893Y-53981978D02*
X99338131Y-53934359D01*
X99338131Y-53934359D02*
X99576226Y-53934359D01*
X99576226Y-53934359D02*
X99671464Y-53886740D01*
X100147655Y-53648645D02*
X100147655Y-54315312D01*
X100147655Y-53743883D02*
X100195274Y-53696264D01*
X100195274Y-53696264D02*
X100290512Y-53648645D01*
X100290512Y-53648645D02*
X100433369Y-53648645D01*
X100433369Y-53648645D02*
X100528607Y-53696264D01*
X100528607Y-53696264D02*
X100576226Y-53791502D01*
X100576226Y-53791502D02*
X100576226Y-54315312D01*
X101480988Y-54315312D02*
X101480988Y-53315312D01*
X101480988Y-54267693D02*
X101385750Y-54315312D01*
X101385750Y-54315312D02*
X101195274Y-54315312D01*
X101195274Y-54315312D02*
X101100036Y-54267693D01*
X101100036Y-54267693D02*
X101052417Y-54220073D01*
X101052417Y-54220073D02*
X101004798Y-54124835D01*
X101004798Y-54124835D02*
X101004798Y-53839121D01*
X101004798Y-53839121D02*
X101052417Y-53743883D01*
X101052417Y-53743883D02*
X101100036Y-53696264D01*
X101100036Y-53696264D02*
X101195274Y-53648645D01*
X101195274Y-53648645D02*
X101385750Y-53648645D01*
X101385750Y-53648645D02*
X101480988Y-53696264D01*
X102338131Y-54267693D02*
X102242893Y-54315312D01*
X102242893Y-54315312D02*
X102052417Y-54315312D01*
X102052417Y-54315312D02*
X101957179Y-54267693D01*
X101957179Y-54267693D02*
X101909560Y-54172454D01*
X101909560Y-54172454D02*
X101909560Y-53791502D01*
X101909560Y-53791502D02*
X101957179Y-53696264D01*
X101957179Y-53696264D02*
X102052417Y-53648645D01*
X102052417Y-53648645D02*
X102242893Y-53648645D01*
X102242893Y-53648645D02*
X102338131Y-53696264D01*
X102338131Y-53696264D02*
X102385750Y-53791502D01*
X102385750Y-53791502D02*
X102385750Y-53886740D01*
X102385750Y-53886740D02*
X101909560Y-53981978D01*
X102814322Y-54315312D02*
X102814322Y-53648645D01*
X102814322Y-53839121D02*
X102861941Y-53743883D01*
X102861941Y-53743883D02*
X102909560Y-53696264D01*
X102909560Y-53696264D02*
X103004798Y-53648645D01*
X103004798Y-53648645D02*
X103100036Y-53648645D01*
X104052418Y-53315312D02*
X104385751Y-54315312D01*
X104385751Y-54315312D02*
X104719084Y-53315312D01*
X105576227Y-54315312D02*
X105004799Y-54315312D01*
X105290513Y-54315312D02*
X105290513Y-53315312D01*
X105290513Y-53315312D02*
X105195275Y-53458169D01*
X105195275Y-53458169D02*
X105100037Y-53553407D01*
X105100037Y-53553407D02*
X105004799Y-53601026D01*
X106004799Y-54220073D02*
X106052418Y-54267693D01*
X106052418Y-54267693D02*
X106004799Y-54315312D01*
X106004799Y-54315312D02*
X105957180Y-54267693D01*
X105957180Y-54267693D02*
X106004799Y-54220073D01*
X106004799Y-54220073D02*
X106004799Y-54315312D01*
X107004798Y-54315312D02*
X106433370Y-54315312D01*
X106719084Y-54315312D02*
X106719084Y-53315312D01*
X106719084Y-53315312D02*
X106623846Y-53458169D01*
X106623846Y-53458169D02*
X106528608Y-53553407D01*
X106528608Y-53553407D02*
X106433370Y-53601026D01*
D11*
X90159560Y-78200093D02*
X90302417Y-78247712D01*
X90302417Y-78247712D02*
X90540512Y-78247712D01*
X90540512Y-78247712D02*
X90635750Y-78200093D01*
X90635750Y-78200093D02*
X90683369Y-78152473D01*
X90683369Y-78152473D02*
X90730988Y-78057235D01*
X90730988Y-78057235D02*
X90730988Y-77961997D01*
X90730988Y-77961997D02*
X90683369Y-77866759D01*
X90683369Y-77866759D02*
X90635750Y-77819140D01*
X90635750Y-77819140D02*
X90540512Y-77771521D01*
X90540512Y-77771521D02*
X90350036Y-77723902D01*
X90350036Y-77723902D02*
X90254798Y-77676283D01*
X90254798Y-77676283D02*
X90207179Y-77628664D01*
X90207179Y-77628664D02*
X90159560Y-77533426D01*
X90159560Y-77533426D02*
X90159560Y-77438188D01*
X90159560Y-77438188D02*
X90207179Y-77342950D01*
X90207179Y-77342950D02*
X90254798Y-77295331D01*
X90254798Y-77295331D02*
X90350036Y-77247712D01*
X90350036Y-77247712D02*
X90588131Y-77247712D01*
X90588131Y-77247712D02*
X90730988Y-77295331D01*
X91064322Y-77247712D02*
X91302417Y-78247712D01*
X91302417Y-78247712D02*
X91492893Y-77533426D01*
X91492893Y-77533426D02*
X91683369Y-78247712D01*
X91683369Y-78247712D02*
X91921465Y-77247712D01*
X92826226Y-78247712D02*
X92254798Y-78247712D01*
X92540512Y-78247712D02*
X92540512Y-77247712D01*
X92540512Y-77247712D02*
X92445274Y-77390569D01*
X92445274Y-77390569D02*
X92350036Y-77485807D01*
X92350036Y-77485807D02*
X92254798Y-77533426D01*
X107517654Y-62667712D02*
X107184321Y-62191521D01*
X106946226Y-62667712D02*
X106946226Y-61667712D01*
X106946226Y-61667712D02*
X107327178Y-61667712D01*
X107327178Y-61667712D02*
X107422416Y-61715331D01*
X107422416Y-61715331D02*
X107470035Y-61762950D01*
X107470035Y-61762950D02*
X107517654Y-61858188D01*
X107517654Y-61858188D02*
X107517654Y-62001045D01*
X107517654Y-62001045D02*
X107470035Y-62096283D01*
X107470035Y-62096283D02*
X107422416Y-62143902D01*
X107422416Y-62143902D02*
X107327178Y-62191521D01*
X107327178Y-62191521D02*
X106946226Y-62191521D01*
X107803369Y-61667712D02*
X108136702Y-62667712D01*
X108136702Y-62667712D02*
X108470035Y-61667712D01*
X108755750Y-61762950D02*
X108803369Y-61715331D01*
X108803369Y-61715331D02*
X108898607Y-61667712D01*
X108898607Y-61667712D02*
X109136702Y-61667712D01*
X109136702Y-61667712D02*
X109231940Y-61715331D01*
X109231940Y-61715331D02*
X109279559Y-61762950D01*
X109279559Y-61762950D02*
X109327178Y-61858188D01*
X109327178Y-61858188D02*
X109327178Y-61953426D01*
X109327178Y-61953426D02*
X109279559Y-62096283D01*
X109279559Y-62096283D02*
X108708131Y-62667712D01*
X108708131Y-62667712D02*
X109327178Y-62667712D01*
X91117654Y-62667712D02*
X90784321Y-62191521D01*
X90546226Y-62667712D02*
X90546226Y-61667712D01*
X90546226Y-61667712D02*
X90927178Y-61667712D01*
X90927178Y-61667712D02*
X91022416Y-61715331D01*
X91022416Y-61715331D02*
X91070035Y-61762950D01*
X91070035Y-61762950D02*
X91117654Y-61858188D01*
X91117654Y-61858188D02*
X91117654Y-62001045D01*
X91117654Y-62001045D02*
X91070035Y-62096283D01*
X91070035Y-62096283D02*
X91022416Y-62143902D01*
X91022416Y-62143902D02*
X90927178Y-62191521D01*
X90927178Y-62191521D02*
X90546226Y-62191521D01*
X91403369Y-61667712D02*
X91736702Y-62667712D01*
X91736702Y-62667712D02*
X92070035Y-61667712D01*
X92927178Y-62667712D02*
X92355750Y-62667712D01*
X92641464Y-62667712D02*
X92641464Y-61667712D01*
X92641464Y-61667712D02*
X92546226Y-61810569D01*
X92546226Y-61810569D02*
X92450988Y-61905807D01*
X92450988Y-61905807D02*
X92355750Y-61953426D01*
X67830988Y-66347712D02*
X67830988Y-67157235D01*
X67830988Y-67157235D02*
X67878607Y-67252473D01*
X67878607Y-67252473D02*
X67926226Y-67300093D01*
X67926226Y-67300093D02*
X68021464Y-67347712D01*
X68021464Y-67347712D02*
X68211940Y-67347712D01*
X68211940Y-67347712D02*
X68307178Y-67300093D01*
X68307178Y-67300093D02*
X68354797Y-67252473D01*
X68354797Y-67252473D02*
X68402416Y-67157235D01*
X68402416Y-67157235D02*
X68402416Y-66347712D01*
X69402416Y-67347712D02*
X68830988Y-67347712D01*
X69116702Y-67347712D02*
X69116702Y-66347712D01*
X69116702Y-66347712D02*
X69021464Y-66490569D01*
X69021464Y-66490569D02*
X68926226Y-66585807D01*
X68926226Y-66585807D02*
X68830988Y-66633426D01*
D12*
X94992893Y-78792893D02*
X94992893Y-77292893D01*
X93742893Y-74792893D02*
X89242893Y-74792893D01*
X89242893Y-81292893D02*
X93742893Y-81292893D01*
X87992893Y-77292893D02*
X87992893Y-78792893D01*
X103072893Y-68942893D02*
X103072893Y-64222893D01*
X104262893Y-68942893D02*
X103082893Y-68942893D01*
X107162893Y-68942893D02*
X106632893Y-68942893D01*
X109612893Y-68942893D02*
X108782893Y-68942893D01*
X112822893Y-68942893D02*
X111332893Y-68942893D01*
X112822893Y-68942893D02*
X112822893Y-64222893D01*
X103082893Y-60412893D02*
X103082893Y-57352893D01*
X112822893Y-60412893D02*
X112822893Y-57352893D01*
X112822893Y-57352893D02*
X103082893Y-57352893D01*
X86780000Y-68942893D02*
X86780000Y-64222893D01*
X87970000Y-68942893D02*
X86790000Y-68942893D01*
X90870000Y-68942893D02*
X90340000Y-68942893D01*
X93320000Y-68942893D02*
X92490000Y-68942893D01*
X96530000Y-68942893D02*
X95040000Y-68942893D01*
X96530000Y-68942893D02*
X96530000Y-64222893D01*
X86790000Y-60412893D02*
X86790000Y-57352893D01*
X96530000Y-60412893D02*
X96530000Y-57352893D01*
X96530000Y-57352893D02*
X86790000Y-57352893D01*
X55092893Y-57392893D02*
X82092893Y-57392893D01*
X55092893Y-77092893D02*
X82092893Y-77092893D01*
X59642893Y-55992893D02*
X59642893Y-54662893D01*
X60972893Y-55992893D02*
X59642893Y-55992893D01*
X62242893Y-53392893D02*
X77542893Y-53392893D01*
X62242893Y-55992893D02*
X62242893Y-53392893D01*
X62242893Y-55992893D02*
X77542893Y-55992893D01*
X77542893Y-55992893D02*
X77542893Y-53392893D01*
X55092893Y-53392893D02*
X82092893Y-53392893D01*
X82092893Y-53392893D02*
X82092893Y-80642893D01*
X82092893Y-80642893D02*
X55092893Y-80642893D01*
X55092893Y-80642893D02*
X55092893Y-53392893D01*
X57592893Y-59892893D02*
X79592893Y-59892893D01*
X79592893Y-59892893D02*
X79592893Y-70892893D01*
X79592893Y-70892893D02*
X57592893Y-70892893D01*
X57592893Y-70892893D02*
X57592893Y-59892893D01*
X58592893Y-55392893D02*
G75*
G03*
X55592893Y-55392893I-1500000J0D01*
G01*
X55592893Y-55392893D02*
G75*
G03*
X58592893Y-55392893I1500000J0D01*
G01*
X58092893Y-55392893D02*
G75*
G03*
X56092893Y-55392893I-1000000J0D01*
G01*
X56092893Y-55392893D02*
G75*
G03*
X58092893Y-55392893I1000000J0D01*
G01*
X58092893Y-78892893D02*
G75*
G03*
X56092893Y-78892893I-1000000J0D01*
G01*
X56092893Y-78892893D02*
G75*
G03*
X58092893Y-78892893I1000000J0D01*
G01*
X58592893Y-78892893D02*
G75*
G03*
X55592893Y-78892893I-1500000J0D01*
G01*
X55592893Y-78892893D02*
G75*
G03*
X58592893Y-78892893I1500000J0D01*
G01*
X81092893Y-55392893D02*
G75*
G03*
X79092893Y-55392893I-1000000J0D01*
G01*
X79092893Y-55392893D02*
G75*
G03*
X81092893Y-55392893I1000000J0D01*
G01*
X81592893Y-55392893D02*
G75*
G03*
X78592893Y-55392893I-1500000J0D01*
G01*
X78592893Y-55392893D02*
G75*
G03*
X81592893Y-55392893I1500000J0D01*
G01*
X81092893Y-78892893D02*
G75*
G03*
X79092893Y-78892893I-1000000J0D01*
G01*
X79092893Y-78892893D02*
G75*
G03*
X81092893Y-78892893I1000000J0D01*
G01*
X81592893Y-78892893D02*
G75*
G03*
X78592893Y-78892893I-1500000J0D01*
G01*
X78592893Y-78892893D02*
G75*
G03*
X81592893Y-78892893I1500000J0D01*
G01*
%LPC*%
D13*
X94742893Y-80292893D03*
X88242893Y-80292893D03*
X94742893Y-75792893D03*
X88242893Y-75792893D03*
D14*
X112250000Y-50250000D03*
D15*
X103152893Y-62322893D03*
D16*
X112740893Y-62310893D03*
D17*
X105452893Y-69822893D03*
D18*
X107952893Y-69822893D03*
X110452893Y-69822893D03*
D15*
X86860000Y-62322893D03*
D16*
X96448000Y-62310893D03*
D17*
X89160000Y-69822893D03*
D18*
X91660000Y-69822893D03*
X94160000Y-69822893D03*
D14*
X57250000Y-50250000D03*
D19*
X57092893Y-55392893D03*
X57092893Y-78892893D03*
X80092893Y-55392893D03*
X80092893Y-78892893D03*
D20*
X60972893Y-54662893D03*
D21*
X63512893Y-54662893D03*
X66052893Y-54662893D03*
X68592893Y-54662893D03*
X71132893Y-54662893D03*
X73672893Y-54662893D03*
X76212893Y-54662893D03*
D20*
X98592893Y-85892893D03*
D21*
X96052893Y-85892893D03*
X93512893Y-85892893D03*
X90972893Y-85892893D03*
X88432893Y-85892893D03*
X85892893Y-85892893D03*
X83352893Y-85892893D03*
X80812893Y-85892893D03*
X78272893Y-85892893D03*
X75732893Y-85892893D03*
X73192893Y-85892893D03*
X70652893Y-85892893D03*
%LPD*%
M02*
