M48
; DRILL file {KiCad 7.0.10} date Mon 29 Jan 2024 09:48:27 AM CST
; FORMAT={-:-/ absolute / metric / decimal}
; #@! TF.CreationDate,2024-01-29T09:48:27-06:00
; #@! TF.GenerationSoftware,Kicad,Pcbnew,7.0.10
; #@! TF.FileFunction,Plated,1,2,PTH
FMAT,2
METRIC
; #@! TA.AperFunction,Plated,PTH,ViaDrill
T1C0.300
; #@! TA.AperFunction,Plated,PTH,ComponentDrill
T2C1.000
; #@! TA.AperFunction,Plated,PTH,ComponentDrill
T3C1.100
%
G90
G05
T1
X73.243Y-67.193
X77.343Y-67.193
X88.493Y-83.393
X91.643Y-73.143
T2
X60.973Y-54.663
X63.513Y-54.663
X66.053Y-54.663
X68.593Y-54.663
X70.653Y-85.893
X71.133Y-54.663
X73.193Y-85.893
X73.673Y-54.663
X75.733Y-85.893
X76.213Y-54.663
X78.273Y-85.893
X80.813Y-85.893
X83.353Y-85.893
X85.893Y-85.893
X88.433Y-85.893
X89.16Y-69.823
X90.973Y-85.893
X91.66Y-69.823
X93.513Y-85.893
X94.16Y-69.823
X96.053Y-85.893
X98.593Y-85.893
X105.453Y-69.823
X107.953Y-69.823
X110.453Y-69.823
T3
X88.243Y-75.793
X88.243Y-80.293
X94.743Y-75.793
X94.743Y-80.293
T3
X86.86Y-62.873G85X86.86Y-61.773
G05
X96.46Y-62.873G85X96.46Y-61.773
G05
X103.153Y-62.873G85X103.153Y-61.773
G05
X112.753Y-62.873G85X112.753Y-61.773
G05
M30
