G04 #@! TF.GenerationSoftware,KiCad,Pcbnew,7.0.10*
G04 #@! TF.CreationDate,2024-01-29T09:48:01-06:00*
G04 #@! TF.ProjectId,oled_expander,6f6c6564-5f65-4787-9061-6e6465722e6b,1.1*
G04 #@! TF.SameCoordinates,Original*
G04 #@! TF.FileFunction,Copper,L2,Bot*
G04 #@! TF.FilePolarity,Positive*
%FSLAX46Y46*%
G04 Gerber Fmt 4.6, Leading zero omitted, Abs format (unit mm)*
G04 Created by KiCad (PCBNEW 7.0.10) date 2024-01-29 09:48:01*
%MOMM*%
%LPD*%
G01*
G04 APERTURE LIST*
G04 #@! TA.AperFunction,ComponentPad*
%ADD10C,2.000000*%
G04 #@! TD*
G04 #@! TA.AperFunction,ComponentPad*
%ADD11O,2.720000X3.580000*%
G04 #@! TD*
G04 #@! TA.AperFunction,ComponentPad*
%ADD12O,2.696000X3.580000*%
G04 #@! TD*
G04 #@! TA.AperFunction,ComponentPad*
%ADD13R,1.800000X1.800000*%
G04 #@! TD*
G04 #@! TA.AperFunction,ComponentPad*
%ADD14C,1.800000*%
G04 #@! TD*
G04 #@! TA.AperFunction,WasherPad*
%ADD15C,3.000000*%
G04 #@! TD*
G04 #@! TA.AperFunction,ComponentPad*
%ADD16R,1.700000X1.700000*%
G04 #@! TD*
G04 #@! TA.AperFunction,ComponentPad*
%ADD17O,1.700000X1.700000*%
G04 #@! TD*
G04 #@! TA.AperFunction,ViaPad*
%ADD18C,0.600000*%
G04 #@! TD*
G04 #@! TA.AperFunction,Conductor*
%ADD19C,0.500000*%
G04 #@! TD*
G04 #@! TA.AperFunction,Conductor*
%ADD20C,0.200000*%
G04 #@! TD*
G04 APERTURE END LIST*
D10*
X94742893Y-80292893D03*
X88242893Y-80292893D03*
X94742893Y-75792893D03*
X88242893Y-75792893D03*
D11*
X103152893Y-62322893D03*
D12*
X112740893Y-62310893D03*
D13*
X105452893Y-69822893D03*
D14*
X107952893Y-69822893D03*
X110452893Y-69822893D03*
D11*
X86860000Y-62322893D03*
D12*
X96448000Y-62310893D03*
D13*
X89160000Y-69822893D03*
D14*
X91660000Y-69822893D03*
X94160000Y-69822893D03*
D15*
X57092893Y-55392893D03*
X57092893Y-78892893D03*
X80092893Y-55392893D03*
X80092893Y-78892893D03*
D16*
X60972893Y-54662893D03*
D17*
X63512893Y-54662893D03*
X66052893Y-54662893D03*
X68592893Y-54662893D03*
X71132893Y-54662893D03*
X73672893Y-54662893D03*
X76212893Y-54662893D03*
D16*
X98592893Y-85892893D03*
D17*
X96052893Y-85892893D03*
X93512893Y-85892893D03*
X90972893Y-85892893D03*
X88432893Y-85892893D03*
X85892893Y-85892893D03*
X83352893Y-85892893D03*
X80812893Y-85892893D03*
X78272893Y-85892893D03*
X75732893Y-85892893D03*
X73192893Y-85892893D03*
X70652893Y-85892893D03*
D18*
X88492893Y-83392893D03*
X91642893Y-73142893D03*
X77342893Y-67192893D03*
X73242893Y-67192893D03*
D19*
X94160000Y-69822893D02*
X94160000Y-72392893D01*
X94160000Y-72392893D02*
X97742893Y-72392893D01*
X90972893Y-85892893D02*
X90972893Y-85062893D01*
X90972893Y-85062893D02*
X92892893Y-83142893D01*
X92892893Y-83142893D02*
X96192893Y-83142893D01*
X96192893Y-83142893D02*
X97742893Y-81592893D01*
X97742893Y-81592893D02*
X97742893Y-72392893D01*
X97742893Y-72392893D02*
X110452893Y-72392893D01*
X110452893Y-72392893D02*
X110452893Y-69822893D01*
D20*
X91642893Y-80242893D02*
X91642893Y-73142893D01*
X88492893Y-83392893D02*
X91642893Y-80242893D01*
X71042893Y-54752893D02*
X71042893Y-73742893D01*
X71042893Y-73742893D02*
X80812893Y-83512893D01*
X71132893Y-54662893D02*
X71042893Y-54752893D01*
X80812893Y-83512893D02*
X80812893Y-85892893D01*
X78272893Y-81538579D02*
X78272893Y-85892893D01*
X68592893Y-54662893D02*
X68592893Y-71858579D01*
X68592893Y-71858579D02*
X78272893Y-81538579D01*
X73192893Y-77024265D02*
X73192893Y-85892893D01*
X66052893Y-54662893D02*
X66052893Y-69884265D01*
X66052893Y-69884265D02*
X73192893Y-77024265D01*
X77342893Y-67192893D02*
X73242893Y-67192893D01*
G04 #@! TA.AperFunction,Conductor*
G36*
X114677004Y-47243394D02*
G01*
X114735936Y-47243393D01*
X114749819Y-47244173D01*
X114766775Y-47246083D01*
X114840165Y-47254351D01*
X114867228Y-47260528D01*
X114946440Y-47288244D01*
X114971449Y-47300287D01*
X115042504Y-47344934D01*
X115064213Y-47362246D01*
X115123550Y-47421582D01*
X115140862Y-47443291D01*
X115185505Y-47514338D01*
X115197553Y-47539356D01*
X115225268Y-47618559D01*
X115231447Y-47645629D01*
X115241613Y-47735848D01*
X115242393Y-47749733D01*
X115242393Y-82169393D01*
X115242392Y-82169411D01*
X115242392Y-82235937D01*
X115241612Y-82249820D01*
X115231434Y-82340158D01*
X115225256Y-82367229D01*
X115197542Y-82446433D01*
X115185494Y-82471451D01*
X115140851Y-82542500D01*
X115123538Y-82564209D01*
X115064209Y-82623538D01*
X115042500Y-82640851D01*
X114971451Y-82685494D01*
X114946433Y-82697542D01*
X114867229Y-82725256D01*
X114840158Y-82731434D01*
X114749820Y-82741612D01*
X114735937Y-82742392D01*
X114669410Y-82742392D01*
X114669394Y-82742393D01*
X104316392Y-82742393D01*
X104316375Y-82742392D01*
X104308782Y-82742392D01*
X104242889Y-82742393D01*
X104135574Y-82742393D01*
X103957443Y-82768006D01*
X103923122Y-82772941D01*
X103923121Y-82772941D01*
X103923116Y-82772942D01*
X103717175Y-82833413D01*
X103521954Y-82922567D01*
X103521938Y-82922576D01*
X103341381Y-83038614D01*
X103179170Y-83179170D01*
X103038614Y-83341381D01*
X102922576Y-83521938D01*
X102922567Y-83521954D01*
X102833413Y-83717175D01*
X102772942Y-83923116D01*
X102772942Y-83923119D01*
X102772941Y-83923122D01*
X102771742Y-83931460D01*
X102742393Y-84135574D01*
X102742393Y-84242889D01*
X102742392Y-84318769D01*
X102742393Y-84318782D01*
X102742393Y-87669393D01*
X102742392Y-87669411D01*
X102742392Y-87735937D01*
X102741612Y-87749820D01*
X102731434Y-87840158D01*
X102725256Y-87867229D01*
X102697542Y-87946433D01*
X102685494Y-87971451D01*
X102640851Y-88042500D01*
X102623538Y-88064209D01*
X102564209Y-88123538D01*
X102542500Y-88140851D01*
X102471451Y-88185494D01*
X102446433Y-88197542D01*
X102367229Y-88225256D01*
X102340158Y-88231434D01*
X102249820Y-88241612D01*
X102235937Y-88242392D01*
X102169410Y-88242392D01*
X102169394Y-88242393D01*
X67249859Y-88242393D01*
X67235975Y-88241613D01*
X67222715Y-88240119D01*
X67145633Y-88231433D01*
X67118563Y-88225254D01*
X67039360Y-88197539D01*
X67014342Y-88185491D01*
X66943301Y-88140852D01*
X66921593Y-88123540D01*
X66862256Y-88064203D01*
X66844945Y-88042497D01*
X66800299Y-87971441D01*
X66788259Y-87946438D01*
X66760542Y-87867225D01*
X66754365Y-87840158D01*
X66744173Y-87749692D01*
X66743393Y-87735808D01*
X66743394Y-87677004D01*
X66743393Y-87677000D01*
X66743393Y-84308785D01*
X66743394Y-84308782D01*
X66743393Y-84294266D01*
X66743406Y-84294221D01*
X66743406Y-84242889D01*
X66743407Y-84242889D01*
X66743406Y-84135571D01*
X66712859Y-83923119D01*
X66652387Y-83717177D01*
X66650410Y-83712849D01*
X66622792Y-83652374D01*
X66563223Y-83521937D01*
X66456663Y-83356130D01*
X66447182Y-83341377D01*
X66447181Y-83341376D01*
X66447180Y-83341374D01*
X66306622Y-83179164D01*
X66169607Y-83060441D01*
X66144414Y-83038611D01*
X66144405Y-83038604D01*
X65963851Y-82922571D01*
X65963847Y-82922569D01*
X65963844Y-82922567D01*
X65768603Y-82833405D01*
X65768601Y-82833404D01*
X65768598Y-82833403D01*
X65562654Y-82772935D01*
X65374048Y-82745819D01*
X65350208Y-82742392D01*
X65350207Y-82742392D01*
X65242889Y-82742393D01*
X54749859Y-82742393D01*
X54735975Y-82741613D01*
X54722715Y-82740119D01*
X54645633Y-82731433D01*
X54618563Y-82725254D01*
X54539360Y-82697539D01*
X54514342Y-82685491D01*
X54443301Y-82640852D01*
X54421593Y-82623540D01*
X54362256Y-82564203D01*
X54344945Y-82542497D01*
X54300299Y-82471441D01*
X54288259Y-82446438D01*
X54260542Y-82367225D01*
X54254365Y-82340158D01*
X54244173Y-82249692D01*
X54243393Y-82235808D01*
X54243394Y-82177004D01*
X54243393Y-82177000D01*
X54243393Y-78892894D01*
X55087283Y-78892894D01*
X55107697Y-79178326D01*
X55168521Y-79457930D01*
X55168523Y-79457936D01*
X55168524Y-79457939D01*
X55268526Y-79726054D01*
X55268528Y-79726059D01*
X55405663Y-79977202D01*
X55405668Y-79977210D01*
X55577147Y-80206280D01*
X55577163Y-80206298D01*
X55779487Y-80408622D01*
X55779505Y-80408638D01*
X56008575Y-80580117D01*
X56008583Y-80580122D01*
X56259726Y-80717257D01*
X56259725Y-80717257D01*
X56259729Y-80717258D01*
X56259732Y-80717260D01*
X56527847Y-80817262D01*
X56527853Y-80817263D01*
X56527855Y-80817264D01*
X56807459Y-80878088D01*
X56807461Y-80878088D01*
X56807465Y-80878089D01*
X57061113Y-80896230D01*
X57092892Y-80898503D01*
X57092893Y-80898503D01*
X57092894Y-80898503D01*
X57121488Y-80896457D01*
X57378321Y-80878089D01*
X57657939Y-80817262D01*
X57926054Y-80717260D01*
X58177208Y-80580119D01*
X58406288Y-80408632D01*
X58608632Y-80206288D01*
X58780119Y-79977208D01*
X58917260Y-79726054D01*
X59017262Y-79457939D01*
X59036803Y-79368110D01*
X59078088Y-79178326D01*
X59078088Y-79178325D01*
X59078089Y-79178321D01*
X59098503Y-78892893D01*
X59078089Y-78607465D01*
X59017262Y-78327847D01*
X58917260Y-78059732D01*
X58780119Y-77808578D01*
X58780117Y-77808575D01*
X58608638Y-77579505D01*
X58608622Y-77579487D01*
X58406298Y-77377163D01*
X58406280Y-77377147D01*
X58177210Y-77205668D01*
X58177202Y-77205663D01*
X57926059Y-77068528D01*
X57926060Y-77068528D01*
X57818808Y-77028525D01*
X57657939Y-76968524D01*
X57657936Y-76968523D01*
X57657930Y-76968521D01*
X57378326Y-76907697D01*
X57092894Y-76887283D01*
X57092892Y-76887283D01*
X56807459Y-76907697D01*
X56527855Y-76968521D01*
X56259726Y-77068528D01*
X56008583Y-77205663D01*
X56008575Y-77205668D01*
X55779505Y-77377147D01*
X55779487Y-77377163D01*
X55577163Y-77579487D01*
X55577147Y-77579505D01*
X55405668Y-77808575D01*
X55405663Y-77808583D01*
X55268528Y-78059726D01*
X55168521Y-78327855D01*
X55107697Y-78607459D01*
X55087283Y-78892891D01*
X55087283Y-78892894D01*
X54243393Y-78892894D01*
X54243393Y-55392894D01*
X55087283Y-55392894D01*
X55107697Y-55678326D01*
X55168521Y-55957930D01*
X55168523Y-55957936D01*
X55168524Y-55957939D01*
X55189021Y-56012893D01*
X55268528Y-56226059D01*
X55405663Y-56477202D01*
X55405668Y-56477210D01*
X55577147Y-56706280D01*
X55577163Y-56706298D01*
X55779487Y-56908622D01*
X55779505Y-56908638D01*
X56008575Y-57080117D01*
X56008583Y-57080122D01*
X56259726Y-57217257D01*
X56259725Y-57217257D01*
X56259729Y-57217258D01*
X56259732Y-57217260D01*
X56527847Y-57317262D01*
X56527853Y-57317263D01*
X56527855Y-57317264D01*
X56807459Y-57378088D01*
X56807461Y-57378088D01*
X56807465Y-57378089D01*
X57061113Y-57396230D01*
X57092892Y-57398503D01*
X57092893Y-57398503D01*
X57092894Y-57398503D01*
X57121488Y-57396457D01*
X57378321Y-57378089D01*
X57657939Y-57317262D01*
X57926054Y-57217260D01*
X58177208Y-57080119D01*
X58406288Y-56908632D01*
X58608632Y-56706288D01*
X58780119Y-56477208D01*
X58917260Y-56226054D01*
X59017262Y-55957939D01*
X59021862Y-55936794D01*
X59078088Y-55678326D01*
X59078088Y-55678325D01*
X59078089Y-55678321D01*
X59086499Y-55560737D01*
X59622893Y-55560737D01*
X59629294Y-55620265D01*
X59629296Y-55620272D01*
X59679538Y-55754979D01*
X59679542Y-55754986D01*
X59765702Y-55870080D01*
X59765705Y-55870083D01*
X59880799Y-55956243D01*
X59880806Y-55956247D01*
X60015513Y-56006489D01*
X60015520Y-56006491D01*
X60075048Y-56012892D01*
X60075065Y-56012893D01*
X60722893Y-56012893D01*
X60722893Y-55098394D01*
X60830578Y-55147573D01*
X60937130Y-55162893D01*
X61008656Y-55162893D01*
X61115208Y-55147573D01*
X61222893Y-55098394D01*
X61222893Y-56012893D01*
X61870721Y-56012893D01*
X61870737Y-56012892D01*
X61930265Y-56006491D01*
X61930272Y-56006489D01*
X62064979Y-55956247D01*
X62064986Y-55956243D01*
X62180080Y-55870083D01*
X62180083Y-55870080D01*
X62266243Y-55754986D01*
X62266247Y-55754979D01*
X62315315Y-55623422D01*
X62357186Y-55567488D01*
X62422650Y-55543071D01*
X62490923Y-55557923D01*
X62519178Y-55579074D01*
X62641492Y-55701388D01*
X62718028Y-55754979D01*
X62835058Y-55836925D01*
X62835060Y-55836926D01*
X62835063Y-55836928D01*
X63049230Y-55936796D01*
X63277485Y-55997956D01*
X63448212Y-56012893D01*
X63512892Y-56018552D01*
X63512893Y-56018552D01*
X63512894Y-56018552D01*
X63577574Y-56012893D01*
X63748301Y-55997956D01*
X63976556Y-55936796D01*
X64190723Y-55836928D01*
X64384294Y-55701388D01*
X64551388Y-55534294D01*
X64681318Y-55348735D01*
X64735895Y-55305110D01*
X64805393Y-55297916D01*
X64867748Y-55329439D01*
X64884468Y-55348735D01*
X65014393Y-55534288D01*
X65014398Y-55534294D01*
X65181492Y-55701388D01*
X65258028Y-55754979D01*
X65375058Y-55836925D01*
X65375060Y-55836926D01*
X65375063Y-55836928D01*
X65380791Y-55839599D01*
X65433232Y-55885765D01*
X65452393Y-55951983D01*
X65452393Y-69836777D01*
X65451332Y-69852962D01*
X65447211Y-69884263D01*
X65447211Y-69884265D01*
X65452393Y-69923625D01*
X65452393Y-69923626D01*
X65467848Y-70041025D01*
X65467849Y-70041027D01*
X65528357Y-70187106D01*
X65624611Y-70312547D01*
X65624612Y-70312548D01*
X65649662Y-70331769D01*
X65661857Y-70342464D01*
X72556074Y-77236681D01*
X72589559Y-77298004D01*
X72592393Y-77324362D01*
X72592393Y-84603801D01*
X72572708Y-84670840D01*
X72520807Y-84716179D01*
X72515066Y-84718856D01*
X72515062Y-84718858D01*
X72321490Y-84854398D01*
X72154398Y-85021490D01*
X72024468Y-85207051D01*
X71969891Y-85250676D01*
X71900393Y-85257870D01*
X71838038Y-85226347D01*
X71821318Y-85207051D01*
X71691387Y-85021490D01*
X71524295Y-84854399D01*
X71524288Y-84854394D01*
X71330727Y-84718860D01*
X71330723Y-84718858D01*
X71227748Y-84670840D01*
X71116556Y-84618990D01*
X71116552Y-84618989D01*
X71116548Y-84618987D01*
X70888306Y-84557831D01*
X70888296Y-84557829D01*
X70652894Y-84537234D01*
X70652892Y-84537234D01*
X70417489Y-84557829D01*
X70417479Y-84557831D01*
X70189237Y-84618987D01*
X70189228Y-84618991D01*
X69975064Y-84718857D01*
X69975062Y-84718858D01*
X69781490Y-84854398D01*
X69614398Y-85021490D01*
X69478858Y-85215062D01*
X69478857Y-85215064D01*
X69378991Y-85429228D01*
X69378987Y-85429237D01*
X69317831Y-85657479D01*
X69317829Y-85657489D01*
X69297234Y-85892892D01*
X69297234Y-85892893D01*
X69317829Y-86128296D01*
X69317831Y-86128306D01*
X69378987Y-86356548D01*
X69378989Y-86356552D01*
X69378990Y-86356556D01*
X69458897Y-86527916D01*
X69478858Y-86570723D01*
X69478860Y-86570727D01*
X69587174Y-86725414D01*
X69614398Y-86764294D01*
X69781492Y-86931388D01*
X69858028Y-86984979D01*
X69975058Y-87066925D01*
X69975060Y-87066926D01*
X69975063Y-87066928D01*
X70189230Y-87166796D01*
X70417485Y-87227956D01*
X70588212Y-87242893D01*
X70652892Y-87248552D01*
X70652893Y-87248552D01*
X70652894Y-87248552D01*
X70717574Y-87242893D01*
X70888301Y-87227956D01*
X71116556Y-87166796D01*
X71330723Y-87066928D01*
X71524294Y-86931388D01*
X71691388Y-86764294D01*
X71821318Y-86578735D01*
X71875895Y-86535110D01*
X71945393Y-86527916D01*
X72007748Y-86559439D01*
X72024468Y-86578735D01*
X72154393Y-86764288D01*
X72154398Y-86764294D01*
X72321492Y-86931388D01*
X72398028Y-86984979D01*
X72515058Y-87066925D01*
X72515060Y-87066926D01*
X72515063Y-87066928D01*
X72729230Y-87166796D01*
X72957485Y-87227956D01*
X73128212Y-87242893D01*
X73192892Y-87248552D01*
X73192893Y-87248552D01*
X73192894Y-87248552D01*
X73257574Y-87242893D01*
X73428301Y-87227956D01*
X73656556Y-87166796D01*
X73870723Y-87066928D01*
X74064294Y-86931388D01*
X74231388Y-86764294D01*
X74361318Y-86578735D01*
X74415895Y-86535110D01*
X74485393Y-86527916D01*
X74547748Y-86559439D01*
X74564468Y-86578735D01*
X74694393Y-86764288D01*
X74694398Y-86764294D01*
X74861492Y-86931388D01*
X74938028Y-86984979D01*
X75055058Y-87066925D01*
X75055060Y-87066926D01*
X75055063Y-87066928D01*
X75269230Y-87166796D01*
X75497485Y-87227956D01*
X75668212Y-87242893D01*
X75732892Y-87248552D01*
X75732893Y-87248552D01*
X75732894Y-87248552D01*
X75797574Y-87242893D01*
X75968301Y-87227956D01*
X76196556Y-87166796D01*
X76410723Y-87066928D01*
X76604294Y-86931388D01*
X76771388Y-86764294D01*
X76901318Y-86578735D01*
X76955895Y-86535110D01*
X77025393Y-86527916D01*
X77087748Y-86559439D01*
X77104468Y-86578735D01*
X77234393Y-86764288D01*
X77234398Y-86764294D01*
X77401492Y-86931388D01*
X77478028Y-86984979D01*
X77595058Y-87066925D01*
X77595060Y-87066926D01*
X77595063Y-87066928D01*
X77809230Y-87166796D01*
X78037485Y-87227956D01*
X78208212Y-87242893D01*
X78272892Y-87248552D01*
X78272893Y-87248552D01*
X78272894Y-87248552D01*
X78337574Y-87242893D01*
X78508301Y-87227956D01*
X78736556Y-87166796D01*
X78950723Y-87066928D01*
X79144294Y-86931388D01*
X79311388Y-86764294D01*
X79441318Y-86578735D01*
X79495895Y-86535110D01*
X79565393Y-86527916D01*
X79627748Y-86559439D01*
X79644468Y-86578735D01*
X79774393Y-86764288D01*
X79774398Y-86764294D01*
X79941492Y-86931388D01*
X80018028Y-86984979D01*
X80135058Y-87066925D01*
X80135060Y-87066926D01*
X80135063Y-87066928D01*
X80349230Y-87166796D01*
X80577485Y-87227956D01*
X80748212Y-87242893D01*
X80812892Y-87248552D01*
X80812893Y-87248552D01*
X80812894Y-87248552D01*
X80877574Y-87242893D01*
X81048301Y-87227956D01*
X81276556Y-87166796D01*
X81490723Y-87066928D01*
X81684294Y-86931388D01*
X81851388Y-86764294D01*
X81981318Y-86578735D01*
X82035895Y-86535110D01*
X82105393Y-86527916D01*
X82167748Y-86559439D01*
X82184468Y-86578735D01*
X82314393Y-86764288D01*
X82314398Y-86764294D01*
X82481492Y-86931388D01*
X82558028Y-86984979D01*
X82675058Y-87066925D01*
X82675060Y-87066926D01*
X82675063Y-87066928D01*
X82889230Y-87166796D01*
X83117485Y-87227956D01*
X83288212Y-87242893D01*
X83352892Y-87248552D01*
X83352893Y-87248552D01*
X83352894Y-87248552D01*
X83417574Y-87242893D01*
X83588301Y-87227956D01*
X83816556Y-87166796D01*
X84030723Y-87066928D01*
X84224294Y-86931388D01*
X84391388Y-86764294D01*
X84521318Y-86578735D01*
X84575895Y-86535110D01*
X84645393Y-86527916D01*
X84707748Y-86559439D01*
X84724468Y-86578735D01*
X84854393Y-86764288D01*
X84854398Y-86764294D01*
X85021492Y-86931388D01*
X85098028Y-86984979D01*
X85215058Y-87066925D01*
X85215060Y-87066926D01*
X85215063Y-87066928D01*
X85429230Y-87166796D01*
X85657485Y-87227956D01*
X85828212Y-87242893D01*
X85892892Y-87248552D01*
X85892893Y-87248552D01*
X85892894Y-87248552D01*
X85957574Y-87242893D01*
X86128301Y-87227956D01*
X86356556Y-87166796D01*
X86570723Y-87066928D01*
X86764294Y-86931388D01*
X86931388Y-86764294D01*
X87061318Y-86578735D01*
X87115895Y-86535110D01*
X87185393Y-86527916D01*
X87247748Y-86559439D01*
X87264468Y-86578735D01*
X87394393Y-86764288D01*
X87394398Y-86764294D01*
X87561492Y-86931388D01*
X87638028Y-86984979D01*
X87755058Y-87066925D01*
X87755060Y-87066926D01*
X87755063Y-87066928D01*
X87969230Y-87166796D01*
X88197485Y-87227956D01*
X88368212Y-87242893D01*
X88432892Y-87248552D01*
X88432893Y-87248552D01*
X88432894Y-87248552D01*
X88497574Y-87242893D01*
X88668301Y-87227956D01*
X88896556Y-87166796D01*
X89110723Y-87066928D01*
X89304294Y-86931388D01*
X89471388Y-86764294D01*
X89601318Y-86578735D01*
X89655895Y-86535110D01*
X89725393Y-86527916D01*
X89787748Y-86559439D01*
X89804468Y-86578735D01*
X89934393Y-86764288D01*
X89934398Y-86764294D01*
X90101492Y-86931388D01*
X90178028Y-86984979D01*
X90295058Y-87066925D01*
X90295060Y-87066926D01*
X90295063Y-87066928D01*
X90509230Y-87166796D01*
X90737485Y-87227956D01*
X90908212Y-87242893D01*
X90972892Y-87248552D01*
X90972893Y-87248552D01*
X90972894Y-87248552D01*
X91037574Y-87242893D01*
X91208301Y-87227956D01*
X91436556Y-87166796D01*
X91650723Y-87066928D01*
X91844294Y-86931388D01*
X92011388Y-86764294D01*
X92141318Y-86578735D01*
X92195895Y-86535110D01*
X92265393Y-86527916D01*
X92327748Y-86559439D01*
X92344468Y-86578735D01*
X92474393Y-86764288D01*
X92474398Y-86764294D01*
X92641492Y-86931388D01*
X92718028Y-86984979D01*
X92835058Y-87066925D01*
X92835060Y-87066926D01*
X92835063Y-87066928D01*
X93049230Y-87166796D01*
X93277485Y-87227956D01*
X93448212Y-87242893D01*
X93512892Y-87248552D01*
X93512893Y-87248552D01*
X93512894Y-87248552D01*
X93577574Y-87242893D01*
X93748301Y-87227956D01*
X93976556Y-87166796D01*
X94190723Y-87066928D01*
X94384294Y-86931388D01*
X94551388Y-86764294D01*
X94681318Y-86578735D01*
X94735895Y-86535110D01*
X94805393Y-86527916D01*
X94867748Y-86559439D01*
X94884468Y-86578735D01*
X95014393Y-86764288D01*
X95014398Y-86764294D01*
X95181492Y-86931388D01*
X95258028Y-86984979D01*
X95375058Y-87066925D01*
X95375060Y-87066926D01*
X95375063Y-87066928D01*
X95589230Y-87166796D01*
X95817485Y-87227956D01*
X95988212Y-87242893D01*
X96052892Y-87248552D01*
X96052893Y-87248552D01*
X96052894Y-87248552D01*
X96117574Y-87242893D01*
X96288301Y-87227956D01*
X96516556Y-87166796D01*
X96730723Y-87066928D01*
X96924294Y-86931388D01*
X97046610Y-86809071D01*
X97107929Y-86775589D01*
X97177621Y-86780573D01*
X97233555Y-86822444D01*
X97250470Y-86853421D01*
X97299539Y-86984981D01*
X97299542Y-86984986D01*
X97385702Y-87100080D01*
X97385705Y-87100083D01*
X97500799Y-87186243D01*
X97500806Y-87186247D01*
X97635513Y-87236489D01*
X97635520Y-87236491D01*
X97695048Y-87242892D01*
X97695065Y-87242893D01*
X98342893Y-87242893D01*
X98342893Y-86328394D01*
X98450578Y-86377573D01*
X98557130Y-86392893D01*
X98628656Y-86392893D01*
X98735208Y-86377573D01*
X98842893Y-86328394D01*
X98842893Y-87242893D01*
X99490721Y-87242893D01*
X99490737Y-87242892D01*
X99550265Y-87236491D01*
X99550272Y-87236489D01*
X99684979Y-87186247D01*
X99684986Y-87186243D01*
X99800080Y-87100083D01*
X99800083Y-87100080D01*
X99886243Y-86984986D01*
X99886247Y-86984979D01*
X99936489Y-86850272D01*
X99936491Y-86850265D01*
X99942892Y-86790737D01*
X99942893Y-86790720D01*
X99942893Y-86142893D01*
X99026579Y-86142893D01*
X99052386Y-86102737D01*
X99092893Y-85964782D01*
X99092893Y-85821004D01*
X99052386Y-85683049D01*
X99026579Y-85642893D01*
X99942893Y-85642893D01*
X99942893Y-84995065D01*
X99942892Y-84995048D01*
X99936491Y-84935520D01*
X99936489Y-84935513D01*
X99886247Y-84800806D01*
X99886243Y-84800799D01*
X99800083Y-84685705D01*
X99800080Y-84685702D01*
X99684986Y-84599542D01*
X99684979Y-84599538D01*
X99550272Y-84549296D01*
X99550265Y-84549294D01*
X99490737Y-84542893D01*
X98842893Y-84542893D01*
X98842893Y-85457391D01*
X98735208Y-85408213D01*
X98628656Y-85392893D01*
X98557130Y-85392893D01*
X98450578Y-85408213D01*
X98342893Y-85457391D01*
X98342893Y-84542893D01*
X97695048Y-84542893D01*
X97635520Y-84549294D01*
X97635513Y-84549296D01*
X97500806Y-84599538D01*
X97500799Y-84599542D01*
X97385705Y-84685702D01*
X97385702Y-84685705D01*
X97299542Y-84800799D01*
X97299538Y-84800806D01*
X97250471Y-84932363D01*
X97208600Y-84988297D01*
X97143135Y-85012714D01*
X97074862Y-84997862D01*
X97046608Y-84976712D01*
X97002259Y-84932363D01*
X96924294Y-84854398D01*
X96924290Y-84854395D01*
X96924289Y-84854394D01*
X96730727Y-84718860D01*
X96730723Y-84718858D01*
X96627748Y-84670840D01*
X96516556Y-84618990D01*
X96516552Y-84618989D01*
X96516548Y-84618987D01*
X96288306Y-84557831D01*
X96288296Y-84557829D01*
X96052894Y-84537234D01*
X96052892Y-84537234D01*
X95817489Y-84557829D01*
X95817479Y-84557831D01*
X95589237Y-84618987D01*
X95589228Y-84618991D01*
X95375064Y-84718857D01*
X95375062Y-84718858D01*
X95181490Y-84854398D01*
X95014398Y-85021490D01*
X94884468Y-85207051D01*
X94829891Y-85250676D01*
X94760393Y-85257870D01*
X94698038Y-85226347D01*
X94681318Y-85207051D01*
X94551387Y-85021490D01*
X94384295Y-84854399D01*
X94384288Y-84854394D01*
X94190727Y-84718860D01*
X94190723Y-84718858D01*
X94087748Y-84670840D01*
X93976556Y-84618990D01*
X93976552Y-84618989D01*
X93976548Y-84618987D01*
X93748306Y-84557831D01*
X93748296Y-84557829D01*
X93512894Y-84537234D01*
X93512892Y-84537234D01*
X93277489Y-84557829D01*
X93277479Y-84557831D01*
X93049237Y-84618987D01*
X93049228Y-84618991D01*
X92835064Y-84718857D01*
X92835062Y-84718858D01*
X92641490Y-84854398D01*
X92474401Y-85021487D01*
X92344467Y-85207053D01*
X92289890Y-85250677D01*
X92220391Y-85257870D01*
X92158037Y-85226348D01*
X92141322Y-85207057D01*
X92097535Y-85144523D01*
X92075209Y-85078320D01*
X92092219Y-85010553D01*
X92111426Y-84985726D01*
X93167442Y-83929712D01*
X93228765Y-83896227D01*
X93255123Y-83893393D01*
X96129188Y-83893393D01*
X96147158Y-83894702D01*
X96170916Y-83898182D01*
X96220262Y-83893864D01*
X96231069Y-83893393D01*
X96236597Y-83893393D01*
X96236602Y-83893393D01*
X96267449Y-83889786D01*
X96270923Y-83889432D01*
X96345690Y-83882892D01*
X96345698Y-83882889D01*
X96352759Y-83881432D01*
X96352771Y-83881491D01*
X96360136Y-83879858D01*
X96360122Y-83879799D01*
X96367142Y-83878134D01*
X96367148Y-83878134D01*
X96437672Y-83852465D01*
X96441010Y-83851305D01*
X96512227Y-83827707D01*
X96512235Y-83827701D01*
X96518775Y-83824653D01*
X96518801Y-83824709D01*
X96525583Y-83821425D01*
X96525556Y-83821371D01*
X96532006Y-83818131D01*
X96532010Y-83818130D01*
X96594730Y-83776877D01*
X96597625Y-83775033D01*
X96661549Y-83735605D01*
X96661555Y-83735598D01*
X96667218Y-83731122D01*
X96667256Y-83731170D01*
X96673093Y-83726415D01*
X96673054Y-83726368D01*
X96678584Y-83721726D01*
X96678589Y-83721723D01*
X96730077Y-83667147D01*
X96732524Y-83664628D01*
X98228535Y-82168617D01*
X98242164Y-82156840D01*
X98261423Y-82142503D01*
X98293253Y-82104569D01*
X98300570Y-82096584D01*
X98304480Y-82092674D01*
X98304480Y-82092673D01*
X98304484Y-82092670D01*
X98323726Y-82068331D01*
X98325962Y-82065586D01*
X98374195Y-82008107D01*
X98374200Y-82008096D01*
X98378167Y-82002068D01*
X98378218Y-82002101D01*
X98382265Y-81995749D01*
X98382213Y-81995717D01*
X98386001Y-81989573D01*
X98386004Y-81989570D01*
X98417714Y-81921566D01*
X98419255Y-81918381D01*
X98452933Y-81851326D01*
X98452936Y-81851310D01*
X98455402Y-81844539D01*
X98455460Y-81844560D01*
X98457936Y-81837439D01*
X98457879Y-81837421D01*
X98460149Y-81830570D01*
X98460150Y-81830566D01*
X98475340Y-81756995D01*
X98476072Y-81753691D01*
X98493393Y-81680614D01*
X98493393Y-81680605D01*
X98494231Y-81673441D01*
X98494291Y-81673448D01*
X98495057Y-81665948D01*
X98494998Y-81665943D01*
X98495627Y-81658753D01*
X98493445Y-81583763D01*
X98493393Y-81580156D01*
X98493393Y-73267393D01*
X98513078Y-73200354D01*
X98565882Y-73154599D01*
X98617393Y-73143393D01*
X110427448Y-73143393D01*
X110434657Y-73143602D01*
X110496828Y-73147224D01*
X110558197Y-73136401D01*
X110565277Y-73135364D01*
X110627148Y-73128134D01*
X110637675Y-73124301D01*
X110658565Y-73118704D01*
X110669604Y-73116758D01*
X110713319Y-73097901D01*
X110726791Y-73092090D01*
X110733473Y-73089434D01*
X110792010Y-73068130D01*
X110801381Y-73061965D01*
X110820399Y-73051711D01*
X110830697Y-73047270D01*
X110880679Y-73010058D01*
X110886541Y-73005954D01*
X110938589Y-72971723D01*
X110946284Y-72963565D01*
X110962427Y-72949199D01*
X110971423Y-72942503D01*
X111011477Y-72894767D01*
X111016226Y-72889431D01*
X111058985Y-72844111D01*
X111064593Y-72834395D01*
X111076986Y-72816696D01*
X111084195Y-72808107D01*
X111112155Y-72752431D01*
X111115546Y-72746141D01*
X111146705Y-72692174D01*
X111149922Y-72681426D01*
X111157899Y-72661348D01*
X111162933Y-72651326D01*
X111177298Y-72590713D01*
X111179158Y-72583770D01*
X111197023Y-72524103D01*
X111197674Y-72512911D01*
X111200810Y-72491510D01*
X111203392Y-72480618D01*
X111203393Y-72480614D01*
X111203393Y-72418337D01*
X111203603Y-72411127D01*
X111205937Y-72371052D01*
X111207224Y-72348958D01*
X111205277Y-72337914D01*
X111203393Y-72316383D01*
X111203393Y-71074091D01*
X111223078Y-71007052D01*
X111251231Y-70976237D01*
X111404677Y-70856806D01*
X111561872Y-70686046D01*
X111688817Y-70491742D01*
X111782050Y-70279193D01*
X111839027Y-70054198D01*
X111839028Y-70054190D01*
X111858193Y-69822899D01*
X111858193Y-69822886D01*
X111839028Y-69591595D01*
X111839026Y-69591584D01*
X111782050Y-69366592D01*
X111688817Y-69154044D01*
X111561876Y-68959745D01*
X111561873Y-68959742D01*
X111561872Y-68959740D01*
X111404677Y-68788980D01*
X111404672Y-68788976D01*
X111404670Y-68788974D01*
X111221527Y-68646428D01*
X111221521Y-68646424D01*
X111017397Y-68535957D01*
X111017388Y-68535954D01*
X110797877Y-68460595D01*
X110610297Y-68429294D01*
X110568942Y-68422393D01*
X110336844Y-68422393D01*
X110295489Y-68429294D01*
X110107908Y-68460595D01*
X109888397Y-68535954D01*
X109888388Y-68535957D01*
X109684264Y-68646424D01*
X109684258Y-68646428D01*
X109501115Y-68788974D01*
X109501112Y-68788977D01*
X109501109Y-68788979D01*
X109501109Y-68788980D01*
X109476678Y-68815520D01*
X109343908Y-68959747D01*
X109306701Y-69016697D01*
X109253555Y-69062054D01*
X109184323Y-69071477D01*
X109120988Y-69041975D01*
X109099085Y-69016697D01*
X109061877Y-68959747D01*
X109061875Y-68959745D01*
X109061872Y-68959740D01*
X108904677Y-68788980D01*
X108904672Y-68788976D01*
X108904670Y-68788974D01*
X108721527Y-68646428D01*
X108721521Y-68646424D01*
X108517397Y-68535957D01*
X108517388Y-68535954D01*
X108297877Y-68460595D01*
X108110297Y-68429294D01*
X108068942Y-68422393D01*
X107836844Y-68422393D01*
X107795489Y-68429294D01*
X107607908Y-68460595D01*
X107388397Y-68535954D01*
X107388388Y-68535957D01*
X107184265Y-68646424D01*
X107006916Y-68784460D01*
X106941922Y-68810102D01*
X106873382Y-68796535D01*
X106823057Y-68748067D01*
X106814572Y-68729938D01*
X106796248Y-68680808D01*
X106796243Y-68680799D01*
X106710083Y-68565705D01*
X106710080Y-68565702D01*
X106594986Y-68479542D01*
X106594979Y-68479538D01*
X106460272Y-68429296D01*
X106460265Y-68429294D01*
X106400737Y-68422893D01*
X105702893Y-68422893D01*
X105702893Y-69387391D01*
X105595208Y-69338213D01*
X105488656Y-69322893D01*
X105417130Y-69322893D01*
X105310578Y-69338213D01*
X105202893Y-69387391D01*
X105202893Y-68422893D01*
X104505048Y-68422893D01*
X104445520Y-68429294D01*
X104445513Y-68429296D01*
X104310806Y-68479538D01*
X104310799Y-68479542D01*
X104195705Y-68565702D01*
X104195702Y-68565705D01*
X104109542Y-68680799D01*
X104109538Y-68680806D01*
X104059296Y-68815513D01*
X104059294Y-68815520D01*
X104052893Y-68875048D01*
X104052893Y-69572893D01*
X105019207Y-69572893D01*
X104993400Y-69613049D01*
X104952893Y-69751004D01*
X104952893Y-69894782D01*
X104993400Y-70032737D01*
X105019207Y-70072893D01*
X104052893Y-70072893D01*
X104052893Y-70770737D01*
X104059294Y-70830265D01*
X104059296Y-70830272D01*
X104109538Y-70964979D01*
X104109542Y-70964986D01*
X104195702Y-71080080D01*
X104195705Y-71080083D01*
X104310799Y-71166243D01*
X104310806Y-71166247D01*
X104445513Y-71216489D01*
X104445520Y-71216491D01*
X104505048Y-71222892D01*
X104505065Y-71222893D01*
X105202893Y-71222893D01*
X105202893Y-70258394D01*
X105310578Y-70307573D01*
X105417130Y-70322893D01*
X105488656Y-70322893D01*
X105595208Y-70307573D01*
X105702893Y-70258394D01*
X105702893Y-71222893D01*
X106400721Y-71222893D01*
X106400737Y-71222892D01*
X106460265Y-71216491D01*
X106460272Y-71216489D01*
X106594979Y-71166247D01*
X106594986Y-71166243D01*
X106710080Y-71080083D01*
X106710083Y-71080080D01*
X106796243Y-70964986D01*
X106796246Y-70964981D01*
X106814571Y-70915848D01*
X106856442Y-70859913D01*
X106921906Y-70835495D01*
X106990179Y-70850346D01*
X107006916Y-70861326D01*
X107184258Y-70999357D01*
X107184264Y-70999361D01*
X107184267Y-70999363D01*
X107388390Y-71109829D01*
X107502380Y-71148961D01*
X107607908Y-71185190D01*
X107607910Y-71185190D01*
X107607912Y-71185191D01*
X107836844Y-71223393D01*
X107836845Y-71223393D01*
X108068941Y-71223393D01*
X108068942Y-71223393D01*
X108297874Y-71185191D01*
X108517396Y-71109829D01*
X108721519Y-70999363D01*
X108751232Y-70976237D01*
X108783022Y-70951493D01*
X108904677Y-70856806D01*
X109061872Y-70686046D01*
X109099084Y-70629089D01*
X109152230Y-70583732D01*
X109221462Y-70574308D01*
X109284797Y-70603810D01*
X109306702Y-70629089D01*
X109343909Y-70686040D01*
X109343912Y-70686044D01*
X109343914Y-70686046D01*
X109501109Y-70856806D01*
X109654555Y-70976237D01*
X109695368Y-71032948D01*
X109702393Y-71074091D01*
X109702393Y-71518393D01*
X109682708Y-71585432D01*
X109629904Y-71631187D01*
X109578393Y-71642393D01*
X97768338Y-71642393D01*
X97761128Y-71642183D01*
X97698958Y-71638562D01*
X97698957Y-71638562D01*
X97687916Y-71640509D01*
X97666384Y-71642393D01*
X95034500Y-71642393D01*
X94967461Y-71622708D01*
X94921706Y-71569904D01*
X94910500Y-71518393D01*
X94910500Y-71074091D01*
X94930185Y-71007052D01*
X94958338Y-70976237D01*
X95111784Y-70856806D01*
X95268979Y-70686046D01*
X95395924Y-70491742D01*
X95489157Y-70279193D01*
X95546134Y-70054198D01*
X95546135Y-70054190D01*
X95565300Y-69822899D01*
X95565300Y-69822886D01*
X95546135Y-69591595D01*
X95546133Y-69591584D01*
X95489157Y-69366592D01*
X95395924Y-69154044D01*
X95268983Y-68959745D01*
X95268980Y-68959742D01*
X95268979Y-68959740D01*
X95111784Y-68788980D01*
X95111779Y-68788976D01*
X95111777Y-68788974D01*
X94928634Y-68646428D01*
X94928628Y-68646424D01*
X94724504Y-68535957D01*
X94724495Y-68535954D01*
X94504984Y-68460595D01*
X94317404Y-68429294D01*
X94276049Y-68422393D01*
X94043951Y-68422393D01*
X94002596Y-68429294D01*
X93815015Y-68460595D01*
X93595504Y-68535954D01*
X93595495Y-68535957D01*
X93391371Y-68646424D01*
X93391365Y-68646428D01*
X93208222Y-68788974D01*
X93208219Y-68788977D01*
X93208216Y-68788979D01*
X93208216Y-68788980D01*
X93183785Y-68815520D01*
X93051015Y-68959747D01*
X93013808Y-69016697D01*
X92960662Y-69062054D01*
X92891430Y-69071477D01*
X92828095Y-69041975D01*
X92806192Y-69016697D01*
X92768984Y-68959747D01*
X92768982Y-68959745D01*
X92768979Y-68959740D01*
X92611784Y-68788980D01*
X92611779Y-68788976D01*
X92611777Y-68788974D01*
X92428634Y-68646428D01*
X92428628Y-68646424D01*
X92224504Y-68535957D01*
X92224495Y-68535954D01*
X92004984Y-68460595D01*
X91817404Y-68429294D01*
X91776049Y-68422393D01*
X91543951Y-68422393D01*
X91502596Y-68429294D01*
X91315015Y-68460595D01*
X91095504Y-68535954D01*
X91095495Y-68535957D01*
X90891372Y-68646424D01*
X90714023Y-68784460D01*
X90649029Y-68810102D01*
X90580489Y-68796535D01*
X90530164Y-68748067D01*
X90521679Y-68729938D01*
X90503355Y-68680808D01*
X90503350Y-68680799D01*
X90417190Y-68565705D01*
X90417187Y-68565702D01*
X90302093Y-68479542D01*
X90302086Y-68479538D01*
X90167379Y-68429296D01*
X90167372Y-68429294D01*
X90107844Y-68422893D01*
X89410000Y-68422893D01*
X89410000Y-69387391D01*
X89302315Y-69338213D01*
X89195763Y-69322893D01*
X89124237Y-69322893D01*
X89017685Y-69338213D01*
X88910000Y-69387391D01*
X88910000Y-68422893D01*
X88212155Y-68422893D01*
X88152627Y-68429294D01*
X88152620Y-68429296D01*
X88017913Y-68479538D01*
X88017906Y-68479542D01*
X87902812Y-68565702D01*
X87902809Y-68565705D01*
X87816649Y-68680799D01*
X87816645Y-68680806D01*
X87766403Y-68815513D01*
X87766401Y-68815520D01*
X87760000Y-68875048D01*
X87760000Y-69572893D01*
X88726314Y-69572893D01*
X88700507Y-69613049D01*
X88660000Y-69751004D01*
X88660000Y-69894782D01*
X88700507Y-70032737D01*
X88726314Y-70072893D01*
X87760000Y-70072893D01*
X87760000Y-70770737D01*
X87766401Y-70830265D01*
X87766403Y-70830272D01*
X87816645Y-70964979D01*
X87816649Y-70964986D01*
X87902809Y-71080080D01*
X87902812Y-71080083D01*
X88017906Y-71166243D01*
X88017913Y-71166247D01*
X88152620Y-71216489D01*
X88152627Y-71216491D01*
X88212155Y-71222892D01*
X88212172Y-71222893D01*
X88910000Y-71222893D01*
X88910000Y-70258394D01*
X89017685Y-70307573D01*
X89124237Y-70322893D01*
X89195763Y-70322893D01*
X89302315Y-70307573D01*
X89410000Y-70258394D01*
X89410000Y-71222893D01*
X90107828Y-71222893D01*
X90107844Y-71222892D01*
X90167372Y-71216491D01*
X90167379Y-71216489D01*
X90302086Y-71166247D01*
X90302093Y-71166243D01*
X90417187Y-71080083D01*
X90417190Y-71080080D01*
X90503350Y-70964986D01*
X90503353Y-70964981D01*
X90521678Y-70915848D01*
X90563549Y-70859913D01*
X90629013Y-70835495D01*
X90697286Y-70850346D01*
X90714023Y-70861326D01*
X90891365Y-70999357D01*
X90891371Y-70999361D01*
X90891374Y-70999363D01*
X91095497Y-71109829D01*
X91209487Y-71148961D01*
X91315015Y-71185190D01*
X91315017Y-71185190D01*
X91315019Y-71185191D01*
X91543951Y-71223393D01*
X91543952Y-71223393D01*
X91776048Y-71223393D01*
X91776049Y-71223393D01*
X92004981Y-71185191D01*
X92224503Y-71109829D01*
X92428626Y-70999363D01*
X92458339Y-70976237D01*
X92490129Y-70951493D01*
X92611784Y-70856806D01*
X92768979Y-70686046D01*
X92806191Y-70629089D01*
X92859337Y-70583732D01*
X92928569Y-70574308D01*
X92991904Y-70603810D01*
X93013809Y-70629089D01*
X93051016Y-70686040D01*
X93051019Y-70686044D01*
X93051021Y-70686046D01*
X93208216Y-70856806D01*
X93361662Y-70976237D01*
X93402475Y-71032948D01*
X93409500Y-71074091D01*
X93409500Y-72367447D01*
X93409290Y-72374657D01*
X93405668Y-72436826D01*
X93405669Y-72436828D01*
X93416482Y-72498156D01*
X93417527Y-72505289D01*
X93424757Y-72567142D01*
X93424761Y-72567157D01*
X93428594Y-72577688D01*
X93434186Y-72598557D01*
X93436133Y-72609601D01*
X93436134Y-72609603D01*
X93443432Y-72626521D01*
X93460801Y-72666789D01*
X93463459Y-72673478D01*
X93484762Y-72732009D01*
X93490924Y-72741377D01*
X93501179Y-72760397D01*
X93505620Y-72770692D01*
X93505624Y-72770699D01*
X93542814Y-72820653D01*
X93546940Y-72826545D01*
X93581170Y-72878589D01*
X93589330Y-72886288D01*
X93603690Y-72902424D01*
X93610390Y-72911423D01*
X93647430Y-72942503D01*
X93658102Y-72951458D01*
X93663491Y-72956255D01*
X93708778Y-72998983D01*
X93708780Y-72998983D01*
X93708782Y-72998985D01*
X93718489Y-73004589D01*
X93736195Y-73016987D01*
X93744786Y-73024195D01*
X93744787Y-73024195D01*
X93744789Y-73024197D01*
X93800438Y-73052144D01*
X93806764Y-73055554D01*
X93860719Y-73086705D01*
X93871463Y-73089921D01*
X93891544Y-73097899D01*
X93901567Y-73102933D01*
X93915310Y-73106190D01*
X93962174Y-73117298D01*
X93969136Y-73119163D01*
X94028790Y-73137023D01*
X94039978Y-73137674D01*
X94061372Y-73140807D01*
X94072279Y-73143393D01*
X94134555Y-73143393D01*
X94141764Y-73143602D01*
X94203935Y-73147224D01*
X94214977Y-73145277D01*
X94236509Y-73143393D01*
X96868393Y-73143393D01*
X96935432Y-73163078D01*
X96981187Y-73215882D01*
X96992393Y-73267393D01*
X96992393Y-81230663D01*
X96972708Y-81297702D01*
X96956074Y-81318344D01*
X95918344Y-82356074D01*
X95857021Y-82389559D01*
X95830663Y-82392393D01*
X92956598Y-82392393D01*
X92938628Y-82391084D01*
X92914865Y-82387603D01*
X92867736Y-82391727D01*
X92865523Y-82391921D01*
X92854717Y-82392393D01*
X92849177Y-82392393D01*
X92818394Y-82395991D01*
X92814809Y-82396357D01*
X92740092Y-82402894D01*
X92733025Y-82404353D01*
X92733013Y-82404297D01*
X92725656Y-82405928D01*
X92725670Y-82405985D01*
X92718633Y-82407653D01*
X92648124Y-82433314D01*
X92644723Y-82434496D01*
X92573561Y-82458077D01*
X92567019Y-82461128D01*
X92566994Y-82461076D01*
X92560201Y-82464364D01*
X92560227Y-82464415D01*
X92553779Y-82467653D01*
X92491121Y-82508863D01*
X92488084Y-82510798D01*
X92424237Y-82550181D01*
X92418570Y-82554662D01*
X92418534Y-82554616D01*
X92412691Y-82559377D01*
X92412728Y-82559421D01*
X92407203Y-82564057D01*
X92407197Y-82564062D01*
X92407197Y-82564063D01*
X92380016Y-82592873D01*
X92355741Y-82618602D01*
X92353229Y-82621187D01*
X90487251Y-84487165D01*
X90473622Y-84498944D01*
X90454362Y-84513283D01*
X90422525Y-84551224D01*
X90415239Y-84559177D01*
X90411300Y-84563117D01*
X90392069Y-84587438D01*
X90389795Y-84590230D01*
X90341587Y-84647683D01*
X90337622Y-84653712D01*
X90337575Y-84653681D01*
X90333525Y-84660037D01*
X90333574Y-84660068D01*
X90329780Y-84666219D01*
X90324205Y-84678175D01*
X90282948Y-84727341D01*
X90101490Y-84854398D01*
X89934398Y-85021490D01*
X89804468Y-85207051D01*
X89749891Y-85250676D01*
X89680393Y-85257870D01*
X89618038Y-85226347D01*
X89601318Y-85207051D01*
X89471387Y-85021490D01*
X89304295Y-84854399D01*
X89304288Y-84854394D01*
X89110727Y-84718860D01*
X89110723Y-84718858D01*
X89007748Y-84670840D01*
X88896556Y-84618990D01*
X88896552Y-84618989D01*
X88896548Y-84618987D01*
X88668306Y-84557831D01*
X88668296Y-84557829D01*
X88432894Y-84537234D01*
X88432892Y-84537234D01*
X88197489Y-84557829D01*
X88197479Y-84557831D01*
X87969237Y-84618987D01*
X87969228Y-84618991D01*
X87755064Y-84718857D01*
X87755062Y-84718858D01*
X87561490Y-84854398D01*
X87394398Y-85021490D01*
X87264468Y-85207051D01*
X87209891Y-85250676D01*
X87140393Y-85257870D01*
X87078038Y-85226347D01*
X87061318Y-85207051D01*
X86931387Y-85021490D01*
X86764295Y-84854399D01*
X86764288Y-84854394D01*
X86570727Y-84718860D01*
X86570723Y-84718858D01*
X86467748Y-84670840D01*
X86356556Y-84618990D01*
X86356552Y-84618989D01*
X86356548Y-84618987D01*
X86128306Y-84557831D01*
X86128296Y-84557829D01*
X85892894Y-84537234D01*
X85892892Y-84537234D01*
X85657489Y-84557829D01*
X85657479Y-84557831D01*
X85429237Y-84618987D01*
X85429228Y-84618991D01*
X85215064Y-84718857D01*
X85215062Y-84718858D01*
X85021490Y-84854398D01*
X84854398Y-85021490D01*
X84724468Y-85207051D01*
X84669891Y-85250676D01*
X84600393Y-85257870D01*
X84538038Y-85226347D01*
X84521318Y-85207051D01*
X84391387Y-85021490D01*
X84224295Y-84854399D01*
X84224288Y-84854394D01*
X84030727Y-84718860D01*
X84030723Y-84718858D01*
X83927748Y-84670840D01*
X83816556Y-84618990D01*
X83816552Y-84618989D01*
X83816548Y-84618987D01*
X83588306Y-84557831D01*
X83588296Y-84557829D01*
X83352894Y-84537234D01*
X83352892Y-84537234D01*
X83117489Y-84557829D01*
X83117479Y-84557831D01*
X82889237Y-84618987D01*
X82889228Y-84618991D01*
X82675064Y-84718857D01*
X82675062Y-84718858D01*
X82481490Y-84854398D01*
X82314398Y-85021490D01*
X82184468Y-85207051D01*
X82129891Y-85250676D01*
X82060393Y-85257870D01*
X81998038Y-85226347D01*
X81981318Y-85207051D01*
X81851387Y-85021490D01*
X81684295Y-84854399D01*
X81684288Y-84854394D01*
X81490724Y-84718858D01*
X81490719Y-84718855D01*
X81484984Y-84716181D01*
X81432546Y-84670006D01*
X81413393Y-84603801D01*
X81413393Y-83560387D01*
X81414454Y-83544201D01*
X81418576Y-83512893D01*
X81418576Y-83512892D01*
X81409923Y-83447169D01*
X81402777Y-83392896D01*
X87687328Y-83392896D01*
X87707523Y-83572142D01*
X87707524Y-83572147D01*
X87767104Y-83742416D01*
X87853428Y-83879799D01*
X87863077Y-83895155D01*
X87990631Y-84022709D01*
X88143371Y-84118682D01*
X88191640Y-84135572D01*
X88313638Y-84178261D01*
X88313643Y-84178262D01*
X88492889Y-84198458D01*
X88492893Y-84198458D01*
X88492897Y-84198458D01*
X88672142Y-84178262D01*
X88672145Y-84178261D01*
X88672148Y-84178261D01*
X88842415Y-84118682D01*
X88995155Y-84022709D01*
X89122709Y-83895155D01*
X89218682Y-83742415D01*
X89278261Y-83572148D01*
X89288054Y-83485222D01*
X89315119Y-83420811D01*
X89323583Y-83411436D01*
X92033936Y-80701083D01*
X92046116Y-80690402D01*
X92071175Y-80671175D01*
X92167429Y-80545734D01*
X92227937Y-80399655D01*
X92241992Y-80292898D01*
X93237250Y-80292898D01*
X93257783Y-80540705D01*
X93257785Y-80540717D01*
X93318829Y-80781774D01*
X93418719Y-81009499D01*
X93554726Y-81217675D01*
X93587138Y-81252884D01*
X93723149Y-81400631D01*
X93919384Y-81553367D01*
X93919386Y-81553368D01*
X94134104Y-81669568D01*
X94138083Y-81671721D01*
X94373279Y-81752464D01*
X94618558Y-81793393D01*
X94867228Y-81793393D01*
X95112507Y-81752464D01*
X95347703Y-81671721D01*
X95566402Y-81553367D01*
X95762637Y-81400631D01*
X95931057Y-81217678D01*
X96067066Y-81009500D01*
X96166956Y-80781774D01*
X96228001Y-80540714D01*
X96238946Y-80408632D01*
X96248536Y-80292898D01*
X96248536Y-80292887D01*
X96228002Y-80045080D01*
X96228000Y-80045068D01*
X96166956Y-79804011D01*
X96067066Y-79576286D01*
X95931059Y-79368110D01*
X95909450Y-79344637D01*
X95762637Y-79185155D01*
X95566402Y-79032419D01*
X95566400Y-79032418D01*
X95566399Y-79032417D01*
X95347704Y-78914065D01*
X95347695Y-78914062D01*
X95112509Y-78833322D01*
X94867228Y-78792393D01*
X94618558Y-78792393D01*
X94373276Y-78833322D01*
X94138090Y-78914062D01*
X94138081Y-78914065D01*
X93919386Y-79032417D01*
X93723150Y-79185154D01*
X93554726Y-79368110D01*
X93418719Y-79576286D01*
X93318829Y-79804011D01*
X93257785Y-80045068D01*
X93257783Y-80045080D01*
X93237250Y-80292887D01*
X93237250Y-80292898D01*
X92241992Y-80292898D01*
X92243393Y-80282254D01*
X92248575Y-80242893D01*
X92244454Y-80211590D01*
X92243393Y-80195405D01*
X92243393Y-75792898D01*
X93237752Y-75792898D01*
X93258278Y-76040622D01*
X93258280Y-76040631D01*
X93319305Y-76281610D01*
X93419159Y-76509257D01*
X93519457Y-76662775D01*
X94216963Y-75965269D01*
X94219777Y-75978808D01*
X94289335Y-76113049D01*
X94392531Y-76223545D01*
X94521712Y-76302102D01*
X94572895Y-76316442D01*
X93872835Y-77016502D01*
X93919661Y-77052948D01*
X93919663Y-77052949D01*
X94138278Y-77171257D01*
X94138289Y-77171262D01*
X94373399Y-77251976D01*
X94618600Y-77292893D01*
X94867186Y-77292893D01*
X95112386Y-77251976D01*
X95347496Y-77171262D01*
X95347507Y-77171257D01*
X95566121Y-77052950D01*
X95566124Y-77052948D01*
X95612949Y-77016502D01*
X94914461Y-76318014D01*
X95031351Y-76267242D01*
X95148632Y-76171827D01*
X95235821Y-76048308D01*
X95266247Y-75962695D01*
X95966327Y-76662775D01*
X96066624Y-76509262D01*
X96166480Y-76281610D01*
X96227505Y-76040631D01*
X96227507Y-76040622D01*
X96248034Y-75792898D01*
X96248034Y-75792887D01*
X96227507Y-75545163D01*
X96227505Y-75545154D01*
X96166480Y-75304175D01*
X96066624Y-75076523D01*
X95966327Y-74923009D01*
X95268822Y-75620515D01*
X95266009Y-75606978D01*
X95196451Y-75472737D01*
X95093255Y-75362241D01*
X94964074Y-75283684D01*
X94912890Y-75269343D01*
X95612950Y-74569283D01*
X95612949Y-74569282D01*
X95566122Y-74532836D01*
X95347507Y-74414528D01*
X95347496Y-74414523D01*
X95112386Y-74333809D01*
X94867186Y-74292893D01*
X94618600Y-74292893D01*
X94373399Y-74333809D01*
X94138289Y-74414523D01*
X94138283Y-74414525D01*
X93919654Y-74532842D01*
X93872835Y-74569281D01*
X93872835Y-74569283D01*
X94571324Y-75267771D01*
X94454435Y-75318544D01*
X94337154Y-75413959D01*
X94249965Y-75537478D01*
X94219538Y-75623090D01*
X93519457Y-74923009D01*
X93419160Y-75076525D01*
X93319305Y-75304175D01*
X93258280Y-75545154D01*
X93258278Y-75545163D01*
X93237752Y-75792887D01*
X93237752Y-75792898D01*
X92243393Y-75792898D01*
X92243393Y-73725305D01*
X92263078Y-73658266D01*
X92270448Y-73647990D01*
X92272703Y-73645160D01*
X92272709Y-73645155D01*
X92368682Y-73492415D01*
X92428261Y-73322148D01*
X92428262Y-73322142D01*
X92448458Y-73142896D01*
X92448458Y-73142889D01*
X92428262Y-72963643D01*
X92428261Y-72963638D01*
X92386437Y-72844113D01*
X92368682Y-72793371D01*
X92272709Y-72640631D01*
X92145155Y-72513077D01*
X92144907Y-72512921D01*
X91992416Y-72417104D01*
X91822147Y-72357524D01*
X91822142Y-72357523D01*
X91642897Y-72337328D01*
X91642889Y-72337328D01*
X91463643Y-72357523D01*
X91463638Y-72357524D01*
X91293369Y-72417104D01*
X91140630Y-72513077D01*
X91013077Y-72640630D01*
X90917104Y-72793369D01*
X90857524Y-72963638D01*
X90857523Y-72963643D01*
X90837328Y-73142889D01*
X90837328Y-73142896D01*
X90857523Y-73322142D01*
X90857524Y-73322147D01*
X90917104Y-73492416D01*
X91013078Y-73645156D01*
X91015338Y-73647990D01*
X91016227Y-73650168D01*
X91016782Y-73651051D01*
X91016627Y-73651148D01*
X91041748Y-73712676D01*
X91042393Y-73725305D01*
X91042393Y-79942795D01*
X91022708Y-80009834D01*
X91006074Y-80030476D01*
X88474358Y-82562191D01*
X88413035Y-82595676D01*
X88400561Y-82597730D01*
X88313643Y-82607523D01*
X88143371Y-82667103D01*
X87990630Y-82763077D01*
X87863077Y-82890630D01*
X87767104Y-83043369D01*
X87707524Y-83213638D01*
X87707523Y-83213643D01*
X87687328Y-83392889D01*
X87687328Y-83392896D01*
X81402777Y-83392896D01*
X81397937Y-83356131D01*
X81359781Y-83264015D01*
X81337431Y-83210056D01*
X81337428Y-83210051D01*
X81265344Y-83116109D01*
X81265343Y-83116108D01*
X81251654Y-83098268D01*
X81241174Y-83084609D01*
X81216122Y-83065387D01*
X81203927Y-83054692D01*
X79003328Y-80854093D01*
X78969843Y-80792770D01*
X78974827Y-80723078D01*
X79016699Y-80667145D01*
X79082163Y-80642728D01*
X79150436Y-80657580D01*
X79259726Y-80717257D01*
X79259725Y-80717257D01*
X79259729Y-80717258D01*
X79259732Y-80717260D01*
X79527847Y-80817262D01*
X79527853Y-80817263D01*
X79527855Y-80817264D01*
X79807459Y-80878088D01*
X79807461Y-80878088D01*
X79807465Y-80878089D01*
X80061113Y-80896230D01*
X80092892Y-80898503D01*
X80092893Y-80898503D01*
X80092894Y-80898503D01*
X80121488Y-80896457D01*
X80378321Y-80878089D01*
X80657939Y-80817262D01*
X80926054Y-80717260D01*
X81177208Y-80580119D01*
X81406288Y-80408632D01*
X81522022Y-80292898D01*
X86737250Y-80292898D01*
X86757783Y-80540705D01*
X86757785Y-80540717D01*
X86818829Y-80781774D01*
X86918719Y-81009499D01*
X87054726Y-81217675D01*
X87087138Y-81252884D01*
X87223149Y-81400631D01*
X87419384Y-81553367D01*
X87419386Y-81553368D01*
X87634104Y-81669568D01*
X87638083Y-81671721D01*
X87873279Y-81752464D01*
X88118558Y-81793393D01*
X88367228Y-81793393D01*
X88612507Y-81752464D01*
X88847703Y-81671721D01*
X89066402Y-81553367D01*
X89262637Y-81400631D01*
X89431057Y-81217678D01*
X89567066Y-81009500D01*
X89666956Y-80781774D01*
X89728001Y-80540714D01*
X89738946Y-80408632D01*
X89748536Y-80292898D01*
X89748536Y-80292887D01*
X89728002Y-80045080D01*
X89728000Y-80045068D01*
X89666956Y-79804011D01*
X89567066Y-79576286D01*
X89431059Y-79368110D01*
X89409450Y-79344637D01*
X89262637Y-79185155D01*
X89066402Y-79032419D01*
X89066400Y-79032418D01*
X89066399Y-79032417D01*
X88847704Y-78914065D01*
X88847695Y-78914062D01*
X88612509Y-78833322D01*
X88367228Y-78792393D01*
X88118558Y-78792393D01*
X87873276Y-78833322D01*
X87638090Y-78914062D01*
X87638081Y-78914065D01*
X87419386Y-79032417D01*
X87223150Y-79185154D01*
X87054726Y-79368110D01*
X86918719Y-79576286D01*
X86818829Y-79804011D01*
X86757785Y-80045068D01*
X86757783Y-80045080D01*
X86737250Y-80292887D01*
X86737250Y-80292898D01*
X81522022Y-80292898D01*
X81608632Y-80206288D01*
X81780119Y-79977208D01*
X81917260Y-79726054D01*
X82017262Y-79457939D01*
X82036803Y-79368110D01*
X82078088Y-79178326D01*
X82078088Y-79178325D01*
X82078089Y-79178321D01*
X82098503Y-78892893D01*
X82078089Y-78607465D01*
X82017262Y-78327847D01*
X81917260Y-78059732D01*
X81780119Y-77808578D01*
X81780117Y-77808575D01*
X81608638Y-77579505D01*
X81608622Y-77579487D01*
X81406298Y-77377163D01*
X81406280Y-77377147D01*
X81177210Y-77205668D01*
X81177202Y-77205663D01*
X80926059Y-77068528D01*
X80926060Y-77068528D01*
X80818808Y-77028525D01*
X80657939Y-76968524D01*
X80657936Y-76968523D01*
X80657930Y-76968521D01*
X80378326Y-76907697D01*
X80092894Y-76887283D01*
X80092892Y-76887283D01*
X79807459Y-76907697D01*
X79527855Y-76968521D01*
X79259726Y-77068528D01*
X79008583Y-77205663D01*
X79008575Y-77205668D01*
X78779505Y-77377147D01*
X78779487Y-77377163D01*
X78577163Y-77579487D01*
X78577147Y-77579505D01*
X78405668Y-77808575D01*
X78405663Y-77808583D01*
X78268528Y-78059726D01*
X78168521Y-78327855D01*
X78107697Y-78607459D01*
X78087283Y-78892891D01*
X78087283Y-78892894D01*
X78107697Y-79178326D01*
X78168521Y-79457930D01*
X78268528Y-79726060D01*
X78328205Y-79835349D01*
X78343057Y-79903622D01*
X78318640Y-79969086D01*
X78262707Y-80010958D01*
X78193015Y-80015942D01*
X78131692Y-79982457D01*
X73942133Y-75792898D01*
X86737752Y-75792898D01*
X86758278Y-76040622D01*
X86758280Y-76040631D01*
X86819305Y-76281610D01*
X86919159Y-76509257D01*
X87019457Y-76662775D01*
X87716963Y-75965269D01*
X87719777Y-75978808D01*
X87789335Y-76113049D01*
X87892531Y-76223545D01*
X88021712Y-76302102D01*
X88072895Y-76316442D01*
X87372835Y-77016502D01*
X87419661Y-77052948D01*
X87419663Y-77052949D01*
X87638278Y-77171257D01*
X87638289Y-77171262D01*
X87873399Y-77251976D01*
X88118600Y-77292893D01*
X88367186Y-77292893D01*
X88612386Y-77251976D01*
X88847496Y-77171262D01*
X88847507Y-77171257D01*
X89066121Y-77052950D01*
X89066124Y-77052948D01*
X89112949Y-77016502D01*
X88414461Y-76318014D01*
X88531351Y-76267242D01*
X88648632Y-76171827D01*
X88735821Y-76048308D01*
X88766247Y-75962695D01*
X89466327Y-76662775D01*
X89566624Y-76509262D01*
X89666480Y-76281610D01*
X89727505Y-76040631D01*
X89727507Y-76040622D01*
X89748034Y-75792898D01*
X89748034Y-75792887D01*
X89727507Y-75545163D01*
X89727505Y-75545154D01*
X89666480Y-75304175D01*
X89566624Y-75076523D01*
X89466327Y-74923009D01*
X88768822Y-75620515D01*
X88766009Y-75606978D01*
X88696451Y-75472737D01*
X88593255Y-75362241D01*
X88464074Y-75283684D01*
X88412890Y-75269343D01*
X89112950Y-74569283D01*
X89112949Y-74569282D01*
X89066122Y-74532836D01*
X88847507Y-74414528D01*
X88847496Y-74414523D01*
X88612386Y-74333809D01*
X88367186Y-74292893D01*
X88118600Y-74292893D01*
X87873399Y-74333809D01*
X87638289Y-74414523D01*
X87638283Y-74414525D01*
X87419654Y-74532842D01*
X87372835Y-74569281D01*
X87372835Y-74569283D01*
X88071324Y-75267771D01*
X87954435Y-75318544D01*
X87837154Y-75413959D01*
X87749965Y-75537478D01*
X87719538Y-75623090D01*
X87019457Y-74923009D01*
X86919160Y-75076525D01*
X86819305Y-75304175D01*
X86758280Y-75545154D01*
X86758278Y-75545163D01*
X86737752Y-75792887D01*
X86737752Y-75792898D01*
X73942133Y-75792898D01*
X71679712Y-73530477D01*
X71646227Y-73469154D01*
X71643393Y-73442796D01*
X71643393Y-67192896D01*
X72437328Y-67192896D01*
X72457523Y-67372142D01*
X72457524Y-67372147D01*
X72517104Y-67542416D01*
X72613077Y-67695155D01*
X72740631Y-67822709D01*
X72893371Y-67918682D01*
X73063638Y-67978261D01*
X73063643Y-67978262D01*
X73242889Y-67998458D01*
X73242893Y-67998458D01*
X73242897Y-67998458D01*
X73422142Y-67978262D01*
X73422145Y-67978261D01*
X73422148Y-67978261D01*
X73592415Y-67918682D01*
X73745155Y-67822709D01*
X73745160Y-67822703D01*
X73747990Y-67820448D01*
X73750168Y-67819558D01*
X73751051Y-67819004D01*
X73751148Y-67819158D01*
X73812676Y-67794038D01*
X73825305Y-67793393D01*
X76760481Y-67793393D01*
X76827520Y-67813078D01*
X76837796Y-67820448D01*
X76840629Y-67822707D01*
X76840631Y-67822709D01*
X76993371Y-67918682D01*
X77163638Y-67978261D01*
X77163643Y-67978262D01*
X77342889Y-67998458D01*
X77342893Y-67998458D01*
X77342897Y-67998458D01*
X77522142Y-67978262D01*
X77522145Y-67978261D01*
X77522148Y-67978261D01*
X77692415Y-67918682D01*
X77845155Y-67822709D01*
X77972709Y-67695155D01*
X78068682Y-67542415D01*
X78128261Y-67372148D01*
X78148458Y-67192893D01*
X78128261Y-67013638D01*
X78068682Y-66843371D01*
X77972709Y-66690631D01*
X77845155Y-66563077D01*
X77692416Y-66467104D01*
X77522147Y-66407524D01*
X77522142Y-66407523D01*
X77342897Y-66387328D01*
X77342889Y-66387328D01*
X77163643Y-66407523D01*
X77163638Y-66407524D01*
X76993369Y-66467104D01*
X76840629Y-66563078D01*
X76837796Y-66565338D01*
X76835617Y-66566227D01*
X76834735Y-66566782D01*
X76834637Y-66566627D01*
X76773110Y-66591748D01*
X76760481Y-66592393D01*
X73825305Y-66592393D01*
X73758266Y-66572708D01*
X73747990Y-66565338D01*
X73745156Y-66563078D01*
X73745155Y-66563077D01*
X73688389Y-66527408D01*
X73592416Y-66467104D01*
X73422147Y-66407524D01*
X73422142Y-66407523D01*
X73242897Y-66387328D01*
X73242889Y-66387328D01*
X73063643Y-66407523D01*
X73063638Y-66407524D01*
X72893369Y-66467104D01*
X72740630Y-66563077D01*
X72613077Y-66690630D01*
X72517104Y-66843369D01*
X72457524Y-67013638D01*
X72457523Y-67013643D01*
X72437328Y-67192889D01*
X72437328Y-67192896D01*
X71643393Y-67192896D01*
X71643393Y-62820910D01*
X84999500Y-62820910D01*
X85014403Y-63024508D01*
X85014405Y-63024522D01*
X85073615Y-63290328D01*
X85073618Y-63290335D01*
X85170907Y-63544707D01*
X85304196Y-63782203D01*
X85470645Y-63997761D01*
X85666705Y-64186787D01*
X85666708Y-64186789D01*
X85666709Y-64186790D01*
X85888189Y-64345245D01*
X85888192Y-64345246D01*
X85888198Y-64345251D01*
X86017908Y-64411940D01*
X86108848Y-64458696D01*
X86130403Y-64469778D01*
X86130407Y-64469779D01*
X86130411Y-64469781D01*
X86388145Y-64557708D01*
X86388151Y-64557709D01*
X86388159Y-64557712D01*
X86548564Y-64587340D01*
X86655959Y-64607177D01*
X86655961Y-64607177D01*
X86655971Y-64607179D01*
X86873699Y-64615135D01*
X86928129Y-64617125D01*
X86928129Y-64617124D01*
X86928131Y-64617125D01*
X87198839Y-64587339D01*
X87462326Y-64518455D01*
X87712975Y-64411940D01*
X87945444Y-64270066D01*
X88154779Y-64095856D01*
X88336518Y-63893024D01*
X88486788Y-63665891D01*
X88602386Y-63419299D01*
X88680847Y-63158504D01*
X88720500Y-62889064D01*
X88720500Y-62820462D01*
X94599500Y-62820462D01*
X94614307Y-63022756D01*
X94614308Y-63022766D01*
X94673139Y-63286864D01*
X94673141Y-63286869D01*
X94769802Y-63539600D01*
X94902232Y-63775564D01*
X95067606Y-63989731D01*
X95262392Y-64177528D01*
X95262397Y-64177533D01*
X95262402Y-64177537D01*
X95482466Y-64334980D01*
X95556266Y-64372923D01*
X95723093Y-64458696D01*
X95723104Y-64458700D01*
X95723109Y-64458703D01*
X95723115Y-64458705D01*
X95979188Y-64546066D01*
X95979194Y-64546067D01*
X95979202Y-64546070D01*
X96184978Y-64584078D01*
X96245275Y-64595216D01*
X96245277Y-64595216D01*
X96245287Y-64595218D01*
X96461611Y-64603123D01*
X96515690Y-64605100D01*
X96515690Y-64605099D01*
X96515692Y-64605100D01*
X96784654Y-64575506D01*
X97046441Y-64507066D01*
X97295473Y-64401239D01*
X97526443Y-64260280D01*
X97734428Y-64087194D01*
X97914994Y-63885669D01*
X98064295Y-63660002D01*
X98179147Y-63415000D01*
X98257102Y-63155888D01*
X98296500Y-62888186D01*
X98296500Y-62820910D01*
X101292393Y-62820910D01*
X101307296Y-63024508D01*
X101307298Y-63024522D01*
X101366508Y-63290328D01*
X101366511Y-63290335D01*
X101463800Y-63544707D01*
X101597089Y-63782203D01*
X101763538Y-63997761D01*
X101959598Y-64186787D01*
X101959601Y-64186789D01*
X101959602Y-64186790D01*
X102181082Y-64345245D01*
X102181085Y-64345246D01*
X102181091Y-64345251D01*
X102310801Y-64411940D01*
X102401741Y-64458696D01*
X102423296Y-64469778D01*
X102423300Y-64469779D01*
X102423304Y-64469781D01*
X102681038Y-64557708D01*
X102681044Y-64557709D01*
X102681052Y-64557712D01*
X102841457Y-64587340D01*
X102948852Y-64607177D01*
X102948854Y-64607177D01*
X102948864Y-64607179D01*
X103166592Y-64615135D01*
X103221022Y-64617125D01*
X103221022Y-64617124D01*
X103221024Y-64617125D01*
X103491732Y-64587339D01*
X103755219Y-64518455D01*
X104005868Y-64411940D01*
X104238337Y-64270066D01*
X104447672Y-64095856D01*
X104629411Y-63893024D01*
X104779681Y-63665891D01*
X104895279Y-63419299D01*
X104973740Y-63158504D01*
X105013393Y-62889064D01*
X105013393Y-62820462D01*
X110892393Y-62820462D01*
X110907200Y-63022756D01*
X110907201Y-63022766D01*
X110966032Y-63286864D01*
X110966034Y-63286869D01*
X111062695Y-63539600D01*
X111195125Y-63775564D01*
X111360499Y-63989731D01*
X111555285Y-64177528D01*
X111555290Y-64177533D01*
X111555295Y-64177537D01*
X111775359Y-64334980D01*
X111849159Y-64372923D01*
X112015986Y-64458696D01*
X112015997Y-64458700D01*
X112016002Y-64458703D01*
X112016008Y-64458705D01*
X112272081Y-64546066D01*
X112272087Y-64546067D01*
X112272095Y-64546070D01*
X112477871Y-64584078D01*
X112538168Y-64595216D01*
X112538170Y-64595216D01*
X112538180Y-64595218D01*
X112754504Y-64603123D01*
X112808583Y-64605100D01*
X112808583Y-64605099D01*
X112808585Y-64605100D01*
X113077547Y-64575506D01*
X113339334Y-64507066D01*
X113588366Y-64401239D01*
X113819336Y-64260280D01*
X114027321Y-64087194D01*
X114207887Y-63885669D01*
X114357188Y-63660002D01*
X114472040Y-63415000D01*
X114549995Y-63155888D01*
X114589393Y-62888186D01*
X114589393Y-61801342D01*
X114574586Y-61599029D01*
X114515752Y-61334917D01*
X114419091Y-61082186D01*
X114286661Y-60846222D01*
X114121287Y-60632055D01*
X114121286Y-60632054D01*
X113926500Y-60444257D01*
X113926493Y-60444251D01*
X113926491Y-60444249D01*
X113706427Y-60286806D01*
X113698730Y-60282848D01*
X113465799Y-60163089D01*
X113465777Y-60163080D01*
X113209704Y-60075719D01*
X113209691Y-60075716D01*
X113209686Y-60075715D01*
X112943617Y-60026569D01*
X112943597Y-60026567D01*
X112673202Y-60016685D01*
X112404243Y-60046279D01*
X112404232Y-60046281D01*
X112142457Y-60114718D01*
X111893425Y-60220544D01*
X111662454Y-60361503D01*
X111662444Y-60361510D01*
X111454467Y-60534589D01*
X111454465Y-60534591D01*
X111273898Y-60736117D01*
X111124598Y-60961782D01*
X111009746Y-61206786D01*
X110931790Y-61465899D01*
X110931790Y-61465900D01*
X110928643Y-61487285D01*
X110892393Y-61733600D01*
X110892393Y-61733604D01*
X110892393Y-62820462D01*
X105013393Y-62820462D01*
X105013393Y-61824893D01*
X105011669Y-61801344D01*
X105006711Y-61733600D01*
X104998490Y-61621277D01*
X104993532Y-61599019D01*
X104939277Y-61355457D01*
X104939275Y-61355453D01*
X104939275Y-61355451D01*
X104841986Y-61101079D01*
X104708697Y-60863583D01*
X104542248Y-60648025D01*
X104346188Y-60458999D01*
X104346185Y-60458997D01*
X104346183Y-60458995D01*
X104124703Y-60300540D01*
X104124697Y-60300536D01*
X104124695Y-60300535D01*
X103994985Y-60233846D01*
X103882495Y-60176010D01*
X103882481Y-60176004D01*
X103624747Y-60088077D01*
X103624734Y-60088074D01*
X103624729Y-60088073D01*
X103356933Y-60038608D01*
X103356913Y-60038606D01*
X103084763Y-60028660D01*
X102814065Y-60058445D01*
X102814052Y-60058447D01*
X102550572Y-60127329D01*
X102299918Y-60233846D01*
X102067453Y-60375717D01*
X102067443Y-60375724D01*
X101858115Y-60549928D01*
X101676375Y-60752761D01*
X101526106Y-60979892D01*
X101526105Y-60979895D01*
X101419743Y-61206786D01*
X101410506Y-61226490D01*
X101332045Y-61487285D01*
X101315602Y-61599019D01*
X101292393Y-61756722D01*
X101292393Y-61756726D01*
X101292393Y-62820910D01*
X98296500Y-62820910D01*
X98296500Y-61801342D01*
X98281693Y-61599029D01*
X98222859Y-61334917D01*
X98126198Y-61082186D01*
X97993768Y-60846222D01*
X97828394Y-60632055D01*
X97828393Y-60632054D01*
X97633607Y-60444257D01*
X97633600Y-60444251D01*
X97633598Y-60444249D01*
X97413534Y-60286806D01*
X97405837Y-60282848D01*
X97172906Y-60163089D01*
X97172884Y-60163080D01*
X96916811Y-60075719D01*
X96916798Y-60075716D01*
X96916793Y-60075715D01*
X96650724Y-60026569D01*
X96650704Y-60026567D01*
X96380309Y-60016685D01*
X96111350Y-60046279D01*
X96111339Y-60046281D01*
X95849564Y-60114718D01*
X95600532Y-60220544D01*
X95369561Y-60361503D01*
X95369551Y-60361510D01*
X95161574Y-60534589D01*
X95161572Y-60534591D01*
X94981005Y-60736117D01*
X94831705Y-60961782D01*
X94716853Y-61206786D01*
X94638897Y-61465899D01*
X94638897Y-61465900D01*
X94635750Y-61487285D01*
X94599500Y-61733600D01*
X94599500Y-61733604D01*
X94599500Y-62820462D01*
X88720500Y-62820462D01*
X88720500Y-61824893D01*
X88718776Y-61801344D01*
X88713818Y-61733600D01*
X88705597Y-61621277D01*
X88700639Y-61599019D01*
X88646384Y-61355457D01*
X88646382Y-61355453D01*
X88646382Y-61355451D01*
X88549093Y-61101079D01*
X88415804Y-60863583D01*
X88249355Y-60648025D01*
X88053295Y-60458999D01*
X88053292Y-60458997D01*
X88053290Y-60458995D01*
X87831810Y-60300540D01*
X87831804Y-60300536D01*
X87831802Y-60300535D01*
X87702092Y-60233846D01*
X87589602Y-60176010D01*
X87589588Y-60176004D01*
X87331854Y-60088077D01*
X87331841Y-60088074D01*
X87331836Y-60088073D01*
X87064040Y-60038608D01*
X87064020Y-60038606D01*
X86791870Y-60028660D01*
X86521172Y-60058445D01*
X86521159Y-60058447D01*
X86257679Y-60127329D01*
X86007025Y-60233846D01*
X85774560Y-60375717D01*
X85774550Y-60375724D01*
X85565222Y-60549928D01*
X85383482Y-60752761D01*
X85233213Y-60979892D01*
X85233212Y-60979895D01*
X85126850Y-61206786D01*
X85117613Y-61226490D01*
X85039152Y-61487285D01*
X85022709Y-61599019D01*
X84999500Y-61756722D01*
X84999500Y-61756726D01*
X84999500Y-62820910D01*
X71643393Y-62820910D01*
X71643393Y-55993951D01*
X71663078Y-55926912D01*
X71714988Y-55881569D01*
X71810723Y-55836928D01*
X72004294Y-55701388D01*
X72171388Y-55534294D01*
X72301318Y-55348735D01*
X72355895Y-55305110D01*
X72425393Y-55297916D01*
X72487748Y-55329439D01*
X72504468Y-55348735D01*
X72634393Y-55534288D01*
X72634398Y-55534294D01*
X72801492Y-55701388D01*
X72878028Y-55754979D01*
X72995058Y-55836925D01*
X72995060Y-55836926D01*
X72995063Y-55836928D01*
X73209230Y-55936796D01*
X73437485Y-55997956D01*
X73608212Y-56012893D01*
X73672892Y-56018552D01*
X73672893Y-56018552D01*
X73672894Y-56018552D01*
X73737574Y-56012893D01*
X73908301Y-55997956D01*
X74136556Y-55936796D01*
X74350723Y-55836928D01*
X74544294Y-55701388D01*
X74711388Y-55534294D01*
X74841318Y-55348735D01*
X74895895Y-55305110D01*
X74965393Y-55297916D01*
X75027748Y-55329439D01*
X75044468Y-55348735D01*
X75174393Y-55534288D01*
X75174398Y-55534294D01*
X75341492Y-55701388D01*
X75418028Y-55754979D01*
X75535058Y-55836925D01*
X75535060Y-55836926D01*
X75535063Y-55836928D01*
X75749230Y-55936796D01*
X75977485Y-55997956D01*
X76148212Y-56012893D01*
X76212892Y-56018552D01*
X76212893Y-56018552D01*
X76212894Y-56018552D01*
X76277574Y-56012893D01*
X76448301Y-55997956D01*
X76676556Y-55936796D01*
X76890723Y-55836928D01*
X77084294Y-55701388D01*
X77251388Y-55534294D01*
X77350397Y-55392894D01*
X78087283Y-55392894D01*
X78107697Y-55678326D01*
X78168521Y-55957930D01*
X78168523Y-55957936D01*
X78168524Y-55957939D01*
X78189021Y-56012893D01*
X78268528Y-56226059D01*
X78405663Y-56477202D01*
X78405668Y-56477210D01*
X78577147Y-56706280D01*
X78577163Y-56706298D01*
X78779487Y-56908622D01*
X78779505Y-56908638D01*
X79008575Y-57080117D01*
X79008583Y-57080122D01*
X79259726Y-57217257D01*
X79259725Y-57217257D01*
X79259729Y-57217258D01*
X79259732Y-57217260D01*
X79527847Y-57317262D01*
X79527853Y-57317263D01*
X79527855Y-57317264D01*
X79807459Y-57378088D01*
X79807461Y-57378088D01*
X79807465Y-57378089D01*
X80061113Y-57396230D01*
X80092892Y-57398503D01*
X80092893Y-57398503D01*
X80092894Y-57398503D01*
X80121488Y-57396457D01*
X80378321Y-57378089D01*
X80657939Y-57317262D01*
X80926054Y-57217260D01*
X81177208Y-57080119D01*
X81406288Y-56908632D01*
X81608632Y-56706288D01*
X81780119Y-56477208D01*
X81917260Y-56226054D01*
X82017262Y-55957939D01*
X82021862Y-55936794D01*
X82078088Y-55678326D01*
X82078088Y-55678325D01*
X82078089Y-55678321D01*
X82098503Y-55392893D01*
X82078089Y-55107465D01*
X82032589Y-54898306D01*
X82017264Y-54827855D01*
X82017263Y-54827853D01*
X82017262Y-54827847D01*
X81917260Y-54559732D01*
X81859006Y-54453049D01*
X81780122Y-54308583D01*
X81780117Y-54308575D01*
X81608638Y-54079505D01*
X81608622Y-54079487D01*
X81406298Y-53877163D01*
X81406280Y-53877147D01*
X81177210Y-53705668D01*
X81177202Y-53705663D01*
X80926059Y-53568528D01*
X80926060Y-53568528D01*
X80818808Y-53528525D01*
X80657939Y-53468524D01*
X80657936Y-53468523D01*
X80657930Y-53468521D01*
X80378326Y-53407697D01*
X80092894Y-53387283D01*
X80092892Y-53387283D01*
X79807459Y-53407697D01*
X79527855Y-53468521D01*
X79259726Y-53568528D01*
X79008583Y-53705663D01*
X79008575Y-53705668D01*
X78779505Y-53877147D01*
X78779487Y-53877163D01*
X78577163Y-54079487D01*
X78577147Y-54079505D01*
X78405668Y-54308575D01*
X78405663Y-54308583D01*
X78268528Y-54559726D01*
X78168521Y-54827855D01*
X78107697Y-55107459D01*
X78087283Y-55392891D01*
X78087283Y-55392894D01*
X77350397Y-55392894D01*
X77386928Y-55340723D01*
X77486796Y-55126556D01*
X77547956Y-54898301D01*
X77568552Y-54662893D01*
X77547956Y-54427485D01*
X77486796Y-54199230D01*
X77386928Y-53985064D01*
X77381318Y-53977051D01*
X77251387Y-53791490D01*
X77084295Y-53624399D01*
X77084288Y-53624394D01*
X76890727Y-53488860D01*
X76890723Y-53488858D01*
X76890721Y-53488857D01*
X76676556Y-53388990D01*
X76676552Y-53388989D01*
X76676548Y-53388987D01*
X76448306Y-53327831D01*
X76448296Y-53327829D01*
X76212894Y-53307234D01*
X76212892Y-53307234D01*
X75977489Y-53327829D01*
X75977479Y-53327831D01*
X75749237Y-53388987D01*
X75749228Y-53388991D01*
X75535064Y-53488857D01*
X75535062Y-53488858D01*
X75341490Y-53624398D01*
X75174398Y-53791490D01*
X75044468Y-53977051D01*
X74989891Y-54020676D01*
X74920393Y-54027870D01*
X74858038Y-53996347D01*
X74841318Y-53977051D01*
X74711387Y-53791490D01*
X74544295Y-53624399D01*
X74544288Y-53624394D01*
X74350727Y-53488860D01*
X74350723Y-53488858D01*
X74350721Y-53488857D01*
X74136556Y-53388990D01*
X74136552Y-53388989D01*
X74136548Y-53388987D01*
X73908306Y-53327831D01*
X73908296Y-53327829D01*
X73672894Y-53307234D01*
X73672892Y-53307234D01*
X73437489Y-53327829D01*
X73437479Y-53327831D01*
X73209237Y-53388987D01*
X73209228Y-53388991D01*
X72995064Y-53488857D01*
X72995062Y-53488858D01*
X72801490Y-53624398D01*
X72634398Y-53791490D01*
X72504468Y-53977051D01*
X72449891Y-54020676D01*
X72380393Y-54027870D01*
X72318038Y-53996347D01*
X72301318Y-53977051D01*
X72171387Y-53791490D01*
X72004295Y-53624399D01*
X72004288Y-53624394D01*
X71810727Y-53488860D01*
X71810723Y-53488858D01*
X71810721Y-53488857D01*
X71596556Y-53388990D01*
X71596552Y-53388989D01*
X71596548Y-53388987D01*
X71368306Y-53327831D01*
X71368296Y-53327829D01*
X71132894Y-53307234D01*
X71132892Y-53307234D01*
X70897489Y-53327829D01*
X70897479Y-53327831D01*
X70669237Y-53388987D01*
X70669228Y-53388991D01*
X70455064Y-53488857D01*
X70455062Y-53488858D01*
X70261490Y-53624398D01*
X70094398Y-53791490D01*
X69964468Y-53977051D01*
X69909891Y-54020676D01*
X69840393Y-54027870D01*
X69778038Y-53996347D01*
X69761318Y-53977051D01*
X69631387Y-53791490D01*
X69464295Y-53624399D01*
X69464288Y-53624394D01*
X69270727Y-53488860D01*
X69270723Y-53488858D01*
X69270721Y-53488857D01*
X69056556Y-53388990D01*
X69056552Y-53388989D01*
X69056548Y-53388987D01*
X68828306Y-53327831D01*
X68828296Y-53327829D01*
X68592894Y-53307234D01*
X68592892Y-53307234D01*
X68357489Y-53327829D01*
X68357479Y-53327831D01*
X68129237Y-53388987D01*
X68129228Y-53388991D01*
X67915064Y-53488857D01*
X67915062Y-53488858D01*
X67721490Y-53624398D01*
X67554398Y-53791490D01*
X67424468Y-53977051D01*
X67369891Y-54020676D01*
X67300393Y-54027870D01*
X67238038Y-53996347D01*
X67221318Y-53977051D01*
X67091387Y-53791490D01*
X66924295Y-53624399D01*
X66924288Y-53624394D01*
X66730727Y-53488860D01*
X66730723Y-53488858D01*
X66730721Y-53488857D01*
X66516556Y-53388990D01*
X66516552Y-53388989D01*
X66516548Y-53388987D01*
X66288306Y-53327831D01*
X66288296Y-53327829D01*
X66052894Y-53307234D01*
X66052892Y-53307234D01*
X65817489Y-53327829D01*
X65817479Y-53327831D01*
X65589237Y-53388987D01*
X65589228Y-53388991D01*
X65375064Y-53488857D01*
X65375062Y-53488858D01*
X65181490Y-53624398D01*
X65014398Y-53791490D01*
X64884468Y-53977051D01*
X64829891Y-54020676D01*
X64760393Y-54027870D01*
X64698038Y-53996347D01*
X64681318Y-53977051D01*
X64551387Y-53791490D01*
X64384295Y-53624399D01*
X64384288Y-53624394D01*
X64190727Y-53488860D01*
X64190723Y-53488858D01*
X64190721Y-53488857D01*
X63976556Y-53388990D01*
X63976552Y-53388989D01*
X63976548Y-53388987D01*
X63748306Y-53327831D01*
X63748296Y-53327829D01*
X63512894Y-53307234D01*
X63512892Y-53307234D01*
X63277489Y-53327829D01*
X63277479Y-53327831D01*
X63049237Y-53388987D01*
X63049228Y-53388991D01*
X62835064Y-53488857D01*
X62835062Y-53488858D01*
X62641493Y-53624396D01*
X62519177Y-53746712D01*
X62457854Y-53780196D01*
X62388162Y-53775212D01*
X62332229Y-53733340D01*
X62315314Y-53702363D01*
X62266247Y-53570806D01*
X62266243Y-53570799D01*
X62180083Y-53455705D01*
X62180080Y-53455702D01*
X62064986Y-53369542D01*
X62064979Y-53369538D01*
X61930272Y-53319296D01*
X61930265Y-53319294D01*
X61870737Y-53312893D01*
X61222893Y-53312893D01*
X61222893Y-54227391D01*
X61115208Y-54178213D01*
X61008656Y-54162893D01*
X60937130Y-54162893D01*
X60830578Y-54178213D01*
X60722893Y-54227391D01*
X60722893Y-53312893D01*
X60075048Y-53312893D01*
X60015520Y-53319294D01*
X60015513Y-53319296D01*
X59880806Y-53369538D01*
X59880799Y-53369542D01*
X59765705Y-53455702D01*
X59765702Y-53455705D01*
X59679542Y-53570799D01*
X59679538Y-53570806D01*
X59629296Y-53705513D01*
X59629294Y-53705520D01*
X59622893Y-53765048D01*
X59622893Y-54412893D01*
X60539207Y-54412893D01*
X60513400Y-54453049D01*
X60472893Y-54591004D01*
X60472893Y-54734782D01*
X60513400Y-54872737D01*
X60539207Y-54912893D01*
X59622893Y-54912893D01*
X59622893Y-55560737D01*
X59086499Y-55560737D01*
X59098503Y-55392893D01*
X59078089Y-55107465D01*
X59032589Y-54898306D01*
X59017264Y-54827855D01*
X59017263Y-54827853D01*
X59017262Y-54827847D01*
X58917260Y-54559732D01*
X58859006Y-54453049D01*
X58780122Y-54308583D01*
X58780117Y-54308575D01*
X58608638Y-54079505D01*
X58608622Y-54079487D01*
X58406298Y-53877163D01*
X58406280Y-53877147D01*
X58177210Y-53705668D01*
X58177202Y-53705663D01*
X57926059Y-53568528D01*
X57926060Y-53568528D01*
X57818808Y-53528525D01*
X57657939Y-53468524D01*
X57657936Y-53468523D01*
X57657930Y-53468521D01*
X57378326Y-53407697D01*
X57092894Y-53387283D01*
X57092892Y-53387283D01*
X56807459Y-53407697D01*
X56527855Y-53468521D01*
X56259726Y-53568528D01*
X56008583Y-53705663D01*
X56008575Y-53705668D01*
X55779505Y-53877147D01*
X55779487Y-53877163D01*
X55577163Y-54079487D01*
X55577147Y-54079505D01*
X55405668Y-54308575D01*
X55405663Y-54308583D01*
X55268528Y-54559726D01*
X55168521Y-54827855D01*
X55107697Y-55107459D01*
X55087283Y-55392891D01*
X55087283Y-55392894D01*
X54243393Y-55392894D01*
X54243393Y-50250000D01*
X55894341Y-50250000D01*
X55914936Y-50485403D01*
X55914938Y-50485413D01*
X55976094Y-50713655D01*
X55976096Y-50713659D01*
X55976097Y-50713663D01*
X56026031Y-50820746D01*
X56075964Y-50927828D01*
X56075965Y-50927830D01*
X56211505Y-51121402D01*
X56378597Y-51288494D01*
X56572169Y-51424034D01*
X56572171Y-51424035D01*
X56786337Y-51523903D01*
X57014592Y-51585063D01*
X57191032Y-51600499D01*
X57191033Y-51600500D01*
X57191034Y-51600500D01*
X57308967Y-51600500D01*
X57308967Y-51600499D01*
X57485408Y-51585063D01*
X57713663Y-51523903D01*
X57927829Y-51424035D01*
X58121401Y-51288495D01*
X58288495Y-51121401D01*
X58424035Y-50927830D01*
X58523903Y-50713663D01*
X58585063Y-50485408D01*
X58605659Y-50250000D01*
X110894341Y-50250000D01*
X110914936Y-50485403D01*
X110914938Y-50485413D01*
X110976094Y-50713655D01*
X110976096Y-50713659D01*
X110976097Y-50713663D01*
X111026031Y-50820746D01*
X111075964Y-50927828D01*
X111075965Y-50927830D01*
X111211505Y-51121402D01*
X111378597Y-51288494D01*
X111572169Y-51424034D01*
X111572171Y-51424035D01*
X111786337Y-51523903D01*
X112014592Y-51585063D01*
X112191032Y-51600499D01*
X112191033Y-51600500D01*
X112191034Y-51600500D01*
X112308967Y-51600500D01*
X112308967Y-51600499D01*
X112485408Y-51585063D01*
X112713663Y-51523903D01*
X112927829Y-51424035D01*
X113121401Y-51288495D01*
X113288495Y-51121401D01*
X113424035Y-50927830D01*
X113523903Y-50713663D01*
X113585063Y-50485408D01*
X113605659Y-50250000D01*
X113585063Y-50014592D01*
X113523903Y-49786337D01*
X113424035Y-49572171D01*
X113424034Y-49572169D01*
X113288494Y-49378597D01*
X113121402Y-49211505D01*
X112927830Y-49075965D01*
X112927828Y-49075964D01*
X112820746Y-49026031D01*
X112713663Y-48976097D01*
X112713659Y-48976096D01*
X112713655Y-48976094D01*
X112485413Y-48914938D01*
X112485403Y-48914936D01*
X112308967Y-48899500D01*
X112308966Y-48899500D01*
X112191034Y-48899500D01*
X112191033Y-48899500D01*
X112014596Y-48914936D01*
X112014586Y-48914938D01*
X111786344Y-48976094D01*
X111786335Y-48976098D01*
X111572171Y-49075964D01*
X111572169Y-49075965D01*
X111378597Y-49211505D01*
X111211506Y-49378597D01*
X111211501Y-49378604D01*
X111075967Y-49572165D01*
X111075965Y-49572169D01*
X110976098Y-49786335D01*
X110976094Y-49786344D01*
X110914938Y-50014586D01*
X110914936Y-50014596D01*
X110894341Y-50249999D01*
X110894341Y-50250000D01*
X58605659Y-50250000D01*
X58585063Y-50014592D01*
X58523903Y-49786337D01*
X58424035Y-49572171D01*
X58424034Y-49572169D01*
X58288494Y-49378597D01*
X58121402Y-49211505D01*
X57927830Y-49075965D01*
X57927828Y-49075964D01*
X57820746Y-49026031D01*
X57713663Y-48976097D01*
X57713659Y-48976096D01*
X57713655Y-48976094D01*
X57485413Y-48914938D01*
X57485403Y-48914936D01*
X57308967Y-48899500D01*
X57308966Y-48899500D01*
X57191034Y-48899500D01*
X57191033Y-48899500D01*
X57014596Y-48914936D01*
X57014586Y-48914938D01*
X56786344Y-48976094D01*
X56786335Y-48976098D01*
X56572171Y-49075964D01*
X56572169Y-49075965D01*
X56378597Y-49211505D01*
X56211506Y-49378597D01*
X56211501Y-49378604D01*
X56075967Y-49572165D01*
X56075965Y-49572169D01*
X55976098Y-49786335D01*
X55976094Y-49786344D01*
X55914938Y-50014586D01*
X55914936Y-50014596D01*
X55894341Y-50249999D01*
X55894341Y-50250000D01*
X54243393Y-50250000D01*
X54243393Y-47749858D01*
X54244173Y-47735975D01*
X54244998Y-47728648D01*
X54254353Y-47645625D01*
X54260526Y-47618573D01*
X54288250Y-47539345D01*
X54300287Y-47514350D01*
X54344941Y-47443284D01*
X54362246Y-47421585D01*
X54421585Y-47362246D01*
X54443284Y-47344941D01*
X54514350Y-47300287D01*
X54539345Y-47288250D01*
X54618573Y-47260526D01*
X54645625Y-47254353D01*
X54716407Y-47246377D01*
X54735976Y-47244173D01*
X54749859Y-47243393D01*
X54808789Y-47243393D01*
X114677000Y-47243393D01*
X114677004Y-47243394D01*
G37*
G04 #@! TD.AperFunction*
M02*
