G04 #@! TF.GenerationSoftware,KiCad,Pcbnew,7.0.10*
G04 #@! TF.CreationDate,2024-01-29T09:48:01-06:00*
G04 #@! TF.ProjectId,oled_expander,6f6c6564-5f65-4787-9061-6e6465722e6b,1.1*
G04 #@! TF.SameCoordinates,Original*
G04 #@! TF.FileFunction,Copper,L1,Top*
G04 #@! TF.FilePolarity,Positive*
%FSLAX46Y46*%
G04 Gerber Fmt 4.6, Leading zero omitted, Abs format (unit mm)*
G04 Created by KiCad (PCBNEW 7.0.10) date 2024-01-29 09:48:01*
%MOMM*%
%LPD*%
G01*
G04 APERTURE LIST*
G04 #@! TA.AperFunction,ComponentPad*
%ADD10C,2.000000*%
G04 #@! TD*
G04 #@! TA.AperFunction,ComponentPad*
%ADD11O,2.720000X3.580000*%
G04 #@! TD*
G04 #@! TA.AperFunction,ComponentPad*
%ADD12O,2.696000X3.580000*%
G04 #@! TD*
G04 #@! TA.AperFunction,ComponentPad*
%ADD13R,1.800000X1.800000*%
G04 #@! TD*
G04 #@! TA.AperFunction,ComponentPad*
%ADD14C,1.800000*%
G04 #@! TD*
G04 #@! TA.AperFunction,WasherPad*
%ADD15C,3.000000*%
G04 #@! TD*
G04 #@! TA.AperFunction,ComponentPad*
%ADD16R,1.700000X1.700000*%
G04 #@! TD*
G04 #@! TA.AperFunction,ComponentPad*
%ADD17O,1.700000X1.700000*%
G04 #@! TD*
G04 #@! TA.AperFunction,ViaPad*
%ADD18C,0.600000*%
G04 #@! TD*
G04 #@! TA.AperFunction,Conductor*
%ADD19C,0.200000*%
G04 #@! TD*
G04 APERTURE END LIST*
D10*
X94742893Y-80292893D03*
X88242893Y-80292893D03*
X94742893Y-75792893D03*
X88242893Y-75792893D03*
D11*
X103152893Y-62322893D03*
D12*
X112740893Y-62310893D03*
D13*
X105452893Y-69822893D03*
D14*
X107952893Y-69822893D03*
X110452893Y-69822893D03*
D11*
X86860000Y-62322893D03*
D12*
X96448000Y-62310893D03*
D13*
X89160000Y-69822893D03*
D14*
X91660000Y-69822893D03*
X94160000Y-69822893D03*
D15*
X57092893Y-55392893D03*
X57092893Y-78892893D03*
X80092893Y-55392893D03*
X80092893Y-78892893D03*
D16*
X60972893Y-54662893D03*
D17*
X63512893Y-54662893D03*
X66052893Y-54662893D03*
X68592893Y-54662893D03*
X71132893Y-54662893D03*
X73672893Y-54662893D03*
X76212893Y-54662893D03*
D16*
X98592893Y-85892893D03*
D17*
X96052893Y-85892893D03*
X93512893Y-85892893D03*
X90972893Y-85892893D03*
X88432893Y-85892893D03*
X85892893Y-85892893D03*
X83352893Y-85892893D03*
X80812893Y-85892893D03*
X78272893Y-85892893D03*
X75732893Y-85892893D03*
X73192893Y-85892893D03*
X70652893Y-85892893D03*
D18*
X88492893Y-83392893D03*
X91642893Y-73142893D03*
X77342893Y-67192893D03*
X73242893Y-67192893D03*
D19*
X107952893Y-69822893D02*
X107952893Y-71532893D01*
X107952893Y-71532893D02*
X96892893Y-82592893D01*
X96892893Y-82592893D02*
X86542893Y-82592893D01*
X86542893Y-82592893D02*
X85892893Y-83242893D01*
X85892893Y-83242893D02*
X85892893Y-85892893D01*
X88492893Y-83392893D02*
X88432893Y-83452893D01*
X88432893Y-83452893D02*
X88432893Y-85892893D01*
X91642893Y-73142893D02*
X91660000Y-73125786D01*
X91660000Y-73125786D02*
X91660000Y-69822893D01*
X88242893Y-80292893D02*
X94742893Y-80292893D01*
X85692893Y-80292893D02*
X83352893Y-82632893D01*
X88242893Y-80292893D02*
X85692893Y-80292893D01*
X83352893Y-82632893D02*
X83352893Y-85892893D01*
X73672893Y-54662893D02*
X75732893Y-56722893D01*
X75732893Y-56722893D02*
X75732893Y-85892893D01*
X77342893Y-55792893D02*
X77342893Y-67192893D01*
X73242893Y-67192893D02*
X73242893Y-80242893D01*
X70652893Y-82832893D02*
X70652893Y-85892893D01*
X76212893Y-54662893D02*
X77342893Y-55792893D01*
X73242893Y-80242893D02*
X70652893Y-82832893D01*
G04 #@! TA.AperFunction,Conductor*
G36*
X114677004Y-47243394D02*
G01*
X114735936Y-47243393D01*
X114749819Y-47244173D01*
X114766775Y-47246083D01*
X114840165Y-47254351D01*
X114867228Y-47260528D01*
X114946440Y-47288244D01*
X114971449Y-47300287D01*
X115042504Y-47344934D01*
X115064213Y-47362246D01*
X115123550Y-47421582D01*
X115140862Y-47443291D01*
X115185505Y-47514338D01*
X115197553Y-47539356D01*
X115225268Y-47618559D01*
X115231447Y-47645629D01*
X115241613Y-47735848D01*
X115242393Y-47749733D01*
X115242393Y-82169393D01*
X115242392Y-82169411D01*
X115242392Y-82235937D01*
X115241612Y-82249820D01*
X115231434Y-82340158D01*
X115225256Y-82367229D01*
X115197542Y-82446433D01*
X115185494Y-82471451D01*
X115140851Y-82542500D01*
X115123538Y-82564209D01*
X115064209Y-82623538D01*
X115042500Y-82640851D01*
X114971451Y-82685494D01*
X114946433Y-82697542D01*
X114867229Y-82725256D01*
X114840158Y-82731434D01*
X114749820Y-82741612D01*
X114735937Y-82742392D01*
X114669410Y-82742392D01*
X114669394Y-82742393D01*
X104316392Y-82742393D01*
X104316375Y-82742392D01*
X104308782Y-82742392D01*
X104242889Y-82742393D01*
X104135574Y-82742393D01*
X103957443Y-82768006D01*
X103923122Y-82772941D01*
X103923121Y-82772941D01*
X103923116Y-82772942D01*
X103717175Y-82833413D01*
X103521954Y-82922567D01*
X103521938Y-82922576D01*
X103341381Y-83038614D01*
X103179170Y-83179170D01*
X103038614Y-83341381D01*
X102922576Y-83521938D01*
X102922567Y-83521954D01*
X102833413Y-83717175D01*
X102772942Y-83923116D01*
X102742393Y-84135574D01*
X102742393Y-84242889D01*
X102742392Y-84318769D01*
X102742393Y-84318782D01*
X102742393Y-87669393D01*
X102742392Y-87669411D01*
X102742392Y-87735937D01*
X102741612Y-87749820D01*
X102731434Y-87840158D01*
X102725256Y-87867229D01*
X102697542Y-87946433D01*
X102685494Y-87971451D01*
X102640851Y-88042500D01*
X102623538Y-88064209D01*
X102564209Y-88123538D01*
X102542500Y-88140851D01*
X102471451Y-88185494D01*
X102446433Y-88197542D01*
X102367229Y-88225256D01*
X102340158Y-88231434D01*
X102249820Y-88241612D01*
X102235937Y-88242392D01*
X102169410Y-88242392D01*
X102169394Y-88242393D01*
X67249859Y-88242393D01*
X67235975Y-88241613D01*
X67222715Y-88240119D01*
X67145633Y-88231433D01*
X67118563Y-88225254D01*
X67039360Y-88197539D01*
X67014342Y-88185491D01*
X66943301Y-88140852D01*
X66921593Y-88123540D01*
X66862256Y-88064203D01*
X66844945Y-88042497D01*
X66800299Y-87971441D01*
X66788259Y-87946438D01*
X66760542Y-87867225D01*
X66754365Y-87840158D01*
X66744173Y-87749692D01*
X66743393Y-87735808D01*
X66743394Y-87677004D01*
X66743393Y-87677000D01*
X66743393Y-84308785D01*
X66743394Y-84308782D01*
X66743393Y-84294266D01*
X66743406Y-84294221D01*
X66743406Y-84242889D01*
X66743407Y-84242889D01*
X66743406Y-84135571D01*
X66712859Y-83923119D01*
X66652387Y-83717177D01*
X66650410Y-83712849D01*
X66622792Y-83652374D01*
X66563223Y-83521937D01*
X66480287Y-83392889D01*
X66447182Y-83341377D01*
X66447181Y-83341376D01*
X66447180Y-83341374D01*
X66306622Y-83179164D01*
X66175965Y-83065950D01*
X66144414Y-83038611D01*
X66144405Y-83038604D01*
X65963851Y-82922571D01*
X65963847Y-82922569D01*
X65963844Y-82922567D01*
X65768603Y-82833405D01*
X65768601Y-82833404D01*
X65768598Y-82833403D01*
X65562654Y-82772935D01*
X65374048Y-82745819D01*
X65350208Y-82742392D01*
X65350207Y-82742392D01*
X65242889Y-82742393D01*
X54749859Y-82742393D01*
X54735975Y-82741613D01*
X54722715Y-82740119D01*
X54645633Y-82731433D01*
X54618563Y-82725254D01*
X54539360Y-82697539D01*
X54514342Y-82685491D01*
X54443301Y-82640852D01*
X54421593Y-82623540D01*
X54362256Y-82564203D01*
X54344945Y-82542497D01*
X54300299Y-82471441D01*
X54288259Y-82446438D01*
X54260542Y-82367225D01*
X54254365Y-82340158D01*
X54253226Y-82330052D01*
X54244173Y-82249692D01*
X54243393Y-82235808D01*
X54243394Y-82177004D01*
X54243393Y-82177000D01*
X54243393Y-78892894D01*
X55087283Y-78892894D01*
X55107697Y-79178326D01*
X55168521Y-79457930D01*
X55168523Y-79457936D01*
X55168524Y-79457939D01*
X55261736Y-79707849D01*
X55268528Y-79726059D01*
X55405663Y-79977202D01*
X55405668Y-79977210D01*
X55577147Y-80206280D01*
X55577163Y-80206298D01*
X55779487Y-80408622D01*
X55779505Y-80408638D01*
X56008575Y-80580117D01*
X56008583Y-80580122D01*
X56259726Y-80717257D01*
X56259725Y-80717257D01*
X56259729Y-80717258D01*
X56259732Y-80717260D01*
X56527847Y-80817262D01*
X56527853Y-80817263D01*
X56527855Y-80817264D01*
X56807459Y-80878088D01*
X56807461Y-80878088D01*
X56807465Y-80878089D01*
X57061070Y-80896227D01*
X57092892Y-80898503D01*
X57092893Y-80898503D01*
X57092894Y-80898503D01*
X57124716Y-80896227D01*
X57378321Y-80878089D01*
X57657939Y-80817262D01*
X57926054Y-80717260D01*
X58177208Y-80580119D01*
X58406288Y-80408632D01*
X58608632Y-80206288D01*
X58780119Y-79977208D01*
X58917260Y-79726054D01*
X59017262Y-79457939D01*
X59036803Y-79368110D01*
X59078088Y-79178326D01*
X59078088Y-79178325D01*
X59078089Y-79178321D01*
X59098503Y-78892893D01*
X59078089Y-78607465D01*
X59017262Y-78327847D01*
X58917260Y-78059732D01*
X58780119Y-77808578D01*
X58780117Y-77808575D01*
X58608638Y-77579505D01*
X58608622Y-77579487D01*
X58406298Y-77377163D01*
X58406280Y-77377147D01*
X58177210Y-77205668D01*
X58177202Y-77205663D01*
X57926059Y-77068528D01*
X57926060Y-77068528D01*
X57818808Y-77028525D01*
X57657939Y-76968524D01*
X57657936Y-76968523D01*
X57657930Y-76968521D01*
X57378326Y-76907697D01*
X57092894Y-76887283D01*
X57092892Y-76887283D01*
X56807459Y-76907697D01*
X56527855Y-76968521D01*
X56259726Y-77068528D01*
X56008583Y-77205663D01*
X56008575Y-77205668D01*
X55779505Y-77377147D01*
X55779487Y-77377163D01*
X55577163Y-77579487D01*
X55577147Y-77579505D01*
X55405668Y-77808575D01*
X55405663Y-77808583D01*
X55268528Y-78059726D01*
X55168521Y-78327855D01*
X55107697Y-78607459D01*
X55087283Y-78892891D01*
X55087283Y-78892894D01*
X54243393Y-78892894D01*
X54243393Y-55392894D01*
X55087283Y-55392894D01*
X55107697Y-55678326D01*
X55168521Y-55957930D01*
X55168523Y-55957936D01*
X55168524Y-55957939D01*
X55268526Y-56226054D01*
X55268528Y-56226059D01*
X55405663Y-56477202D01*
X55405668Y-56477210D01*
X55577147Y-56706280D01*
X55577163Y-56706298D01*
X55779487Y-56908622D01*
X55779505Y-56908638D01*
X56008575Y-57080117D01*
X56008583Y-57080122D01*
X56259726Y-57217257D01*
X56259725Y-57217257D01*
X56259729Y-57217258D01*
X56259732Y-57217260D01*
X56527847Y-57317262D01*
X56527853Y-57317263D01*
X56527855Y-57317264D01*
X56807459Y-57378088D01*
X56807461Y-57378088D01*
X56807465Y-57378089D01*
X57061113Y-57396230D01*
X57092892Y-57398503D01*
X57092893Y-57398503D01*
X57092894Y-57398503D01*
X57121488Y-57396457D01*
X57378321Y-57378089D01*
X57657939Y-57317262D01*
X57926054Y-57217260D01*
X58177208Y-57080119D01*
X58406288Y-56908632D01*
X58608632Y-56706288D01*
X58780119Y-56477208D01*
X58917260Y-56226054D01*
X59017262Y-55957939D01*
X59021964Y-55936326D01*
X59078088Y-55678326D01*
X59078088Y-55678325D01*
X59078089Y-55678321D01*
X59086497Y-55560763D01*
X59622393Y-55560763D01*
X59622394Y-55560769D01*
X59628801Y-55620376D01*
X59679095Y-55755221D01*
X59679099Y-55755228D01*
X59765345Y-55870437D01*
X59765348Y-55870440D01*
X59880557Y-55956686D01*
X59880564Y-55956690D01*
X60015410Y-56006984D01*
X60015409Y-56006984D01*
X60022337Y-56007728D01*
X60075020Y-56013393D01*
X61870765Y-56013392D01*
X61930376Y-56006984D01*
X62065224Y-55956689D01*
X62180439Y-55870439D01*
X62266689Y-55755224D01*
X62315895Y-55623294D01*
X62357765Y-55567361D01*
X62423230Y-55542943D01*
X62491503Y-55557794D01*
X62519758Y-55578946D01*
X62641810Y-55700998D01*
X62835314Y-55836493D01*
X63049400Y-55936322D01*
X63049409Y-55936326D01*
X63262893Y-55993527D01*
X63262893Y-55098394D01*
X63370578Y-55147573D01*
X63477130Y-55162893D01*
X63548656Y-55162893D01*
X63655208Y-55147573D01*
X63762893Y-55098394D01*
X63762893Y-55993526D01*
X63976376Y-55936326D01*
X63976385Y-55936322D01*
X64190471Y-55836493D01*
X64383975Y-55700998D01*
X64550998Y-55533975D01*
X64681012Y-55348298D01*
X64735589Y-55304674D01*
X64805088Y-55297481D01*
X64867442Y-55329003D01*
X64884162Y-55348298D01*
X65014398Y-55534294D01*
X65181492Y-55701388D01*
X65278277Y-55769158D01*
X65375058Y-55836925D01*
X65375060Y-55836926D01*
X65375063Y-55836928D01*
X65589230Y-55936796D01*
X65589236Y-55936797D01*
X65589237Y-55936798D01*
X65644178Y-55951519D01*
X65817485Y-55997956D01*
X65993927Y-56013393D01*
X66052892Y-56018552D01*
X66052893Y-56018552D01*
X66052894Y-56018552D01*
X66111859Y-56013393D01*
X66288301Y-55997956D01*
X66516556Y-55936796D01*
X66730723Y-55836928D01*
X66924294Y-55701388D01*
X67091388Y-55534294D01*
X67221318Y-55348735D01*
X67275895Y-55305110D01*
X67345393Y-55297916D01*
X67407748Y-55329439D01*
X67424468Y-55348735D01*
X67554174Y-55533975D01*
X67554398Y-55534294D01*
X67721492Y-55701388D01*
X67818277Y-55769158D01*
X67915058Y-55836925D01*
X67915060Y-55836926D01*
X67915063Y-55836928D01*
X68129230Y-55936796D01*
X68129236Y-55936797D01*
X68129237Y-55936798D01*
X68184178Y-55951519D01*
X68357485Y-55997956D01*
X68533927Y-56013393D01*
X68592892Y-56018552D01*
X68592893Y-56018552D01*
X68592894Y-56018552D01*
X68651859Y-56013393D01*
X68828301Y-55997956D01*
X69056556Y-55936796D01*
X69270723Y-55836928D01*
X69464294Y-55701388D01*
X69631388Y-55534294D01*
X69761318Y-55348735D01*
X69815895Y-55305110D01*
X69885393Y-55297916D01*
X69947748Y-55329439D01*
X69964468Y-55348735D01*
X70094174Y-55533975D01*
X70094398Y-55534294D01*
X70261492Y-55701388D01*
X70358277Y-55769158D01*
X70455058Y-55836925D01*
X70455060Y-55836926D01*
X70455063Y-55836928D01*
X70669230Y-55936796D01*
X70669236Y-55936797D01*
X70669237Y-55936798D01*
X70724178Y-55951519D01*
X70897485Y-55997956D01*
X71073927Y-56013393D01*
X71132892Y-56018552D01*
X71132893Y-56018552D01*
X71132894Y-56018552D01*
X71191859Y-56013393D01*
X71368301Y-55997956D01*
X71596556Y-55936796D01*
X71810723Y-55836928D01*
X72004294Y-55701388D01*
X72171388Y-55534294D01*
X72301318Y-55348735D01*
X72355895Y-55305110D01*
X72425393Y-55297916D01*
X72487748Y-55329439D01*
X72504468Y-55348735D01*
X72634174Y-55533975D01*
X72634398Y-55534294D01*
X72801492Y-55701388D01*
X72898277Y-55769158D01*
X72995058Y-55836925D01*
X72995060Y-55836926D01*
X72995063Y-55836928D01*
X73209230Y-55936796D01*
X73209236Y-55936797D01*
X73209237Y-55936798D01*
X73264178Y-55951519D01*
X73437485Y-55997956D01*
X73613927Y-56013393D01*
X73672892Y-56018552D01*
X73672893Y-56018552D01*
X73672894Y-56018552D01*
X73731859Y-56013393D01*
X73908301Y-55997956D01*
X74036650Y-55963565D01*
X74106499Y-55965228D01*
X74156424Y-55995659D01*
X75096074Y-56935309D01*
X75129559Y-56996632D01*
X75132393Y-57022990D01*
X75132393Y-84603801D01*
X75112708Y-84670840D01*
X75060807Y-84716179D01*
X75055066Y-84718856D01*
X75055062Y-84718858D01*
X74861490Y-84854398D01*
X74694398Y-85021490D01*
X74564468Y-85207051D01*
X74509891Y-85250676D01*
X74440393Y-85257870D01*
X74378038Y-85226347D01*
X74361318Y-85207051D01*
X74231387Y-85021490D01*
X74064295Y-84854399D01*
X74064288Y-84854394D01*
X73870727Y-84718860D01*
X73870723Y-84718858D01*
X73864978Y-84716179D01*
X73656556Y-84618990D01*
X73656552Y-84618989D01*
X73656548Y-84618987D01*
X73428306Y-84557831D01*
X73428296Y-84557829D01*
X73192894Y-84537234D01*
X73192892Y-84537234D01*
X72957489Y-84557829D01*
X72957479Y-84557831D01*
X72729237Y-84618987D01*
X72729228Y-84618991D01*
X72515064Y-84718857D01*
X72515062Y-84718858D01*
X72321490Y-84854398D01*
X72154398Y-85021490D01*
X72024468Y-85207051D01*
X71969891Y-85250676D01*
X71900393Y-85257870D01*
X71838038Y-85226347D01*
X71821318Y-85207051D01*
X71691387Y-85021490D01*
X71524295Y-84854399D01*
X71524288Y-84854394D01*
X71330724Y-84718858D01*
X71330719Y-84718855D01*
X71324984Y-84716181D01*
X71272546Y-84670006D01*
X71253393Y-84603801D01*
X71253393Y-83132989D01*
X71273078Y-83065950D01*
X71289707Y-83045313D01*
X73633937Y-80701082D01*
X73646115Y-80690403D01*
X73671175Y-80671175D01*
X73767429Y-80545734D01*
X73827937Y-80399655D01*
X73843393Y-80282254D01*
X73848575Y-80242893D01*
X73844454Y-80211590D01*
X73843393Y-80195405D01*
X73843393Y-67775305D01*
X73863078Y-67708266D01*
X73870448Y-67697990D01*
X73872703Y-67695160D01*
X73872709Y-67695155D01*
X73968682Y-67542415D01*
X74028261Y-67372148D01*
X74028262Y-67372142D01*
X74048458Y-67192896D01*
X74048458Y-67192889D01*
X74028262Y-67013643D01*
X74028261Y-67013638D01*
X73968682Y-66843371D01*
X73872709Y-66690631D01*
X73745155Y-66563077D01*
X73592416Y-66467104D01*
X73422147Y-66407524D01*
X73422142Y-66407523D01*
X73242897Y-66387328D01*
X73242889Y-66387328D01*
X73063643Y-66407523D01*
X73063638Y-66407524D01*
X72893369Y-66467104D01*
X72740630Y-66563077D01*
X72613077Y-66690630D01*
X72517104Y-66843369D01*
X72457524Y-67013638D01*
X72457523Y-67013643D01*
X72437328Y-67192889D01*
X72437328Y-67192896D01*
X72457523Y-67372142D01*
X72457524Y-67372147D01*
X72517104Y-67542416D01*
X72613078Y-67695156D01*
X72615338Y-67697990D01*
X72616227Y-67700168D01*
X72616782Y-67701051D01*
X72616627Y-67701148D01*
X72641748Y-67762676D01*
X72642393Y-67775305D01*
X72642393Y-79942795D01*
X72622708Y-80009834D01*
X72606074Y-80030476D01*
X70261858Y-82374691D01*
X70249668Y-82385382D01*
X70224609Y-82404611D01*
X70169732Y-82476131D01*
X70128357Y-82530051D01*
X70128354Y-82530056D01*
X70067850Y-82676127D01*
X70067848Y-82676132D01*
X70052149Y-82795382D01*
X70047211Y-82832893D01*
X70048846Y-82845309D01*
X70051332Y-82864194D01*
X70052393Y-82880380D01*
X70052393Y-84603801D01*
X70032708Y-84670840D01*
X69980807Y-84716179D01*
X69975066Y-84718856D01*
X69975062Y-84718858D01*
X69781490Y-84854398D01*
X69614398Y-85021490D01*
X69478858Y-85215062D01*
X69478857Y-85215064D01*
X69378991Y-85429228D01*
X69378987Y-85429237D01*
X69317831Y-85657479D01*
X69317829Y-85657489D01*
X69297234Y-85892892D01*
X69297234Y-85892893D01*
X69317829Y-86128296D01*
X69317831Y-86128306D01*
X69378987Y-86356548D01*
X69378989Y-86356552D01*
X69378990Y-86356556D01*
X69458694Y-86527481D01*
X69478858Y-86570723D01*
X69478860Y-86570727D01*
X69587174Y-86725414D01*
X69614398Y-86764294D01*
X69781492Y-86931388D01*
X69878277Y-86999158D01*
X69975058Y-87066925D01*
X69975060Y-87066926D01*
X69975063Y-87066928D01*
X70189230Y-87166796D01*
X70417485Y-87227956D01*
X70593927Y-87243393D01*
X70652892Y-87248552D01*
X70652893Y-87248552D01*
X70652894Y-87248552D01*
X70711859Y-87243393D01*
X70888301Y-87227956D01*
X71116556Y-87166796D01*
X71330723Y-87066928D01*
X71524294Y-86931388D01*
X71691388Y-86764294D01*
X71821318Y-86578735D01*
X71875895Y-86535110D01*
X71945393Y-86527916D01*
X72007748Y-86559439D01*
X72024468Y-86578735D01*
X72154393Y-86764288D01*
X72154398Y-86764294D01*
X72321492Y-86931388D01*
X72418277Y-86999158D01*
X72515058Y-87066925D01*
X72515060Y-87066926D01*
X72515063Y-87066928D01*
X72729230Y-87166796D01*
X72957485Y-87227956D01*
X73133927Y-87243393D01*
X73192892Y-87248552D01*
X73192893Y-87248552D01*
X73192894Y-87248552D01*
X73251859Y-87243393D01*
X73428301Y-87227956D01*
X73656556Y-87166796D01*
X73870723Y-87066928D01*
X74064294Y-86931388D01*
X74231388Y-86764294D01*
X74361318Y-86578735D01*
X74415895Y-86535110D01*
X74485393Y-86527916D01*
X74547748Y-86559439D01*
X74564468Y-86578735D01*
X74694393Y-86764288D01*
X74694398Y-86764294D01*
X74861492Y-86931388D01*
X74958277Y-86999158D01*
X75055058Y-87066925D01*
X75055060Y-87066926D01*
X75055063Y-87066928D01*
X75269230Y-87166796D01*
X75497485Y-87227956D01*
X75673927Y-87243393D01*
X75732892Y-87248552D01*
X75732893Y-87248552D01*
X75732894Y-87248552D01*
X75791859Y-87243393D01*
X75968301Y-87227956D01*
X76196556Y-87166796D01*
X76410723Y-87066928D01*
X76604294Y-86931388D01*
X76771388Y-86764294D01*
X76901318Y-86578735D01*
X76955895Y-86535110D01*
X77025393Y-86527916D01*
X77087748Y-86559439D01*
X77104468Y-86578735D01*
X77234393Y-86764288D01*
X77234398Y-86764294D01*
X77401492Y-86931388D01*
X77498277Y-86999158D01*
X77595058Y-87066925D01*
X77595060Y-87066926D01*
X77595063Y-87066928D01*
X77809230Y-87166796D01*
X78037485Y-87227956D01*
X78213927Y-87243393D01*
X78272892Y-87248552D01*
X78272893Y-87248552D01*
X78272894Y-87248552D01*
X78331859Y-87243393D01*
X78508301Y-87227956D01*
X78736556Y-87166796D01*
X78950723Y-87066928D01*
X79144294Y-86931388D01*
X79311388Y-86764294D01*
X79441318Y-86578735D01*
X79495895Y-86535110D01*
X79565393Y-86527916D01*
X79627748Y-86559439D01*
X79644468Y-86578735D01*
X79774393Y-86764288D01*
X79774398Y-86764294D01*
X79941492Y-86931388D01*
X80038277Y-86999158D01*
X80135058Y-87066925D01*
X80135060Y-87066926D01*
X80135063Y-87066928D01*
X80349230Y-87166796D01*
X80577485Y-87227956D01*
X80753927Y-87243393D01*
X80812892Y-87248552D01*
X80812893Y-87248552D01*
X80812894Y-87248552D01*
X80871859Y-87243393D01*
X81048301Y-87227956D01*
X81276556Y-87166796D01*
X81490723Y-87066928D01*
X81684294Y-86931388D01*
X81851388Y-86764294D01*
X81981318Y-86578735D01*
X82035895Y-86535110D01*
X82105393Y-86527916D01*
X82167748Y-86559439D01*
X82184468Y-86578735D01*
X82314393Y-86764288D01*
X82314398Y-86764294D01*
X82481492Y-86931388D01*
X82578277Y-86999158D01*
X82675058Y-87066925D01*
X82675060Y-87066926D01*
X82675063Y-87066928D01*
X82889230Y-87166796D01*
X83117485Y-87227956D01*
X83293927Y-87243393D01*
X83352892Y-87248552D01*
X83352893Y-87248552D01*
X83352894Y-87248552D01*
X83411859Y-87243393D01*
X83588301Y-87227956D01*
X83816556Y-87166796D01*
X84030723Y-87066928D01*
X84224294Y-86931388D01*
X84391388Y-86764294D01*
X84521318Y-86578735D01*
X84575895Y-86535110D01*
X84645393Y-86527916D01*
X84707748Y-86559439D01*
X84724468Y-86578735D01*
X84854393Y-86764288D01*
X84854398Y-86764294D01*
X85021492Y-86931388D01*
X85118277Y-86999158D01*
X85215058Y-87066925D01*
X85215060Y-87066926D01*
X85215063Y-87066928D01*
X85429230Y-87166796D01*
X85657485Y-87227956D01*
X85833927Y-87243393D01*
X85892892Y-87248552D01*
X85892893Y-87248552D01*
X85892894Y-87248552D01*
X85951859Y-87243393D01*
X86128301Y-87227956D01*
X86356556Y-87166796D01*
X86570723Y-87066928D01*
X86764294Y-86931388D01*
X86931388Y-86764294D01*
X87061318Y-86578735D01*
X87115895Y-86535110D01*
X87185393Y-86527916D01*
X87247748Y-86559439D01*
X87264468Y-86578735D01*
X87394393Y-86764288D01*
X87394398Y-86764294D01*
X87561492Y-86931388D01*
X87658277Y-86999158D01*
X87755058Y-87066925D01*
X87755060Y-87066926D01*
X87755063Y-87066928D01*
X87969230Y-87166796D01*
X88197485Y-87227956D01*
X88373927Y-87243393D01*
X88432892Y-87248552D01*
X88432893Y-87248552D01*
X88432894Y-87248552D01*
X88491859Y-87243393D01*
X88668301Y-87227956D01*
X88896556Y-87166796D01*
X89110723Y-87066928D01*
X89304294Y-86931388D01*
X89471388Y-86764294D01*
X89601318Y-86578735D01*
X89655895Y-86535110D01*
X89725393Y-86527916D01*
X89787748Y-86559439D01*
X89804468Y-86578735D01*
X89934393Y-86764288D01*
X89934398Y-86764294D01*
X90101492Y-86931388D01*
X90198277Y-86999158D01*
X90295058Y-87066925D01*
X90295060Y-87066926D01*
X90295063Y-87066928D01*
X90509230Y-87166796D01*
X90737485Y-87227956D01*
X90913927Y-87243393D01*
X90972892Y-87248552D01*
X90972893Y-87248552D01*
X90972894Y-87248552D01*
X91031859Y-87243393D01*
X91208301Y-87227956D01*
X91436556Y-87166796D01*
X91650723Y-87066928D01*
X91844294Y-86931388D01*
X92011388Y-86764294D01*
X92141623Y-86578298D01*
X92196200Y-86534674D01*
X92265698Y-86527480D01*
X92328053Y-86559003D01*
X92344772Y-86578298D01*
X92474783Y-86763971D01*
X92641810Y-86930998D01*
X92835314Y-87066493D01*
X93049400Y-87166322D01*
X93049409Y-87166326D01*
X93262893Y-87223527D01*
X93262893Y-86328394D01*
X93370578Y-86377573D01*
X93477130Y-86392893D01*
X93548656Y-86392893D01*
X93655208Y-86377573D01*
X93762893Y-86328394D01*
X93762893Y-87223526D01*
X93976376Y-87166326D01*
X93976385Y-87166322D01*
X94190471Y-87066493D01*
X94383975Y-86930998D01*
X94550998Y-86763975D01*
X94681012Y-86578298D01*
X94735589Y-86534674D01*
X94805088Y-86527481D01*
X94867442Y-86559003D01*
X94884162Y-86578298D01*
X95014398Y-86764294D01*
X95181492Y-86931388D01*
X95278277Y-86999158D01*
X95375058Y-87066925D01*
X95375060Y-87066926D01*
X95375063Y-87066928D01*
X95589230Y-87166796D01*
X95817485Y-87227956D01*
X95993927Y-87243393D01*
X96052892Y-87248552D01*
X96052893Y-87248552D01*
X96052894Y-87248552D01*
X96111859Y-87243393D01*
X96288301Y-87227956D01*
X96516556Y-87166796D01*
X96730723Y-87066928D01*
X96924294Y-86931388D01*
X97046222Y-86809459D01*
X97107541Y-86775977D01*
X97177233Y-86780961D01*
X97233167Y-86822832D01*
X97250082Y-86853810D01*
X97299095Y-86985221D01*
X97299099Y-86985228D01*
X97385345Y-87100437D01*
X97385348Y-87100440D01*
X97500557Y-87186686D01*
X97500564Y-87186690D01*
X97635410Y-87236984D01*
X97635409Y-87236984D01*
X97642337Y-87237728D01*
X97695020Y-87243393D01*
X99490765Y-87243392D01*
X99550376Y-87236984D01*
X99685224Y-87186689D01*
X99800439Y-87100439D01*
X99886689Y-86985224D01*
X99936984Y-86850376D01*
X99943393Y-86790766D01*
X99943392Y-84995021D01*
X99936984Y-84935410D01*
X99935703Y-84931976D01*
X99886690Y-84800564D01*
X99886686Y-84800557D01*
X99800440Y-84685348D01*
X99800437Y-84685345D01*
X99685228Y-84599099D01*
X99685221Y-84599095D01*
X99550375Y-84548801D01*
X99550376Y-84548801D01*
X99490776Y-84542394D01*
X99490774Y-84542393D01*
X99490766Y-84542393D01*
X99490757Y-84542393D01*
X97695022Y-84542393D01*
X97695016Y-84542394D01*
X97635409Y-84548801D01*
X97500564Y-84599095D01*
X97500557Y-84599099D01*
X97385348Y-84685345D01*
X97385345Y-84685348D01*
X97299099Y-84800557D01*
X97299096Y-84800562D01*
X97250082Y-84931976D01*
X97208210Y-84987909D01*
X97142746Y-85012326D01*
X97074473Y-84997474D01*
X97046219Y-84976323D01*
X96924295Y-84854399D01*
X96924288Y-84854394D01*
X96730727Y-84718860D01*
X96730723Y-84718858D01*
X96724978Y-84716179D01*
X96516556Y-84618990D01*
X96516552Y-84618989D01*
X96516548Y-84618987D01*
X96288306Y-84557831D01*
X96288296Y-84557829D01*
X96052894Y-84537234D01*
X96052892Y-84537234D01*
X95817489Y-84557829D01*
X95817479Y-84557831D01*
X95589237Y-84618987D01*
X95589228Y-84618991D01*
X95375064Y-84718857D01*
X95375062Y-84718858D01*
X95181490Y-84854398D01*
X95014401Y-85021487D01*
X94884162Y-85207488D01*
X94829585Y-85251112D01*
X94760086Y-85258305D01*
X94697732Y-85226783D01*
X94681012Y-85207487D01*
X94551006Y-85021819D01*
X94551001Y-85021813D01*
X94383975Y-84854787D01*
X94190471Y-84719292D01*
X93976385Y-84619463D01*
X93976379Y-84619460D01*
X93762893Y-84562257D01*
X93762893Y-85457391D01*
X93655208Y-85408213D01*
X93548656Y-85392893D01*
X93477130Y-85392893D01*
X93370578Y-85408213D01*
X93262893Y-85457391D01*
X93262893Y-84562257D01*
X93262892Y-84562257D01*
X93049406Y-84619460D01*
X93049400Y-84619463D01*
X92835315Y-84719292D01*
X92835313Y-84719293D01*
X92641819Y-84854779D01*
X92641813Y-84854784D01*
X92474784Y-85021813D01*
X92474783Y-85021815D01*
X92344773Y-85207488D01*
X92290196Y-85251112D01*
X92220697Y-85258305D01*
X92158343Y-85226783D01*
X92141623Y-85207487D01*
X92011387Y-85021490D01*
X91844295Y-84854399D01*
X91844288Y-84854394D01*
X91650727Y-84718860D01*
X91650723Y-84718858D01*
X91644978Y-84716179D01*
X91436556Y-84618990D01*
X91436552Y-84618989D01*
X91436548Y-84618987D01*
X91208306Y-84557831D01*
X91208296Y-84557829D01*
X90972894Y-84537234D01*
X90972892Y-84537234D01*
X90737489Y-84557829D01*
X90737479Y-84557831D01*
X90509237Y-84618987D01*
X90509228Y-84618991D01*
X90295064Y-84718857D01*
X90295062Y-84718858D01*
X90101490Y-84854398D01*
X89934398Y-85021490D01*
X89804468Y-85207051D01*
X89749891Y-85250676D01*
X89680393Y-85257870D01*
X89618038Y-85226347D01*
X89601318Y-85207051D01*
X89471387Y-85021490D01*
X89304295Y-84854399D01*
X89304288Y-84854394D01*
X89110724Y-84718858D01*
X89110719Y-84718855D01*
X89104984Y-84716181D01*
X89052546Y-84670006D01*
X89033393Y-84603801D01*
X89033393Y-84035833D01*
X89053078Y-83968794D01*
X89069712Y-83948152D01*
X89094751Y-83923113D01*
X89122709Y-83895155D01*
X89218682Y-83742415D01*
X89278261Y-83572148D01*
X89278262Y-83572142D01*
X89298458Y-83392896D01*
X89298458Y-83392889D01*
X89291516Y-83331276D01*
X89303571Y-83262454D01*
X89350920Y-83211075D01*
X89414736Y-83193393D01*
X96845406Y-83193393D01*
X96861590Y-83194453D01*
X96892893Y-83198575D01*
X96892894Y-83198575D01*
X96945147Y-83191695D01*
X97049655Y-83177937D01*
X97195734Y-83117429D01*
X97231412Y-83090052D01*
X97321175Y-83021175D01*
X97340402Y-82996116D01*
X97351083Y-82983936D01*
X108343936Y-71991083D01*
X108356116Y-71980402D01*
X108381175Y-71961175D01*
X108477429Y-71835734D01*
X108537937Y-71689655D01*
X108553393Y-71572254D01*
X108558575Y-71532893D01*
X108554454Y-71501590D01*
X108553393Y-71485405D01*
X108553393Y-71164236D01*
X108573078Y-71097197D01*
X108618376Y-71055181D01*
X108721519Y-70999363D01*
X108904677Y-70856806D01*
X109061872Y-70686046D01*
X109099084Y-70629089D01*
X109152230Y-70583732D01*
X109221462Y-70574308D01*
X109284797Y-70603810D01*
X109306702Y-70629089D01*
X109343909Y-70686040D01*
X109343912Y-70686044D01*
X109343914Y-70686046D01*
X109501109Y-70856806D01*
X109501112Y-70856808D01*
X109501115Y-70856811D01*
X109684258Y-70999357D01*
X109684264Y-70999361D01*
X109684267Y-70999363D01*
X109888390Y-71109829D01*
X110002380Y-71148961D01*
X110107908Y-71185190D01*
X110107910Y-71185190D01*
X110107912Y-71185191D01*
X110336844Y-71223393D01*
X110336845Y-71223393D01*
X110568941Y-71223393D01*
X110568942Y-71223393D01*
X110797874Y-71185191D01*
X111017396Y-71109829D01*
X111221519Y-70999363D01*
X111404677Y-70856806D01*
X111561872Y-70686046D01*
X111688817Y-70491742D01*
X111782050Y-70279193D01*
X111839027Y-70054198D01*
X111858193Y-69822893D01*
X111858193Y-69822886D01*
X111839028Y-69591595D01*
X111839026Y-69591584D01*
X111782050Y-69366592D01*
X111688817Y-69154044D01*
X111561876Y-68959745D01*
X111561873Y-68959742D01*
X111561872Y-68959740D01*
X111404677Y-68788980D01*
X111404672Y-68788976D01*
X111404670Y-68788974D01*
X111221527Y-68646428D01*
X111221521Y-68646424D01*
X111017397Y-68535957D01*
X111017388Y-68535954D01*
X110797877Y-68460595D01*
X110607343Y-68428801D01*
X110568942Y-68422393D01*
X110336844Y-68422393D01*
X110298443Y-68428801D01*
X110107908Y-68460595D01*
X109888397Y-68535954D01*
X109888388Y-68535957D01*
X109684264Y-68646424D01*
X109684258Y-68646428D01*
X109501115Y-68788974D01*
X109501112Y-68788977D01*
X109501109Y-68788979D01*
X109501109Y-68788980D01*
X109353393Y-68949444D01*
X109343908Y-68959747D01*
X109306701Y-69016697D01*
X109253555Y-69062054D01*
X109184323Y-69071477D01*
X109120988Y-69041975D01*
X109099085Y-69016697D01*
X109061877Y-68959747D01*
X109061875Y-68959745D01*
X109061872Y-68959740D01*
X108904677Y-68788980D01*
X108904672Y-68788976D01*
X108904670Y-68788974D01*
X108721527Y-68646428D01*
X108721521Y-68646424D01*
X108517397Y-68535957D01*
X108517388Y-68535954D01*
X108297877Y-68460595D01*
X108107343Y-68428801D01*
X108068942Y-68422393D01*
X107836844Y-68422393D01*
X107798443Y-68428801D01*
X107607908Y-68460595D01*
X107388397Y-68535954D01*
X107388388Y-68535957D01*
X107184265Y-68646424D01*
X107007329Y-68784138D01*
X106942335Y-68809780D01*
X106873795Y-68796213D01*
X106823470Y-68747745D01*
X106814985Y-68729616D01*
X106796691Y-68680566D01*
X106796686Y-68680557D01*
X106710440Y-68565348D01*
X106710437Y-68565345D01*
X106595228Y-68479099D01*
X106595221Y-68479095D01*
X106460375Y-68428801D01*
X106460376Y-68428801D01*
X106400776Y-68422394D01*
X106400774Y-68422393D01*
X106400766Y-68422393D01*
X106400757Y-68422393D01*
X104505022Y-68422393D01*
X104505016Y-68422394D01*
X104445409Y-68428801D01*
X104310564Y-68479095D01*
X104310557Y-68479099D01*
X104195348Y-68565345D01*
X104195345Y-68565348D01*
X104109099Y-68680557D01*
X104109095Y-68680564D01*
X104058801Y-68815410D01*
X104052394Y-68875009D01*
X104052393Y-68875028D01*
X104052393Y-70770763D01*
X104052394Y-70770769D01*
X104058801Y-70830376D01*
X104109095Y-70965221D01*
X104109099Y-70965228D01*
X104195345Y-71080437D01*
X104195348Y-71080440D01*
X104310557Y-71166686D01*
X104310564Y-71166690D01*
X104445410Y-71216984D01*
X104445409Y-71216984D01*
X104452337Y-71217728D01*
X104505020Y-71223393D01*
X106400765Y-71223392D01*
X106460376Y-71216984D01*
X106595224Y-71166689D01*
X106710439Y-71080439D01*
X106796689Y-70965224D01*
X106814985Y-70916167D01*
X106856854Y-70860235D01*
X106922318Y-70835817D01*
X106990592Y-70850668D01*
X107007329Y-70861648D01*
X107184258Y-70999357D01*
X107184269Y-70999364D01*
X107287410Y-71055181D01*
X107337001Y-71104400D01*
X107352393Y-71164236D01*
X107352393Y-71232796D01*
X107332708Y-71299835D01*
X107316074Y-71320477D01*
X96680477Y-81956074D01*
X96619154Y-81989559D01*
X96592796Y-81992393D01*
X95156710Y-81992393D01*
X95089671Y-81972708D01*
X95043916Y-81919904D01*
X95033972Y-81850746D01*
X95062997Y-81787190D01*
X95116447Y-81751112D01*
X95220026Y-81715552D01*
X95347703Y-81671721D01*
X95566402Y-81553367D01*
X95762637Y-81400631D01*
X95931057Y-81217678D01*
X96067066Y-81009500D01*
X96166956Y-80781774D01*
X96228001Y-80540714D01*
X96238946Y-80408632D01*
X96248536Y-80292898D01*
X96248536Y-80292887D01*
X96228002Y-80045080D01*
X96228000Y-80045068D01*
X96166956Y-79804011D01*
X96067066Y-79576286D01*
X95931059Y-79368110D01*
X95909450Y-79344637D01*
X95762637Y-79185155D01*
X95566402Y-79032419D01*
X95566400Y-79032418D01*
X95566399Y-79032417D01*
X95347704Y-78914065D01*
X95347695Y-78914062D01*
X95112509Y-78833322D01*
X94867228Y-78792393D01*
X94618558Y-78792393D01*
X94373276Y-78833322D01*
X94138090Y-78914062D01*
X94138081Y-78914065D01*
X93919386Y-79032417D01*
X93723150Y-79185154D01*
X93554726Y-79368110D01*
X93418720Y-79576284D01*
X93400333Y-79618204D01*
X93355376Y-79671689D01*
X93288640Y-79692379D01*
X93286777Y-79692393D01*
X89699009Y-79692393D01*
X89631970Y-79672708D01*
X89586215Y-79619904D01*
X89585453Y-79618204D01*
X89567065Y-79576284D01*
X89431059Y-79368110D01*
X89409450Y-79344637D01*
X89262637Y-79185155D01*
X89066402Y-79032419D01*
X89066400Y-79032418D01*
X89066399Y-79032417D01*
X88847704Y-78914065D01*
X88847695Y-78914062D01*
X88612509Y-78833322D01*
X88367228Y-78792393D01*
X88118558Y-78792393D01*
X87873276Y-78833322D01*
X87638090Y-78914062D01*
X87638081Y-78914065D01*
X87419386Y-79032417D01*
X87223150Y-79185154D01*
X87054726Y-79368110D01*
X86918720Y-79576284D01*
X86900333Y-79618204D01*
X86855376Y-79671689D01*
X86788640Y-79692379D01*
X86786777Y-79692393D01*
X85740380Y-79692393D01*
X85724195Y-79691332D01*
X85692893Y-79687211D01*
X85653532Y-79692393D01*
X85536132Y-79707848D01*
X85536130Y-79707849D01*
X85390050Y-79768357D01*
X85264611Y-79864609D01*
X85245382Y-79889668D01*
X85234691Y-79901858D01*
X82961858Y-82174691D01*
X82949668Y-82185382D01*
X82924609Y-82204611D01*
X82867767Y-82278691D01*
X82828357Y-82330051D01*
X82828354Y-82330056D01*
X82767850Y-82476127D01*
X82767849Y-82476131D01*
X82748443Y-82623538D01*
X82747211Y-82632893D01*
X82748259Y-82640851D01*
X82751332Y-82664194D01*
X82752393Y-82680380D01*
X82752393Y-84603801D01*
X82732708Y-84670840D01*
X82680807Y-84716179D01*
X82675066Y-84718856D01*
X82675062Y-84718858D01*
X82481490Y-84854398D01*
X82314398Y-85021490D01*
X82184468Y-85207051D01*
X82129891Y-85250676D01*
X82060393Y-85257870D01*
X81998038Y-85226347D01*
X81981318Y-85207051D01*
X81851387Y-85021490D01*
X81684295Y-84854399D01*
X81684288Y-84854394D01*
X81490727Y-84718860D01*
X81490723Y-84718858D01*
X81484978Y-84716179D01*
X81276556Y-84618990D01*
X81276552Y-84618989D01*
X81276548Y-84618987D01*
X81048306Y-84557831D01*
X81048296Y-84557829D01*
X80812894Y-84537234D01*
X80812892Y-84537234D01*
X80577489Y-84557829D01*
X80577479Y-84557831D01*
X80349237Y-84618987D01*
X80349228Y-84618991D01*
X80135064Y-84718857D01*
X80135062Y-84718858D01*
X79941490Y-84854398D01*
X79774398Y-85021490D01*
X79644468Y-85207051D01*
X79589891Y-85250676D01*
X79520393Y-85257870D01*
X79458038Y-85226347D01*
X79441318Y-85207051D01*
X79311387Y-85021490D01*
X79144295Y-84854399D01*
X79144288Y-84854394D01*
X78950727Y-84718860D01*
X78950723Y-84718858D01*
X78944978Y-84716179D01*
X78736556Y-84618990D01*
X78736552Y-84618989D01*
X78736548Y-84618987D01*
X78508306Y-84557831D01*
X78508296Y-84557829D01*
X78272894Y-84537234D01*
X78272892Y-84537234D01*
X78037489Y-84557829D01*
X78037479Y-84557831D01*
X77809237Y-84618987D01*
X77809228Y-84618991D01*
X77595064Y-84718857D01*
X77595062Y-84718858D01*
X77401490Y-84854398D01*
X77234398Y-85021490D01*
X77104468Y-85207051D01*
X77049891Y-85250676D01*
X76980393Y-85257870D01*
X76918038Y-85226347D01*
X76901318Y-85207051D01*
X76771387Y-85021490D01*
X76604295Y-84854399D01*
X76604288Y-84854394D01*
X76410724Y-84718858D01*
X76410719Y-84718855D01*
X76404984Y-84716181D01*
X76352546Y-84670006D01*
X76333393Y-84603801D01*
X76333393Y-78892894D01*
X78087283Y-78892894D01*
X78107697Y-79178326D01*
X78168521Y-79457930D01*
X78168523Y-79457936D01*
X78168524Y-79457939D01*
X78261736Y-79707849D01*
X78268528Y-79726059D01*
X78405663Y-79977202D01*
X78405668Y-79977210D01*
X78577147Y-80206280D01*
X78577163Y-80206298D01*
X78779487Y-80408622D01*
X78779505Y-80408638D01*
X79008575Y-80580117D01*
X79008583Y-80580122D01*
X79259726Y-80717257D01*
X79259725Y-80717257D01*
X79259729Y-80717258D01*
X79259732Y-80717260D01*
X79527847Y-80817262D01*
X79527853Y-80817263D01*
X79527855Y-80817264D01*
X79807459Y-80878088D01*
X79807461Y-80878088D01*
X79807465Y-80878089D01*
X80061070Y-80896227D01*
X80092892Y-80898503D01*
X80092893Y-80898503D01*
X80092894Y-80898503D01*
X80124716Y-80896227D01*
X80378321Y-80878089D01*
X80657939Y-80817262D01*
X80926054Y-80717260D01*
X81177208Y-80580119D01*
X81406288Y-80408632D01*
X81608632Y-80206288D01*
X81780119Y-79977208D01*
X81917260Y-79726054D01*
X82017262Y-79457939D01*
X82036803Y-79368110D01*
X82078088Y-79178326D01*
X82078088Y-79178325D01*
X82078089Y-79178321D01*
X82098503Y-78892893D01*
X82078089Y-78607465D01*
X82017262Y-78327847D01*
X81917260Y-78059732D01*
X81780119Y-77808578D01*
X81780117Y-77808575D01*
X81608638Y-77579505D01*
X81608622Y-77579487D01*
X81406298Y-77377163D01*
X81406280Y-77377147D01*
X81177210Y-77205668D01*
X81177202Y-77205663D01*
X80926059Y-77068528D01*
X80926060Y-77068528D01*
X80818808Y-77028525D01*
X80657939Y-76968524D01*
X80657936Y-76968523D01*
X80657930Y-76968521D01*
X80378326Y-76907697D01*
X80092894Y-76887283D01*
X80092892Y-76887283D01*
X79807459Y-76907697D01*
X79527855Y-76968521D01*
X79259726Y-77068528D01*
X79008583Y-77205663D01*
X79008575Y-77205668D01*
X78779505Y-77377147D01*
X78779487Y-77377163D01*
X78577163Y-77579487D01*
X78577147Y-77579505D01*
X78405668Y-77808575D01*
X78405663Y-77808583D01*
X78268528Y-78059726D01*
X78168521Y-78327855D01*
X78107697Y-78607459D01*
X78087283Y-78892891D01*
X78087283Y-78892894D01*
X76333393Y-78892894D01*
X76333393Y-75792898D01*
X86737250Y-75792898D01*
X86757783Y-76040705D01*
X86757785Y-76040717D01*
X86818829Y-76281774D01*
X86918719Y-76509499D01*
X87054726Y-76717675D01*
X87054729Y-76717678D01*
X87223149Y-76900631D01*
X87419384Y-77053367D01*
X87638083Y-77171721D01*
X87873279Y-77252464D01*
X88118558Y-77293393D01*
X88367228Y-77293393D01*
X88612507Y-77252464D01*
X88847703Y-77171721D01*
X89066402Y-77053367D01*
X89262637Y-76900631D01*
X89431057Y-76717678D01*
X89567066Y-76509500D01*
X89666956Y-76281774D01*
X89728001Y-76040714D01*
X89748536Y-75792898D01*
X93237250Y-75792898D01*
X93257783Y-76040705D01*
X93257785Y-76040717D01*
X93318829Y-76281774D01*
X93418719Y-76509499D01*
X93554726Y-76717675D01*
X93554729Y-76717678D01*
X93723149Y-76900631D01*
X93919384Y-77053367D01*
X94138083Y-77171721D01*
X94373279Y-77252464D01*
X94618558Y-77293393D01*
X94867228Y-77293393D01*
X95112507Y-77252464D01*
X95347703Y-77171721D01*
X95566402Y-77053367D01*
X95762637Y-76900631D01*
X95931057Y-76717678D01*
X96067066Y-76509500D01*
X96166956Y-76281774D01*
X96228001Y-76040714D01*
X96248536Y-75792893D01*
X96228001Y-75545072D01*
X96166956Y-75304012D01*
X96067066Y-75076286D01*
X95931059Y-74868110D01*
X95909450Y-74844637D01*
X95762637Y-74685155D01*
X95566402Y-74532419D01*
X95566400Y-74532418D01*
X95566399Y-74532417D01*
X95347704Y-74414065D01*
X95347695Y-74414062D01*
X95112509Y-74333322D01*
X94867228Y-74292393D01*
X94618558Y-74292393D01*
X94373276Y-74333322D01*
X94138090Y-74414062D01*
X94138081Y-74414065D01*
X93919386Y-74532417D01*
X93723150Y-74685154D01*
X93554726Y-74868110D01*
X93418719Y-75076286D01*
X93318829Y-75304011D01*
X93257785Y-75545068D01*
X93257783Y-75545080D01*
X93237250Y-75792887D01*
X93237250Y-75792898D01*
X89748536Y-75792898D01*
X89748536Y-75792893D01*
X89728001Y-75545072D01*
X89666956Y-75304012D01*
X89567066Y-75076286D01*
X89431059Y-74868110D01*
X89409450Y-74844637D01*
X89262637Y-74685155D01*
X89066402Y-74532419D01*
X89066400Y-74532418D01*
X89066399Y-74532417D01*
X88847704Y-74414065D01*
X88847695Y-74414062D01*
X88612509Y-74333322D01*
X88367228Y-74292393D01*
X88118558Y-74292393D01*
X87873276Y-74333322D01*
X87638090Y-74414062D01*
X87638081Y-74414065D01*
X87419386Y-74532417D01*
X87223150Y-74685154D01*
X87054726Y-74868110D01*
X86918719Y-75076286D01*
X86818829Y-75304011D01*
X86757785Y-75545068D01*
X86757783Y-75545080D01*
X86737250Y-75792887D01*
X86737250Y-75792898D01*
X76333393Y-75792898D01*
X76333393Y-70770763D01*
X87759500Y-70770763D01*
X87759501Y-70770769D01*
X87765908Y-70830376D01*
X87816202Y-70965221D01*
X87816206Y-70965228D01*
X87902452Y-71080437D01*
X87902455Y-71080440D01*
X88017664Y-71166686D01*
X88017671Y-71166690D01*
X88152517Y-71216984D01*
X88152516Y-71216984D01*
X88159444Y-71217728D01*
X88212127Y-71223393D01*
X90107872Y-71223392D01*
X90167483Y-71216984D01*
X90302331Y-71166689D01*
X90417546Y-71080439D01*
X90503796Y-70965224D01*
X90522092Y-70916167D01*
X90563961Y-70860235D01*
X90629425Y-70835817D01*
X90697699Y-70850668D01*
X90714436Y-70861648D01*
X90891365Y-70999357D01*
X90891376Y-70999364D01*
X90994517Y-71055181D01*
X91044108Y-71104400D01*
X91059500Y-71164236D01*
X91059500Y-72542846D01*
X91039815Y-72609885D01*
X91023181Y-72630527D01*
X91013077Y-72640630D01*
X90917104Y-72793369D01*
X90857524Y-72963638D01*
X90857523Y-72963643D01*
X90837328Y-73142889D01*
X90837328Y-73142896D01*
X90857523Y-73322142D01*
X90857524Y-73322147D01*
X90917104Y-73492416D01*
X91013077Y-73645155D01*
X91140631Y-73772709D01*
X91293371Y-73868682D01*
X91463638Y-73928261D01*
X91463643Y-73928262D01*
X91642889Y-73948458D01*
X91642893Y-73948458D01*
X91642897Y-73948458D01*
X91822142Y-73928262D01*
X91822145Y-73928261D01*
X91822148Y-73928261D01*
X91992415Y-73868682D01*
X92145155Y-73772709D01*
X92272709Y-73645155D01*
X92368682Y-73492415D01*
X92428261Y-73322148D01*
X92448458Y-73142893D01*
X92428261Y-72963638D01*
X92368682Y-72793371D01*
X92279506Y-72651448D01*
X92260500Y-72585476D01*
X92260500Y-71164236D01*
X92280185Y-71097197D01*
X92325483Y-71055181D01*
X92428626Y-70999363D01*
X92611784Y-70856806D01*
X92768979Y-70686046D01*
X92806191Y-70629089D01*
X92859337Y-70583732D01*
X92928569Y-70574308D01*
X92991904Y-70603810D01*
X93013809Y-70629089D01*
X93051016Y-70686040D01*
X93051019Y-70686044D01*
X93051021Y-70686046D01*
X93208216Y-70856806D01*
X93208219Y-70856808D01*
X93208222Y-70856811D01*
X93391365Y-70999357D01*
X93391371Y-70999361D01*
X93391374Y-70999363D01*
X93595497Y-71109829D01*
X93709487Y-71148961D01*
X93815015Y-71185190D01*
X93815017Y-71185190D01*
X93815019Y-71185191D01*
X94043951Y-71223393D01*
X94043952Y-71223393D01*
X94276048Y-71223393D01*
X94276049Y-71223393D01*
X94504981Y-71185191D01*
X94724503Y-71109829D01*
X94928626Y-70999363D01*
X95111784Y-70856806D01*
X95268979Y-70686046D01*
X95395924Y-70491742D01*
X95489157Y-70279193D01*
X95546134Y-70054198D01*
X95565300Y-69822893D01*
X95565300Y-69822886D01*
X95546135Y-69591595D01*
X95546133Y-69591584D01*
X95489157Y-69366592D01*
X95395924Y-69154044D01*
X95268983Y-68959745D01*
X95268980Y-68959742D01*
X95268979Y-68959740D01*
X95111784Y-68788980D01*
X95111779Y-68788976D01*
X95111777Y-68788974D01*
X94928634Y-68646428D01*
X94928628Y-68646424D01*
X94724504Y-68535957D01*
X94724495Y-68535954D01*
X94504984Y-68460595D01*
X94314450Y-68428801D01*
X94276049Y-68422393D01*
X94043951Y-68422393D01*
X94005550Y-68428801D01*
X93815015Y-68460595D01*
X93595504Y-68535954D01*
X93595495Y-68535957D01*
X93391371Y-68646424D01*
X93391365Y-68646428D01*
X93208222Y-68788974D01*
X93208219Y-68788977D01*
X93208216Y-68788979D01*
X93208216Y-68788980D01*
X93060500Y-68949444D01*
X93051015Y-68959747D01*
X93013808Y-69016697D01*
X92960662Y-69062054D01*
X92891430Y-69071477D01*
X92828095Y-69041975D01*
X92806192Y-69016697D01*
X92768984Y-68959747D01*
X92768982Y-68959745D01*
X92768979Y-68959740D01*
X92611784Y-68788980D01*
X92611779Y-68788976D01*
X92611777Y-68788974D01*
X92428634Y-68646428D01*
X92428628Y-68646424D01*
X92224504Y-68535957D01*
X92224495Y-68535954D01*
X92004984Y-68460595D01*
X91814450Y-68428801D01*
X91776049Y-68422393D01*
X91543951Y-68422393D01*
X91505550Y-68428801D01*
X91315015Y-68460595D01*
X91095504Y-68535954D01*
X91095495Y-68535957D01*
X90891372Y-68646424D01*
X90714436Y-68784138D01*
X90649442Y-68809780D01*
X90580902Y-68796213D01*
X90530577Y-68747745D01*
X90522092Y-68729616D01*
X90503798Y-68680566D01*
X90503793Y-68680557D01*
X90417547Y-68565348D01*
X90417544Y-68565345D01*
X90302335Y-68479099D01*
X90302328Y-68479095D01*
X90167482Y-68428801D01*
X90167483Y-68428801D01*
X90107883Y-68422394D01*
X90107881Y-68422393D01*
X90107873Y-68422393D01*
X90107864Y-68422393D01*
X88212129Y-68422393D01*
X88212123Y-68422394D01*
X88152516Y-68428801D01*
X88017671Y-68479095D01*
X88017664Y-68479099D01*
X87902455Y-68565345D01*
X87902452Y-68565348D01*
X87816206Y-68680557D01*
X87816202Y-68680564D01*
X87765908Y-68815410D01*
X87759501Y-68875009D01*
X87759500Y-68875028D01*
X87759500Y-70770763D01*
X76333393Y-70770763D01*
X76333393Y-67461429D01*
X76353078Y-67394390D01*
X76405882Y-67348635D01*
X76475040Y-67338691D01*
X76538596Y-67367716D01*
X76574435Y-67420474D01*
X76617104Y-67542416D01*
X76713077Y-67695155D01*
X76840631Y-67822709D01*
X76993371Y-67918682D01*
X77163638Y-67978261D01*
X77163643Y-67978262D01*
X77342889Y-67998458D01*
X77342893Y-67998458D01*
X77342897Y-67998458D01*
X77522142Y-67978262D01*
X77522145Y-67978261D01*
X77522148Y-67978261D01*
X77692415Y-67918682D01*
X77845155Y-67822709D01*
X77972709Y-67695155D01*
X78068682Y-67542415D01*
X78128261Y-67372148D01*
X78128262Y-67372142D01*
X78148458Y-67192896D01*
X78148458Y-67192889D01*
X78128262Y-67013643D01*
X78128261Y-67013638D01*
X78068682Y-66843371D01*
X77972709Y-66690631D01*
X77972707Y-66690629D01*
X77972706Y-66690627D01*
X77970443Y-66687789D01*
X77969552Y-66685608D01*
X77969004Y-66684735D01*
X77969157Y-66684638D01*
X77944037Y-66623102D01*
X77943393Y-66610480D01*
X77943393Y-62820910D01*
X84999500Y-62820910D01*
X85014403Y-63024508D01*
X85014405Y-63024522D01*
X85073615Y-63290328D01*
X85073618Y-63290335D01*
X85170907Y-63544707D01*
X85304196Y-63782203D01*
X85470645Y-63997761D01*
X85666705Y-64186787D01*
X85666708Y-64186789D01*
X85666709Y-64186790D01*
X85888189Y-64345245D01*
X85888192Y-64345246D01*
X85888198Y-64345251D01*
X86017908Y-64411940D01*
X86108848Y-64458696D01*
X86130403Y-64469778D01*
X86130407Y-64469779D01*
X86130411Y-64469781D01*
X86388145Y-64557708D01*
X86388151Y-64557709D01*
X86388159Y-64557712D01*
X86548564Y-64587340D01*
X86655959Y-64607177D01*
X86655961Y-64607177D01*
X86655971Y-64607179D01*
X86873699Y-64615135D01*
X86928129Y-64617125D01*
X86928129Y-64617124D01*
X86928131Y-64617125D01*
X87198839Y-64587339D01*
X87462326Y-64518455D01*
X87712975Y-64411940D01*
X87945444Y-64270066D01*
X88154779Y-64095856D01*
X88336518Y-63893024D01*
X88486788Y-63665891D01*
X88602386Y-63419299D01*
X88680847Y-63158504D01*
X88720500Y-62889064D01*
X88720500Y-62820462D01*
X94599500Y-62820462D01*
X94614307Y-63022756D01*
X94614308Y-63022766D01*
X94673139Y-63286864D01*
X94673141Y-63286869D01*
X94769802Y-63539600D01*
X94902232Y-63775564D01*
X95067606Y-63989731D01*
X95262392Y-64177528D01*
X95262397Y-64177533D01*
X95262402Y-64177537D01*
X95482466Y-64334980D01*
X95556266Y-64372923D01*
X95723093Y-64458696D01*
X95723104Y-64458700D01*
X95723109Y-64458703D01*
X95723115Y-64458705D01*
X95979188Y-64546066D01*
X95979194Y-64546067D01*
X95979202Y-64546070D01*
X96184978Y-64584078D01*
X96245275Y-64595216D01*
X96245277Y-64595216D01*
X96245287Y-64595218D01*
X96461611Y-64603123D01*
X96515690Y-64605100D01*
X96515690Y-64605099D01*
X96515692Y-64605100D01*
X96784654Y-64575506D01*
X97046441Y-64507066D01*
X97295473Y-64401239D01*
X97526443Y-64260280D01*
X97734428Y-64087194D01*
X97914994Y-63885669D01*
X98064295Y-63660002D01*
X98179147Y-63415000D01*
X98257102Y-63155888D01*
X98296500Y-62888186D01*
X98296500Y-62820910D01*
X101292393Y-62820910D01*
X101307296Y-63024508D01*
X101307298Y-63024522D01*
X101366508Y-63290328D01*
X101366511Y-63290335D01*
X101463800Y-63544707D01*
X101597089Y-63782203D01*
X101763538Y-63997761D01*
X101959598Y-64186787D01*
X101959601Y-64186789D01*
X101959602Y-64186790D01*
X102181082Y-64345245D01*
X102181085Y-64345246D01*
X102181091Y-64345251D01*
X102310801Y-64411940D01*
X102401741Y-64458696D01*
X102423296Y-64469778D01*
X102423300Y-64469779D01*
X102423304Y-64469781D01*
X102681038Y-64557708D01*
X102681044Y-64557709D01*
X102681052Y-64557712D01*
X102841457Y-64587340D01*
X102948852Y-64607177D01*
X102948854Y-64607177D01*
X102948864Y-64607179D01*
X103166592Y-64615135D01*
X103221022Y-64617125D01*
X103221022Y-64617124D01*
X103221024Y-64617125D01*
X103491732Y-64587339D01*
X103755219Y-64518455D01*
X104005868Y-64411940D01*
X104238337Y-64270066D01*
X104447672Y-64095856D01*
X104629411Y-63893024D01*
X104779681Y-63665891D01*
X104895279Y-63419299D01*
X104973740Y-63158504D01*
X105013393Y-62889064D01*
X105013393Y-62820462D01*
X110892393Y-62820462D01*
X110907200Y-63022756D01*
X110907201Y-63022766D01*
X110966032Y-63286864D01*
X110966034Y-63286869D01*
X111062695Y-63539600D01*
X111195125Y-63775564D01*
X111360499Y-63989731D01*
X111555285Y-64177528D01*
X111555290Y-64177533D01*
X111555295Y-64177537D01*
X111775359Y-64334980D01*
X111849159Y-64372923D01*
X112015986Y-64458696D01*
X112015997Y-64458700D01*
X112016002Y-64458703D01*
X112016008Y-64458705D01*
X112272081Y-64546066D01*
X112272087Y-64546067D01*
X112272095Y-64546070D01*
X112477871Y-64584078D01*
X112538168Y-64595216D01*
X112538170Y-64595216D01*
X112538180Y-64595218D01*
X112754504Y-64603123D01*
X112808583Y-64605100D01*
X112808583Y-64605099D01*
X112808585Y-64605100D01*
X113077547Y-64575506D01*
X113339334Y-64507066D01*
X113588366Y-64401239D01*
X113819336Y-64260280D01*
X114027321Y-64087194D01*
X114207887Y-63885669D01*
X114357188Y-63660002D01*
X114472040Y-63415000D01*
X114549995Y-63155888D01*
X114589393Y-62888186D01*
X114589393Y-61801342D01*
X114574586Y-61599029D01*
X114515752Y-61334917D01*
X114419091Y-61082186D01*
X114286661Y-60846222D01*
X114121287Y-60632055D01*
X114121286Y-60632054D01*
X113926500Y-60444257D01*
X113926493Y-60444251D01*
X113926491Y-60444249D01*
X113706427Y-60286806D01*
X113698730Y-60282848D01*
X113465799Y-60163089D01*
X113465777Y-60163080D01*
X113209704Y-60075719D01*
X113209691Y-60075716D01*
X113209686Y-60075715D01*
X112943617Y-60026569D01*
X112943597Y-60026567D01*
X112673202Y-60016685D01*
X112404243Y-60046279D01*
X112404232Y-60046281D01*
X112142457Y-60114718D01*
X111893425Y-60220544D01*
X111662454Y-60361503D01*
X111662444Y-60361510D01*
X111454467Y-60534589D01*
X111454465Y-60534591D01*
X111273898Y-60736117D01*
X111124598Y-60961782D01*
X111009746Y-61206786D01*
X110931790Y-61465899D01*
X110931790Y-61465900D01*
X110928643Y-61487285D01*
X110892393Y-61733600D01*
X110892393Y-61733604D01*
X110892393Y-62820462D01*
X105013393Y-62820462D01*
X105013393Y-61824893D01*
X105011669Y-61801344D01*
X105006711Y-61733600D01*
X104998490Y-61621277D01*
X104993532Y-61599019D01*
X104939277Y-61355457D01*
X104939275Y-61355453D01*
X104939275Y-61355451D01*
X104841986Y-61101079D01*
X104708697Y-60863583D01*
X104542248Y-60648025D01*
X104346188Y-60458999D01*
X104346185Y-60458997D01*
X104346183Y-60458995D01*
X104124703Y-60300540D01*
X104124697Y-60300536D01*
X104124695Y-60300535D01*
X103994985Y-60233846D01*
X103882495Y-60176010D01*
X103882481Y-60176004D01*
X103624747Y-60088077D01*
X103624734Y-60088074D01*
X103624729Y-60088073D01*
X103356933Y-60038608D01*
X103356913Y-60038606D01*
X103084763Y-60028660D01*
X102814065Y-60058445D01*
X102814052Y-60058447D01*
X102550572Y-60127329D01*
X102299918Y-60233846D01*
X102067453Y-60375717D01*
X102067443Y-60375724D01*
X101858115Y-60549928D01*
X101676375Y-60752761D01*
X101526106Y-60979892D01*
X101526105Y-60979895D01*
X101419743Y-61206786D01*
X101410506Y-61226490D01*
X101332045Y-61487285D01*
X101315602Y-61599019D01*
X101292393Y-61756722D01*
X101292393Y-61756726D01*
X101292393Y-62820910D01*
X98296500Y-62820910D01*
X98296500Y-61801342D01*
X98281693Y-61599029D01*
X98222859Y-61334917D01*
X98126198Y-61082186D01*
X97993768Y-60846222D01*
X97828394Y-60632055D01*
X97828393Y-60632054D01*
X97633607Y-60444257D01*
X97633600Y-60444251D01*
X97633598Y-60444249D01*
X97413534Y-60286806D01*
X97405837Y-60282848D01*
X97172906Y-60163089D01*
X97172884Y-60163080D01*
X96916811Y-60075719D01*
X96916798Y-60075716D01*
X96916793Y-60075715D01*
X96650724Y-60026569D01*
X96650704Y-60026567D01*
X96380309Y-60016685D01*
X96111350Y-60046279D01*
X96111339Y-60046281D01*
X95849564Y-60114718D01*
X95600532Y-60220544D01*
X95369561Y-60361503D01*
X95369551Y-60361510D01*
X95161574Y-60534589D01*
X95161572Y-60534591D01*
X94981005Y-60736117D01*
X94831705Y-60961782D01*
X94716853Y-61206786D01*
X94638897Y-61465899D01*
X94638897Y-61465900D01*
X94635750Y-61487285D01*
X94599500Y-61733600D01*
X94599500Y-61733604D01*
X94599500Y-62820462D01*
X88720500Y-62820462D01*
X88720500Y-61824893D01*
X88718776Y-61801344D01*
X88713818Y-61733600D01*
X88705597Y-61621277D01*
X88700639Y-61599019D01*
X88646384Y-61355457D01*
X88646382Y-61355453D01*
X88646382Y-61355451D01*
X88549093Y-61101079D01*
X88415804Y-60863583D01*
X88249355Y-60648025D01*
X88053295Y-60458999D01*
X88053292Y-60458997D01*
X88053290Y-60458995D01*
X87831810Y-60300540D01*
X87831804Y-60300536D01*
X87831802Y-60300535D01*
X87702092Y-60233846D01*
X87589602Y-60176010D01*
X87589588Y-60176004D01*
X87331854Y-60088077D01*
X87331841Y-60088074D01*
X87331836Y-60088073D01*
X87064040Y-60038608D01*
X87064020Y-60038606D01*
X86791870Y-60028660D01*
X86521172Y-60058445D01*
X86521159Y-60058447D01*
X86257679Y-60127329D01*
X86007025Y-60233846D01*
X85774560Y-60375717D01*
X85774550Y-60375724D01*
X85565222Y-60549928D01*
X85383482Y-60752761D01*
X85233213Y-60979892D01*
X85233212Y-60979895D01*
X85126850Y-61206786D01*
X85117613Y-61226490D01*
X85039152Y-61487285D01*
X85022709Y-61599019D01*
X84999500Y-61756722D01*
X84999500Y-61756726D01*
X84999500Y-62820910D01*
X77943393Y-62820910D01*
X77943393Y-56041623D01*
X77963078Y-55974584D01*
X78015882Y-55928829D01*
X78085040Y-55918885D01*
X78148596Y-55947910D01*
X78183573Y-55998287D01*
X78241825Y-56154466D01*
X78268526Y-56226055D01*
X78268528Y-56226059D01*
X78405663Y-56477202D01*
X78405668Y-56477210D01*
X78577147Y-56706280D01*
X78577163Y-56706298D01*
X78779487Y-56908622D01*
X78779505Y-56908638D01*
X79008575Y-57080117D01*
X79008583Y-57080122D01*
X79259726Y-57217257D01*
X79259725Y-57217257D01*
X79259729Y-57217258D01*
X79259732Y-57217260D01*
X79527847Y-57317262D01*
X79527853Y-57317263D01*
X79527855Y-57317264D01*
X79807459Y-57378088D01*
X79807461Y-57378088D01*
X79807465Y-57378089D01*
X80061113Y-57396230D01*
X80092892Y-57398503D01*
X80092893Y-57398503D01*
X80092894Y-57398503D01*
X80121488Y-57396457D01*
X80378321Y-57378089D01*
X80657939Y-57317262D01*
X80926054Y-57217260D01*
X81177208Y-57080119D01*
X81406288Y-56908632D01*
X81608632Y-56706288D01*
X81780119Y-56477208D01*
X81917260Y-56226054D01*
X82017262Y-55957939D01*
X82021964Y-55936326D01*
X82078088Y-55678326D01*
X82078088Y-55678325D01*
X82078089Y-55678321D01*
X82098503Y-55392893D01*
X82078089Y-55107465D01*
X82032588Y-54898301D01*
X82017264Y-54827855D01*
X82017263Y-54827853D01*
X82017262Y-54827847D01*
X81917260Y-54559732D01*
X81859006Y-54453049D01*
X81780122Y-54308583D01*
X81780117Y-54308575D01*
X81608638Y-54079505D01*
X81608622Y-54079487D01*
X81406298Y-53877163D01*
X81406280Y-53877147D01*
X81177210Y-53705668D01*
X81177202Y-53705663D01*
X80926059Y-53568528D01*
X80926060Y-53568528D01*
X80818808Y-53528525D01*
X80657939Y-53468524D01*
X80657936Y-53468523D01*
X80657930Y-53468521D01*
X80378326Y-53407697D01*
X80092894Y-53387283D01*
X80092892Y-53387283D01*
X79807459Y-53407697D01*
X79527855Y-53468521D01*
X79259726Y-53568528D01*
X79008583Y-53705663D01*
X79008575Y-53705668D01*
X78779505Y-53877147D01*
X78779487Y-53877163D01*
X78577163Y-54079487D01*
X78577147Y-54079505D01*
X78405668Y-54308575D01*
X78405663Y-54308583D01*
X78268528Y-54559726D01*
X78168521Y-54827855D01*
X78107697Y-55107459D01*
X78087283Y-55392890D01*
X78088068Y-55403873D01*
X78073212Y-55472145D01*
X78023804Y-55521548D01*
X77955531Y-55536397D01*
X77890068Y-55511976D01*
X77866007Y-55488199D01*
X77795344Y-55396109D01*
X77795343Y-55396108D01*
X77781654Y-55378268D01*
X77771174Y-55364609D01*
X77746122Y-55345387D01*
X77733927Y-55334692D01*
X77545659Y-55146424D01*
X77512174Y-55085101D01*
X77513565Y-55026650D01*
X77522396Y-54993691D01*
X77547956Y-54898301D01*
X77568552Y-54662893D01*
X77547956Y-54427485D01*
X77486796Y-54199230D01*
X77386928Y-53985064D01*
X77381624Y-53977488D01*
X77251387Y-53791490D01*
X77084295Y-53624399D01*
X77084288Y-53624394D01*
X76890727Y-53488860D01*
X76890723Y-53488858D01*
X76890721Y-53488857D01*
X76676556Y-53388990D01*
X76676552Y-53388989D01*
X76676548Y-53388987D01*
X76448306Y-53327831D01*
X76448296Y-53327829D01*
X76212894Y-53307234D01*
X76212892Y-53307234D01*
X75977489Y-53327829D01*
X75977479Y-53327831D01*
X75749237Y-53388987D01*
X75749228Y-53388991D01*
X75535064Y-53488857D01*
X75535062Y-53488858D01*
X75341490Y-53624398D01*
X75174398Y-53791490D01*
X75044468Y-53977051D01*
X74989891Y-54020676D01*
X74920393Y-54027870D01*
X74858038Y-53996347D01*
X74841318Y-53977051D01*
X74711387Y-53791490D01*
X74544295Y-53624399D01*
X74544288Y-53624394D01*
X74350727Y-53488860D01*
X74350723Y-53488858D01*
X74350721Y-53488857D01*
X74136556Y-53388990D01*
X74136552Y-53388989D01*
X74136548Y-53388987D01*
X73908306Y-53327831D01*
X73908296Y-53327829D01*
X73672894Y-53307234D01*
X73672892Y-53307234D01*
X73437489Y-53327829D01*
X73437479Y-53327831D01*
X73209237Y-53388987D01*
X73209228Y-53388991D01*
X72995064Y-53488857D01*
X72995062Y-53488858D01*
X72801490Y-53624398D01*
X72634398Y-53791490D01*
X72504468Y-53977051D01*
X72449891Y-54020676D01*
X72380393Y-54027870D01*
X72318038Y-53996347D01*
X72301318Y-53977051D01*
X72171387Y-53791490D01*
X72004295Y-53624399D01*
X72004288Y-53624394D01*
X71810727Y-53488860D01*
X71810723Y-53488858D01*
X71810721Y-53488857D01*
X71596556Y-53388990D01*
X71596552Y-53388989D01*
X71596548Y-53388987D01*
X71368306Y-53327831D01*
X71368296Y-53327829D01*
X71132894Y-53307234D01*
X71132892Y-53307234D01*
X70897489Y-53327829D01*
X70897479Y-53327831D01*
X70669237Y-53388987D01*
X70669228Y-53388991D01*
X70455064Y-53488857D01*
X70455062Y-53488858D01*
X70261490Y-53624398D01*
X70094398Y-53791490D01*
X69964468Y-53977051D01*
X69909891Y-54020676D01*
X69840393Y-54027870D01*
X69778038Y-53996347D01*
X69761318Y-53977051D01*
X69631387Y-53791490D01*
X69464295Y-53624399D01*
X69464288Y-53624394D01*
X69270727Y-53488860D01*
X69270723Y-53488858D01*
X69270721Y-53488857D01*
X69056556Y-53388990D01*
X69056552Y-53388989D01*
X69056548Y-53388987D01*
X68828306Y-53327831D01*
X68828296Y-53327829D01*
X68592894Y-53307234D01*
X68592892Y-53307234D01*
X68357489Y-53327829D01*
X68357479Y-53327831D01*
X68129237Y-53388987D01*
X68129228Y-53388991D01*
X67915064Y-53488857D01*
X67915062Y-53488858D01*
X67721490Y-53624398D01*
X67554398Y-53791490D01*
X67424468Y-53977051D01*
X67369891Y-54020676D01*
X67300393Y-54027870D01*
X67238038Y-53996347D01*
X67221318Y-53977051D01*
X67091387Y-53791490D01*
X66924295Y-53624399D01*
X66924288Y-53624394D01*
X66730727Y-53488860D01*
X66730723Y-53488858D01*
X66730721Y-53488857D01*
X66516556Y-53388990D01*
X66516552Y-53388989D01*
X66516548Y-53388987D01*
X66288306Y-53327831D01*
X66288296Y-53327829D01*
X66052894Y-53307234D01*
X66052892Y-53307234D01*
X65817489Y-53327829D01*
X65817479Y-53327831D01*
X65589237Y-53388987D01*
X65589228Y-53388991D01*
X65375064Y-53488857D01*
X65375062Y-53488858D01*
X65181490Y-53624398D01*
X65014401Y-53791487D01*
X64884162Y-53977488D01*
X64829585Y-54021112D01*
X64760086Y-54028305D01*
X64697732Y-53996783D01*
X64681012Y-53977487D01*
X64551006Y-53791819D01*
X64551001Y-53791813D01*
X64383975Y-53624787D01*
X64190471Y-53489292D01*
X63976385Y-53389463D01*
X63976379Y-53389460D01*
X63762893Y-53332257D01*
X63762893Y-54227391D01*
X63655208Y-54178213D01*
X63548656Y-54162893D01*
X63477130Y-54162893D01*
X63370578Y-54178213D01*
X63262893Y-54227391D01*
X63262893Y-53332257D01*
X63262892Y-53332257D01*
X63049406Y-53389460D01*
X63049400Y-53389463D01*
X62835315Y-53489292D01*
X62835313Y-53489293D01*
X62641819Y-53624779D01*
X62519758Y-53746840D01*
X62458435Y-53780324D01*
X62388743Y-53775340D01*
X62332810Y-53733468D01*
X62315895Y-53702491D01*
X62266690Y-53570564D01*
X62266686Y-53570557D01*
X62180440Y-53455348D01*
X62180437Y-53455345D01*
X62065228Y-53369099D01*
X62065221Y-53369095D01*
X61930375Y-53318801D01*
X61930376Y-53318801D01*
X61870776Y-53312394D01*
X61870774Y-53312393D01*
X61870766Y-53312393D01*
X61870757Y-53312393D01*
X60075022Y-53312393D01*
X60075016Y-53312394D01*
X60015409Y-53318801D01*
X59880564Y-53369095D01*
X59880557Y-53369099D01*
X59765348Y-53455345D01*
X59765345Y-53455348D01*
X59679099Y-53570557D01*
X59679095Y-53570564D01*
X59628801Y-53705410D01*
X59622394Y-53765009D01*
X59622393Y-53765028D01*
X59622393Y-55560763D01*
X59086497Y-55560763D01*
X59098503Y-55392893D01*
X59078089Y-55107465D01*
X59032588Y-54898301D01*
X59017264Y-54827855D01*
X59017263Y-54827853D01*
X59017262Y-54827847D01*
X58917260Y-54559732D01*
X58859006Y-54453049D01*
X58780122Y-54308583D01*
X58780117Y-54308575D01*
X58608638Y-54079505D01*
X58608622Y-54079487D01*
X58406298Y-53877163D01*
X58406280Y-53877147D01*
X58177210Y-53705668D01*
X58177202Y-53705663D01*
X57926059Y-53568528D01*
X57926060Y-53568528D01*
X57818808Y-53528525D01*
X57657939Y-53468524D01*
X57657936Y-53468523D01*
X57657930Y-53468521D01*
X57378326Y-53407697D01*
X57092894Y-53387283D01*
X57092892Y-53387283D01*
X56807459Y-53407697D01*
X56527855Y-53468521D01*
X56259726Y-53568528D01*
X56008583Y-53705663D01*
X56008575Y-53705668D01*
X55779505Y-53877147D01*
X55779487Y-53877163D01*
X55577163Y-54079487D01*
X55577147Y-54079505D01*
X55405668Y-54308575D01*
X55405663Y-54308583D01*
X55268528Y-54559726D01*
X55168521Y-54827855D01*
X55107697Y-55107459D01*
X55087283Y-55392891D01*
X55087283Y-55392894D01*
X54243393Y-55392894D01*
X54243393Y-50250000D01*
X55894341Y-50250000D01*
X55914936Y-50485403D01*
X55914938Y-50485413D01*
X55976094Y-50713655D01*
X55976096Y-50713659D01*
X55976097Y-50713663D01*
X56026031Y-50820746D01*
X56075964Y-50927828D01*
X56075965Y-50927830D01*
X56211505Y-51121402D01*
X56378597Y-51288494D01*
X56572169Y-51424034D01*
X56572171Y-51424035D01*
X56786337Y-51523903D01*
X57014592Y-51585063D01*
X57191032Y-51600499D01*
X57191033Y-51600500D01*
X57191034Y-51600500D01*
X57308967Y-51600500D01*
X57308967Y-51600499D01*
X57485408Y-51585063D01*
X57713663Y-51523903D01*
X57927829Y-51424035D01*
X58121401Y-51288495D01*
X58288495Y-51121401D01*
X58424035Y-50927830D01*
X58523903Y-50713663D01*
X58585063Y-50485408D01*
X58605659Y-50250000D01*
X110894341Y-50250000D01*
X110914936Y-50485403D01*
X110914938Y-50485413D01*
X110976094Y-50713655D01*
X110976096Y-50713659D01*
X110976097Y-50713663D01*
X111026031Y-50820746D01*
X111075964Y-50927828D01*
X111075965Y-50927830D01*
X111211505Y-51121402D01*
X111378597Y-51288494D01*
X111572169Y-51424034D01*
X111572171Y-51424035D01*
X111786337Y-51523903D01*
X112014592Y-51585063D01*
X112191032Y-51600499D01*
X112191033Y-51600500D01*
X112191034Y-51600500D01*
X112308967Y-51600500D01*
X112308967Y-51600499D01*
X112485408Y-51585063D01*
X112713663Y-51523903D01*
X112927829Y-51424035D01*
X113121401Y-51288495D01*
X113288495Y-51121401D01*
X113424035Y-50927830D01*
X113523903Y-50713663D01*
X113585063Y-50485408D01*
X113605659Y-50250000D01*
X113585063Y-50014592D01*
X113523903Y-49786337D01*
X113424035Y-49572171D01*
X113424034Y-49572169D01*
X113288494Y-49378597D01*
X113121402Y-49211505D01*
X112927830Y-49075965D01*
X112927828Y-49075964D01*
X112820746Y-49026031D01*
X112713663Y-48976097D01*
X112713659Y-48976096D01*
X112713655Y-48976094D01*
X112485413Y-48914938D01*
X112485403Y-48914936D01*
X112308967Y-48899500D01*
X112308966Y-48899500D01*
X112191034Y-48899500D01*
X112191033Y-48899500D01*
X112014596Y-48914936D01*
X112014586Y-48914938D01*
X111786344Y-48976094D01*
X111786335Y-48976098D01*
X111572171Y-49075964D01*
X111572169Y-49075965D01*
X111378597Y-49211505D01*
X111211506Y-49378597D01*
X111211501Y-49378604D01*
X111075967Y-49572165D01*
X111075965Y-49572169D01*
X110976098Y-49786335D01*
X110976094Y-49786344D01*
X110914938Y-50014586D01*
X110914936Y-50014596D01*
X110894341Y-50249999D01*
X110894341Y-50250000D01*
X58605659Y-50250000D01*
X58585063Y-50014592D01*
X58523903Y-49786337D01*
X58424035Y-49572171D01*
X58424034Y-49572169D01*
X58288494Y-49378597D01*
X58121402Y-49211505D01*
X57927830Y-49075965D01*
X57927828Y-49075964D01*
X57820746Y-49026031D01*
X57713663Y-48976097D01*
X57713659Y-48976096D01*
X57713655Y-48976094D01*
X57485413Y-48914938D01*
X57485403Y-48914936D01*
X57308967Y-48899500D01*
X57308966Y-48899500D01*
X57191034Y-48899500D01*
X57191033Y-48899500D01*
X57014596Y-48914936D01*
X57014586Y-48914938D01*
X56786344Y-48976094D01*
X56786335Y-48976098D01*
X56572171Y-49075964D01*
X56572169Y-49075965D01*
X56378597Y-49211505D01*
X56211506Y-49378597D01*
X56211501Y-49378604D01*
X56075967Y-49572165D01*
X56075965Y-49572169D01*
X55976098Y-49786335D01*
X55976094Y-49786344D01*
X55914938Y-50014586D01*
X55914936Y-50014596D01*
X55894341Y-50249999D01*
X55894341Y-50250000D01*
X54243393Y-50250000D01*
X54243393Y-47749858D01*
X54244173Y-47735975D01*
X54244998Y-47728648D01*
X54254353Y-47645625D01*
X54260526Y-47618573D01*
X54288250Y-47539345D01*
X54300287Y-47514350D01*
X54344941Y-47443284D01*
X54362246Y-47421585D01*
X54421585Y-47362246D01*
X54443284Y-47344941D01*
X54514350Y-47300287D01*
X54539345Y-47288250D01*
X54618573Y-47260526D01*
X54645625Y-47254353D01*
X54716407Y-47246377D01*
X54735976Y-47244173D01*
X54749859Y-47243393D01*
X54808789Y-47243393D01*
X114677000Y-47243393D01*
X114677004Y-47243394D01*
G37*
G04 #@! TD.AperFunction*
M02*
